<?xml version="1.0" encoding="UTF-8" standalone="no"?>
<!-- Created with Inkscape (http://www.inkscape.org/) -->

<svg
   xmlns:dc="http://purl.org/dc/elements/1.1/"
   xmlns:cc="http://creativecommons.org/ns#"
   xmlns:rdf="http://www.w3.org/1999/02/22-rdf-syntax-ns#"
   xmlns:svg="http://www.w3.org/2000/svg"
   xmlns="http://www.w3.org/2000/svg"
   xmlns:sodipodi="http://sodipodi.sourceforge.net/DTD/sodipodi-0.dtd"
   xmlns:inkscape="http://www.inkscape.org/namespaces/inkscape"
   width="264.30356mm"
   height="182.66072mm"
   viewBox="0 0 264.30356 182.66072"
   version="1.1"
   id="svg8"
   inkscape:version="0.92.3 (2405546, 2018-03-11)"
   sodipodi:docname="import.svg">
  <defs
     id="defs2">
    <linearGradient
       spreadMethod="pad"
       gradientUnits="userSpaceOnUse"
       y2="593.78699"
       y1="3.6658268"
       x2="590.86261"
       x1="0.7414425"
       id="gradientFill-1"
       gradientTransform="scale(1.2219423,0.81836924)">
      <stop
         id="stop5061"
         stop-opacity="1"
         stop-color="rgb(203,206,208)"
         offset="0" />
      <stop
         id="stop5063"
         stop-opacity="1"
         stop-color="rgb(132,131,139)"
         offset="1" />
    </linearGradient>
    <linearGradient
       spreadMethod="pad"
       gradientUnits="userSpaceOnUse"
       y2="553.44208"
       y1="151.4006"
       x2="703.0675"
       x1="301.02603"
       id="gradientFill-2"
       gradientTransform="scale(0.9899476,1.0101545)">
      <stop
         id="stop5066"
         stop-opacity="1"
         stop-color="rgb(39,109,195)"
         offset="0" />
      <stop
         id="stop5068"
         stop-opacity="1"
         stop-color="rgb(22,92,170)"
         offset="1" />
    </linearGradient>
  </defs>
  <sodipodi:namedview
     id="base"
     pagecolor="#ffffff"
     bordercolor="#666666"
     borderopacity="1.0"
     inkscape:pageopacity="0.0"
     inkscape:pageshadow="2"
     inkscape:zoom="0.57215594"
     inkscape:cx="709.20066"
     inkscape:cy="305.41376"
     inkscape:document-units="mm"
     inkscape:current-layer="layer1"
     showgrid="false"
     inkscape:window-width="1920"
     inkscape:window-height="1017"
     inkscape:window-x="1592"
     inkscape:window-y="-8"
     inkscape:window-maximized="1" />
  <metadata
     id="metadata5">
    <rdf:RDF>
      <cc:Work
         rdf:about="">
        <dc:format>image/svg+xml</dc:format>
        <dc:type
           rdf:resource="http://purl.org/dc/dcmitype/StillImage" />
        <dc:title></dc:title>
      </cc:Work>
    </rdf:RDF>
  </metadata>
  <g
     inkscape:label="Calque 1"
     inkscape:groupmode="layer"
     id="layer1"
     transform="translate(-19.416672,-100.21429)">
    <g
       id="g4096"
       transform="matrix(0.26458333,0,0,0.26458333,45.51807,-195.4676)" />
    <g
       id="g4098"
       transform="matrix(0.26458333,0,0,0.26458333,45.51807,-195.4676)" />
    <g
       id="g4100"
       transform="matrix(0.26458333,0,0,0.26458333,45.51807,-195.4676)" />
    <g
       id="g4102"
       transform="matrix(0.26458333,0,0,0.26458333,45.51807,-195.4676)" />
    <g
       id="g4104"
       transform="matrix(0.26458333,0,0,0.26458333,45.51807,-195.4676)" />
    <g
       id="g4106"
       transform="matrix(0.26458333,0,0,0.26458333,45.51807,-195.4676)" />
    <g
       id="g4108"
       transform="matrix(0.26458333,0,0,0.26458333,45.51807,-195.4676)" />
    <g
       id="g4110"
       transform="matrix(0.26458333,0,0,0.26458333,45.51807,-195.4676)" />
    <g
       id="g4112"
       transform="matrix(0.26458333,0,0,0.26458333,45.51807,-195.4676)" />
    <g
       id="g4114"
       transform="matrix(0.26458333,0,0,0.26458333,45.51807,-195.4676)" />
    <g
       id="g4116"
       transform="matrix(0.26458333,0,0,0.26458333,45.51807,-195.4676)" />
    <g
       id="g4118"
       transform="matrix(0.26458333,0,0,0.26458333,45.51807,-195.4676)" />
    <g
       id="g4120"
       transform="matrix(0.26458333,0,0,0.26458333,45.51807,-195.4676)" />
    <g
       id="g4122"
       transform="matrix(0.26458333,0,0,0.26458333,45.51807,-195.4676)" />
    <g
       id="g4124"
       transform="matrix(0.26458333,0,0,0.26458333,45.51807,-195.4676)" />
    <g
       id="g3350">
      <ellipse
         ry="89.58036"
         rx="130.40178"
         cy="191.54465"
         cx="151.56845"
         id="path5165"
         style="fill:#c1c861;fill-opacity:0.5103448;stroke:#6aae7a;stroke-width:3.5;stroke-linecap:round;stroke-linejoin:round;stroke-miterlimit:4;stroke-dasharray:none;stroke-dashoffset:0;stroke-opacity:1" />
      <g
         transform="matrix(0.58139535,0,0,0.58139535,230.73177,176.03486)"
         id="g3852">
        <g
           id="g3785">
          <path
             inkscape:connector-curvature="0"
             style="fill:#e9e9e0"
             d="M 36.985,0 H 7.963 C 7.155,0 6.5,0.655 6.5,1.926 V 55 c 0,0.345 0.655,1 1.463,1 H 48.037 C 48.845,56 49.5,55.345 49.5,55 V 12.978 c 0,-0.696 -0.093,-0.92 -0.257,-1.085 L 37.607,0.257 C 37.442,0.093 37.218,0 36.985,0 Z"
             id="path3761" />
          <polygon
             style="fill:#d9d7ca"
             points="37.5,0.151 37.5,12 49.349,12 "
             id="polygon3763" />
          <path
             inkscape:connector-curvature="0"
             style="fill:#f29c1f"
             d="M 48.037,56 H 7.963 C 7.155,56 6.5,55.345 6.5,54.537 V 39 h 43 V 54.537 C 49.5,55.345 48.845,56 48.037,56 Z"
             id="path3765" />
          <g
             id="g3773">
            <path
               inkscape:connector-curvature="0"
               style="fill:#ffffff"
               d="M 19.379,48.105 21.936,53 h -1.9 l -1.6,-3.801 H 18.299 L 16.576,53 h -1.9 l 2.557,-4.895 -2.721,-5.182 h 1.873 l 1.777,4.102 h 0.137 l 1.928,-4.102 H 22.1 Z"
               id="path3767" />
            <path
               inkscape:connector-curvature="0"
               style="fill:#ffffff"
               d="m 31.998,42.924 h 1.668 V 53 h -1.668 v -6.932 l -2.256,5.605 h -1.449 l -2.27,-5.605 V 53 H 24.355 V 42.924 h 1.668 l 2.994,6.891 z"
               id="path3769" />
            <path
               inkscape:connector-curvature="0"
               style="fill:#ffffff"
               d="m 37.863,42.924 v 8.832 h 4.635 V 53 H 36.195 V 42.924 Z"
               id="path3771" />
          </g>
          <path
             inkscape:connector-curvature="0"
             style="fill:#f29c1f"
             d="m 15.5,24 c -0.256,0 -0.512,-0.098 -0.707,-0.293 -0.391,-0.391 -0.391,-1.023 0,-1.414 l 6,-6 c 0.391,-0.391 1.023,-0.391 1.414,0 0.391,0.391 0.391,1.023 0,1.414 l -6,6 C 16.012,23.902 15.756,24 15.5,24 Z"
             id="path3775" />
          <path
             inkscape:connector-curvature="0"
             style="fill:#f29c1f"
             d="m 21.5,30 c -0.256,0 -0.512,-0.098 -0.707,-0.293 l -6,-6 c -0.391,-0.391 -0.391,-1.023 0,-1.414 0.391,-0.391 1.023,-0.391 1.414,0 l 6,6 c 0.391,0.391 0.391,1.023 0,1.414 C 22.012,29.902 21.756,30 21.5,30 Z"
             id="path3777" />
          <path
             inkscape:connector-curvature="0"
             style="fill:#f29c1f"
             d="m 33.5,30 c -0.256,0 -0.512,-0.098 -0.707,-0.293 -0.391,-0.391 -0.391,-1.023 0,-1.414 l 6,-6 c 0.391,-0.391 1.023,-0.391 1.414,0 0.391,0.391 0.391,1.023 0,1.414 l -6,6 C 34.012,29.902 33.756,30 33.5,30 Z"
             id="path3779" />
          <path
             inkscape:connector-curvature="0"
             style="fill:#f29c1f"
             d="m 39.5,24 c -0.256,0 -0.512,-0.098 -0.707,-0.293 l -6,-6 c -0.391,-0.391 -0.391,-1.023 0,-1.414 0.391,-0.391 1.023,-0.391 1.414,0 l 6,6 c 0.391,0.391 0.391,1.023 0,1.414 C 40.012,23.902 39.756,24 39.5,24 Z"
             id="path3781" />
          <path
             inkscape:connector-curvature="0"
             style="fill:#f29c1f"
             d="m 24.5,32 c -0.11,0 -0.223,-0.019 -0.333,-0.058 -0.521,-0.184 -0.794,-0.755 -0.61,-1.276 l 6,-17 c 0.185,-0.521 0.753,-0.795 1.276,-0.61 0.521,0.184 0.794,0.755 0.61,1.276 l -6,17 C 25.298,31.744 24.912,32 24.5,32 Z"
             id="path3783" />
        </g>
        <g
           id="g3787" />
        <g
           id="g3789" />
        <g
           id="g3791" />
        <g
           id="g3793" />
        <g
           id="g3795" />
        <g
           id="g3797" />
        <g
           id="g3799" />
        <g
           id="g3801" />
        <g
           id="g3803" />
        <g
           id="g3805" />
        <g
           id="g3807" />
        <g
           id="g3809" />
        <g
           id="g3811" />
        <g
           id="g3813" />
        <g
           id="g3815" />
      </g>
      <g
         transform="matrix(0.58139535,0,0,0.58139535,199.69667,217.29062)"
         id="g3948">
        <g
           id="g3880">
          <path
             inkscape:connector-curvature="0"
             style="fill:#e9e9e0"
             d="M 36.985,0 H 7.963 C 7.155,0 6.5,0.655 6.5,1.926 V 55 c 0,0.345 0.655,1 1.463,1 H 48.037 C 48.845,56 49.5,55.345 49.5,55 V 12.978 c 0,-0.696 -0.093,-0.92 -0.257,-1.085 L 37.607,0.257 C 37.442,0.093 37.218,0 36.985,0 Z"
             id="path3854" />
          <polygon
             style="fill:#d9d7ca"
             points="37.5,0.151 37.5,12 49.349,12 "
             id="polygon3856" />
          <path
             inkscape:connector-curvature="0"
             style="fill:#9777a8"
             d="M 48.037,56 H 7.963 C 7.155,56 6.5,55.345 6.5,54.537 V 39 h 43 V 54.537 C 49.5,55.345 48.845,56 48.037,56 Z"
             id="path3858" />
          <g
             id="g3868">
            <path
               inkscape:connector-curvature="0"
               style="fill:#ffffff"
               d="m 17.021,42.719 v 7.848 c 0,0.474 -0.087,0.873 -0.26,1.196 -0.173,0.323 -0.405,0.583 -0.697,0.779 -0.292,0.196 -0.627,0.333 -1.005,0.41 -0.378,0.077 -0.768,0.116 -1.169,0.116 -0.2,0 -0.436,-0.021 -0.704,-0.062 -0.268,-0.041 -0.547,-0.104 -0.834,-0.191 -0.287,-0.087 -0.563,-0.185 -0.827,-0.294 -0.264,-0.109 -0.487,-0.232 -0.67,-0.369 l 0.697,-1.107 c 0.091,0.063 0.221,0.13 0.39,0.198 0.169,0.068 0.354,0.132 0.554,0.191 0.2,0.059 0.41,0.111 0.629,0.157 0.219,0.046 0.424,0.068 0.615,0.068 0.483,0 0.868,-0.094 1.155,-0.28 0.287,-0.186 0.439,-0.504 0.458,-0.95 v -7.711 h 1.668 z"
               id="path3860" />
            <path
               inkscape:connector-curvature="0"
               style="fill:#ffffff"
               d="m 25.184,50.238 c 0,0.364 -0.075,0.718 -0.226,1.06 -0.151,0.342 -0.362,0.643 -0.636,0.902 -0.274,0.259 -0.61,0.467 -1.012,0.622 -0.402,0.155 -0.856,0.232 -1.367,0.232 -0.219,0 -0.444,-0.012 -0.677,-0.034 -0.233,-0.022 -0.467,-0.062 -0.704,-0.116 -0.237,-0.055 -0.463,-0.13 -0.677,-0.226 -0.214,-0.096 -0.398,-0.212 -0.554,-0.349 l 0.287,-1.176 c 0.128,0.073 0.289,0.144 0.485,0.212 0.196,0.068 0.398,0.132 0.608,0.191 0.21,0.059 0.419,0.107 0.629,0.144 0.21,0.037 0.405,0.055 0.588,0.055 0.556,0 0.982,-0.13 1.278,-0.39 0.296,-0.26 0.444,-0.645 0.444,-1.155 0,-0.31 -0.104,-0.574 -0.314,-0.793 C 23.126,49.198 22.864,49 22.55,48.822 22.236,48.644 21.896,48.467 21.531,48.289 21.166,48.111 20.825,47.901 20.506,47.66 c -0.319,-0.241 -0.583,-0.526 -0.793,-0.854 -0.21,-0.328 -0.314,-0.738 -0.314,-1.23 0,-0.446 0.082,-0.843 0.246,-1.189 0.164,-0.346 0.385,-0.641 0.663,-0.882 0.278,-0.241 0.602,-0.426 0.971,-0.554 0.369,-0.128 0.759,-0.191 1.169,-0.191 0.419,0 0.843,0.039 1.271,0.116 0.428,0.077 0.774,0.203 1.039,0.376 -0.055,0.118 -0.118,0.248 -0.191,0.39 -0.073,0.142 -0.142,0.273 -0.205,0.396 -0.063,0.123 -0.118,0.226 -0.164,0.308 -0.046,0.082 -0.073,0.128 -0.082,0.137 C 24.061,44.456 24,44.42 23.931,44.374 23.862,44.328 23.765,44.283 23.637,44.237 23.509,44.191 23.341,44.16 23.131,44.141 c -0.21,-0.019 -0.479,-0.014 -0.807,0.014 -0.183,0.019 -0.355,0.07 -0.52,0.157 -0.165,0.087 -0.31,0.193 -0.438,0.321 -0.128,0.128 -0.228,0.271 -0.301,0.431 -0.073,0.16 -0.109,0.313 -0.109,0.458 0,0.364 0.104,0.658 0.314,0.882 0.21,0.224 0.47,0.419 0.779,0.588 0.309,0.169 0.647,0.333 1.012,0.492 0.365,0.159 0.704,0.354 1.019,0.581 0.315,0.227 0.576,0.513 0.786,0.854 0.21,0.341 0.318,0.781 0.318,1.319 z"
               id="path3862" />
            <path
               inkscape:connector-curvature="0"
               style="fill:#ffffff"
               d="m 35.082,47.914 c 0,0.848 -0.107,1.595 -0.321,2.242 -0.214,0.647 -0.511,1.185 -0.889,1.613 -0.378,0.428 -0.82,0.752 -1.326,0.971 -0.506,0.219 -1.06,0.328 -1.661,0.328 -0.601,0 -1.155,-0.109 -1.661,-0.328 -0.506,-0.219 -0.948,-0.542 -1.326,-0.971 -0.378,-0.429 -0.675,-0.966 -0.889,-1.613 -0.214,-0.647 -0.321,-1.395 -0.321,-2.242 0,-0.847 0.107,-1.593 0.321,-2.235 0.214,-0.642 0.511,-1.178 0.889,-1.606 0.378,-0.428 0.82,-0.754 1.326,-0.978 0.506,-0.224 1.06,-0.335 1.661,-0.335 0.601,0 1.155,0.111 1.661,0.335 0.506,0.224 0.948,0.549 1.326,0.978 0.378,0.429 0.675,0.964 0.889,1.606 0.214,0.642 0.321,1.387 0.321,2.235 z m -4.238,3.815 c 0.337,0 0.658,-0.066 0.964,-0.198 0.306,-0.132 0.579,-0.349 0.82,-0.649 0.241,-0.3 0.431,-0.695 0.567,-1.183 0.136,-0.488 0.21,-1.082 0.219,-1.784 -0.009,-0.684 -0.08,-1.265 -0.212,-1.743 -0.132,-0.478 -0.314,-0.873 -0.547,-1.183 -0.233,-0.31 -0.497,-0.533 -0.793,-0.67 -0.296,-0.137 -0.608,-0.205 -0.937,-0.205 -0.337,0 -0.658,0.063 -0.964,0.191 -0.306,0.128 -0.579,0.344 -0.82,0.649 -0.241,0.305 -0.431,0.699 -0.567,1.183 -0.137,0.483 -0.21,1.075 -0.219,1.777 0.009,0.684 0.08,1.267 0.212,1.75 0.132,0.483 0.314,0.877 0.547,1.183 0.233,0.306 0.497,0.528 0.793,0.67 0.296,0.142 0.609,0.212 0.937,0.212 z"
               id="path3864" />
            <path
               inkscape:connector-curvature="0"
               style="fill:#ffffff"
               d="M 44.68,42.924 V 53 H 43.012 L 39.061,46.055 V 53 H 37.393 V 42.924 h 1.668 l 3.951,6.945 v -6.945 z"
               id="path3866" />
          </g>
          <g
             id="g3878">
            <path
               inkscape:connector-curvature="0"
               style="fill:#9777a8"
               d="m 19.5,19 v -4 c 0,-0.551 0.448,-1 1,-1 0.553,0 1,-0.448 1,-1 0,-0.552 -0.447,-1 -1,-1 -1.654,0 -3,1.346 -3,3 v 4 c 0,1.103 -0.897,2 -2,2 -0.553,0 -1,0.448 -1,1 0,0.552 0.447,1 1,1 1.103,0 2,0.897 2,2 v 4 c 0,1.654 1.346,3 3,3 0.553,0 1,-0.448 1,-1 0,-0.552 -0.447,-1 -1,-1 -0.552,0 -1,-0.449 -1,-1 v -4 c 0,-1.2 -0.542,-2.266 -1.382,-3 0.84,-0.734 1.382,-1.8 1.382,-3 z"
               id="path3870" />
            <circle
               style="fill:#9777a8"
               cx="27.5"
               cy="18.5"
               r="1.5"
               id="circle3872" />
            <path
               inkscape:connector-curvature="0"
               style="fill:#9777a8"
               d="m 39.5,21 c -1.103,0 -2,-0.897 -2,-2 v -4 c 0,-1.654 -1.346,-3 -3,-3 -0.553,0 -1,0.448 -1,1 0,0.552 0.447,1 1,1 0.552,0 1,0.449 1,1 v 4 c 0,1.2 0.542,2.266 1.382,3 -0.84,0.734 -1.382,1.8 -1.382,3 v 4 c 0,0.551 -0.448,1 -1,1 -0.553,0 -1,0.448 -1,1 0,0.552 0.447,1 1,1 1.654,0 3,-1.346 3,-3 v -4 c 0,-1.103 0.897,-2 2,-2 0.553,0 1,-0.448 1,-1 0,-0.552 -0.447,-1 -1,-1 z"
               id="path3874" />
            <path
               inkscape:connector-curvature="0"
               style="fill:#9777a8"
               d="m 27.5,24 c -0.553,0 -1,0.448 -1,1 v 3 c 0,0.552 0.447,1 1,1 0.553,0 1,-0.448 1,-1 v -3 c 0,-0.552 -0.447,-1 -1,-1 z"
               id="path3876" />
          </g>
        </g>
        <g
           id="g3882" />
        <g
           id="g3884" />
        <g
           id="g3886" />
        <g
           id="g3888" />
        <g
           id="g3890" />
        <g
           id="g3892" />
        <g
           id="g3894" />
        <g
           id="g3896" />
        <g
           id="g3898" />
        <g
           id="g3900" />
        <g
           id="g3902" />
        <g
           id="g3904" />
        <g
           id="g3906" />
        <g
           id="g3908" />
        <g
           id="g3910" />
      </g>
      <g
         transform="translate(173.11311,-69.875665)"
         id="g5212">
        <g
           transform="translate(4.5357143,-5.2916667)"
           id="g3065">
          <g
             transform="matrix(0.29936853,0,0,0.29936853,9.212824,259.04478)"
             id="g5059">
            <circle
               style="fill:#324a5e;stroke-width:0.26458332"
               cx="112.32536"
               cy="-128.66031"
               r="66.807289"
               id="circle4064" />
            <path
               inkscape:connector-curvature="0"
               style="fill:#ffffff;stroke-width:0.26458332"
               d="m 66.658278,-149.16552 v 53.287085 c 0,0.423334 0.343958,0.740834 0.740833,0.740834 h 89.826039 c 0.42334,0 0.74084,-0.343959 0.74084,-0.740834 v -53.287085 z"
               id="path4066" />
            <path
               inkscape:connector-curvature="0"
               style="fill:#4cdbc4;stroke-width:0.26458332"
               d="m 157.99244,-148.45114 v -9.04875 c 0,-2.56646 -2.0902,-4.65667 -4.65666,-4.65667 H 71.314945 c -2.566459,0 -4.656667,2.09021 -4.656667,4.65667 v 9.04875 z"
               id="path4068" />
            <path
               inkscape:connector-curvature="0"
               style="fill:#ffffff;stroke-width:0.26458332"
               d="M 120.84494,-151.99656 H 76.050986 c -1.825625,0 -3.307291,-1.48167 -3.307291,-3.30729 v 0 c 0,-1.82563 1.481666,-3.30729 3.307291,-3.30729 h 44.793954 c 1.82563,0 3.3073,1.48166 3.3073,3.30729 v 0 c 0,1.82562 -1.48167,3.30729 -3.3073,3.30729 z"
               id="path4070" />
            <g
               id="g4076"
               transform="matrix(0.26458333,0,0,0.26458333,45.51807,-195.4676)">
              <circle
                 style="fill:#2c9984"
                 cx="389.29999"
                 cy="152"
                 r="12.8"
                 id="circle4072" />
              <circle
                 style="fill:#2c9984"
                 cx="352.5"
                 cy="152"
                 r="12.8"
                 id="circle4074" />
            </g>
            <g
               id="g4084"
               transform="matrix(0.26458333,0,0,0.26458333,45.51807,-195.4676)">
              <path
                 inkscape:connector-curvature="0"
                 style="fill:#324a5e"
                 d="m 116.3,156.4 h -2.5 l -3,-8.7 h 2.5 l 1.7,5.3 1.7,-5.3 h 2.4 l 1.7,5.3 1.7,-5.3 h 2.5 l -3,8.7 h -2.5 l -1.6,-4.8 z"
                 id="path4078" />
              <path
                 inkscape:connector-curvature="0"
                 style="fill:#324a5e"
                 d="m 131,156.4 h -2.5 l -3,-8.7 h 2.5 l 1.7,5.3 1.7,-5.3 h 2.4 l 1.7,5.3 1.7,-5.3 h 2.5 l -3,8.7 h -2.5 l -1.6,-4.8 z"
                 id="path4080" />
              <path
                 inkscape:connector-curvature="0"
                 style="fill:#324a5e"
                 d="m 145.6,156.4 h -2.5 l -3,-8.7 h 2.5 l 1.7,5.3 1.7,-5.3 h 2.4 l 1.7,5.3 1.7,-5.3 h 2.5 l -3,8.7 h -2.5 l -1.6,-4.8 z"
                 id="path4082" />
            </g>
            <g
               id="g4092"
               transform="matrix(0.26458333,0,0,0.26458333,45.51807,-195.4676)">
              <path
                 inkscape:connector-curvature="0"
                 style="fill:#acb3ba"
                 d="m 130.8,243.2 h -9.2 l -10.7,-31.7 h 9.2 l 6.2,19.2 6.2,-19.2 h 8.6 l 6.2,19.2 6.2,-19.2 h 9.2 l -10.8,31.8 h -9.2 L 136.9,226 Z"
                 id="path4086" />
              <path
                 inkscape:connector-curvature="0"
                 style="fill:#acb3ba"
                 d="m 184.1,243.2 h -9.2 l -10.8,-31.7 h 9.2 l 6.2,19.2 6.2,-19.2 h 8.6 l 6.2,19.2 6.2,-19.2 h 9.2 l -10.8,31.8 h -9.2 L 190.1,226 Z"
                 id="path4088" />
              <path
                 inkscape:connector-curvature="0"
                 style="fill:#acb3ba"
                 d="m 237.4,243.2 h -9.2 l -10.8,-31.7 h 9.2 l 6.2,19.2 6.2,-19.2 h 8.6 l 6.2,19.2 6.2,-19.2 h 9.2 l -10.8,31.8 h -9.2 L 243.4,226 Z"
                 id="path4090" />
            </g>
            <polygon
               style="fill:#ff7058"
               points="389.3,326.3 359.3,296.2 386.7,276.2 302.1,257.4 320.9,342 341,314.5 371,344.6 "
               id="polygon4094"
               transform="matrix(0.26458333,0,0,0.26458333,45.51807,-195.4676)" />
          </g>
          <g
             transform="matrix(0.46511628,0,0,0.46511628,20.313849,223.0041)"
             id="g4659">
            <g
               id="g4593">
              <path
                 inkscape:connector-curvature="0"
                 style="fill:#e9e9e0"
                 d="M 36.985,0 H 7.963 C 7.155,0 6.5,0.655 6.5,1.926 V 55 c 0,0.345 0.655,1 1.463,1 H 48.037 C 48.845,56 49.5,55.345 49.5,55 V 12.978 c 0,-0.696 -0.093,-0.92 -0.257,-1.085 L 37.607,0.257 C 37.442,0.093 37.218,0 36.985,0 Z"
                 id="path4571" />
              <polygon
                 style="fill:#d9d7ca"
                 points="37.5,0.151 37.5,12 49.349,12 "
                 id="polygon4573" />
              <path
                 inkscape:connector-curvature="0"
                 style="fill:#ec6630"
                 d="M 48.037,56 H 7.963 C 7.155,56 6.5,55.345 6.5,54.537 V 39 h 43 V 54.537 C 49.5,55.345 48.845,56 48.037,56 Z"
                 id="path4575" />
              <g
                 id="g4585">
                <path
                   inkscape:connector-curvature="0"
                   style="fill:#ffffff"
                   d="M 17.455,42.924 V 53 H 15.814 V 48.461 H 11.453 V 53 H 9.785 V 42.924 h 1.668 v 4.416 h 4.361 v -4.416 z"
                   id="path4577" />
                <path
                   inkscape:connector-curvature="0"
                   style="fill:#ffffff"
                   d="m 27.107,42.924 v 1.121 H 24.1 V 53 h -1.654 v -8.955 h -3.008 v -1.121 z"
                   id="path4579" />
                <path
                   inkscape:connector-curvature="0"
                   style="fill:#ffffff"
                   d="m 36.705,42.924 h 1.668 V 53 h -1.668 v -6.932 l -2.256,5.605 H 33 L 30.73,46.068 V 53 H 29.062 V 42.924 h 1.668 l 2.994,6.891 z"
                   id="path4581" />
                <path
                   inkscape:connector-curvature="0"
                   style="fill:#ffffff"
                   d="m 42.57,42.924 v 8.832 h 4.635 V 53 H 40.902 V 42.924 Z"
                   id="path4583" />
              </g>
              <g
                 id="g4591">
                <path
                   inkscape:connector-curvature="0"
                   style="fill:#ec6630"
                   d="m 23.207,16.293 c -0.391,-0.391 -1.023,-0.391 -1.414,0 l -6,6 c -0.391,0.391 -0.391,1.023 0,1.414 l 6,6 C 21.988,29.902 22.244,30 22.5,30 c 0.256,0 0.512,-0.098 0.707,-0.293 0.391,-0.391 0.391,-1.023 0,-1.414 L 17.914,23 23.207,17.707 c 0.391,-0.391 0.391,-1.023 0,-1.414 z"
                   id="path4587" />
                <path
                   inkscape:connector-curvature="0"
                   style="fill:#ec6630"
                   d="m 41.207,22.293 -6,-6 c -0.391,-0.391 -1.023,-0.391 -1.414,0 -0.391,0.391 -0.391,1.023 0,1.414 L 39.086,23 33.793,28.293 c -0.391,0.391 -0.391,1.023 0,1.414 0.195,0.195 0.451,0.293 0.707,0.293 0.256,0 0.512,-0.098 0.707,-0.293 l 6,-6 c 0.391,-0.391 0.391,-1.023 0,-1.414 z"
                   id="path4589" />
              </g>
            </g>
            <g
               id="g4595" />
            <g
               id="g4597" />
            <g
               id="g4599" />
            <g
               id="g4601" />
            <g
               id="g4603" />
            <g
               id="g4605" />
            <g
               id="g4607" />
            <g
               id="g4609" />
            <g
               id="g4611" />
            <g
               id="g4613" />
            <g
               id="g4615" />
            <g
               id="g4617" />
            <g
               id="g4619" />
            <g
               id="g4621" />
            <g
               id="g4623" />
          </g>
        </g>
      </g>
      <g
         transform="matrix(0.58139535,0,0,0.58139535,136.25607,231.69565)"
         id="g4929">
        <g
           id="g4866">
          <path
             inkscape:connector-curvature="0"
             style="fill:#e9e9e0"
             d="M 36.985,0 H 7.963 C 7.155,0 6.5,0.655 6.5,1.926 V 55 c 0,0.345 0.655,1 1.463,1 H 48.037 C 48.845,56 49.5,55.345 49.5,55 V 12.978 c 0,-0.696 -0.093,-0.92 -0.257,-1.085 L 37.607,0.257 C 37.442,0.093 37.218,0 36.985,0 Z"
             id="path4850" />
          <polygon
             style="fill:#d9d7ca"
             points="49.349,12 37.5,0.151 37.5,12 "
             id="polygon4852" />
          <path
             inkscape:connector-curvature="0"
             style="fill:#cc4b4c"
             d="m 19.514,33.324 v 0 c -0.348,0 -0.682,-0.113 -0.967,-0.326 -1.041,-0.781 -1.181,-1.65 -1.115,-2.242 0.182,-1.628 2.195,-3.332 5.985,-5.068 1.504,-3.296 2.935,-7.357 3.788,-10.75 -0.998,-2.172 -1.968,-4.99 -1.261,-6.643 0.248,-0.579 0.557,-1.023 1.134,-1.215 0.228,-0.076 0.804,-0.172 1.016,-0.172 0.504,0 0.947,0.649 1.261,1.049 0.295,0.376 0.964,1.173 -0.373,6.802 1.348,2.784 3.258,5.62 5.088,7.562 1.311,-0.237 2.439,-0.358 3.358,-0.358 1.566,0 2.515,0.365 2.902,1.117 0.32,0.622 0.189,1.349 -0.39,2.16 -0.557,0.779 -1.325,1.191 -2.22,1.191 -1.216,0 -2.632,-0.768 -4.211,-2.285 -2.837,0.593 -6.15,1.651 -8.828,2.822 -0.836,1.774 -1.637,3.203 -2.383,4.251 -1.025,1.435 -1.909,2.105 -2.784,2.105 z m 2.662,-5.126 c -2.137,1.201 -3.008,2.188 -3.071,2.744 -0.01,0.092 -0.037,0.334 0.431,0.692 0.149,-0.047 1.019,-0.444 2.64,-3.436 z m 13.637,-4.442 c 0.815,0.627 1.014,0.944 1.547,0.944 0.234,0 0.901,-0.01 1.21,-0.441 0.149,-0.209 0.207,-0.343 0.23,-0.415 -0.123,-0.065 -0.286,-0.197 -1.175,-0.197 -0.505,0.001 -1.14,0.023 -1.812,0.109 z m -7.47,-6.582 c -0.715,2.474 -1.659,5.145 -2.674,7.564 2.09,-0.811 4.362,-1.519 6.496,-2.02 -1.35,-1.568 -2.699,-3.526 -3.822,-5.544 z M 27.736,8.712 c -0.098,0.033 -1.33,1.757 0.096,3.216 0.949,-2.115 -0.053,-3.23 -0.096,-3.216 z"
             id="path4854" />
          <path
             inkscape:connector-curvature="0"
             style="fill:#cc4b4c"
             d="M 48.037,56 H 7.963 C 7.155,56 6.5,55.345 6.5,54.537 V 39 h 43 V 54.537 C 49.5,55.345 48.845,56 48.037,56 Z"
             id="path4856" />
          <g
             id="g4864">
            <path
               inkscape:connector-curvature="0"
               style="fill:#ffffff"
               d="M 17.385,53 H 15.744 V 42.924 h 2.898 c 0.428,0 0.852,0.068 1.271,0.205 0.419,0.137 0.795,0.342 1.128,0.615 0.333,0.273 0.602,0.604 0.807,0.991 0.205,0.387 0.308,0.822 0.308,1.306 0,0.511 -0.087,0.973 -0.26,1.388 -0.173,0.415 -0.415,0.764 -0.725,1.046 -0.31,0.282 -0.684,0.501 -1.121,0.656 -0.437,0.155 -0.921,0.232 -1.449,0.232 H 17.384 V 53 Z m 0,-8.832 v 3.992 h 1.504 c 0.2,0 0.398,-0.034 0.595,-0.103 0.196,-0.068 0.376,-0.18 0.54,-0.335 0.164,-0.155 0.296,-0.371 0.396,-0.649 0.1,-0.278 0.15,-0.622 0.15,-1.032 0,-0.164 -0.023,-0.354 -0.068,-0.567 -0.046,-0.214 -0.139,-0.419 -0.28,-0.615 -0.142,-0.196 -0.34,-0.36 -0.595,-0.492 -0.255,-0.132 -0.593,-0.198 -1.012,-0.198 h -1.23 z"
               id="path4858" />
            <path
               inkscape:connector-curvature="0"
               style="fill:#ffffff"
               d="m 32.219,47.682 c 0,0.829 -0.089,1.538 -0.267,2.126 -0.178,0.588 -0.403,1.08 -0.677,1.477 -0.274,0.397 -0.581,0.709 -0.923,0.937 -0.342,0.228 -0.672,0.398 -0.991,0.513 -0.319,0.114 -0.611,0.187 -0.875,0.219 C 28.222,52.984 28.026,53 27.898,53 H 24.084 V 42.924 h 3.035 c 0.848,0 1.593,0.135 2.235,0.403 0.642,0.268 1.176,0.627 1.6,1.073 0.424,0.446 0.74,0.955 0.95,1.524 0.21,0.57 0.315,1.156 0.315,1.758 z m -4.867,4.115 c 1.112,0 1.914,-0.355 2.406,-1.066 0.492,-0.711 0.738,-1.741 0.738,-3.09 0,-0.419 -0.05,-0.834 -0.15,-1.244 -0.101,-0.41 -0.294,-0.781 -0.581,-1.114 -0.287,-0.333 -0.677,-0.602 -1.169,-0.807 -0.492,-0.205 -1.13,-0.308 -1.914,-0.308 h -0.957 v 7.629 z"
               id="path4860" />
            <path
               inkscape:connector-curvature="0"
               style="fill:#ffffff"
               d="m 36.266,44.168 v 3.172 h 4.211 v 1.121 H 36.266 V 53 H 34.598 V 42.924 H 40.9 v 1.244 z"
               id="path4862" />
          </g>
        </g>
        <g
           id="g4868" />
        <g
           id="g4870" />
        <g
           id="g4872" />
        <g
           id="g4874" />
        <g
           id="g4876" />
        <g
           id="g4878" />
        <g
           id="g4880" />
        <g
           id="g4882" />
        <g
           id="g4884" />
        <g
           id="g4886" />
        <g
           id="g4888" />
        <g
           id="g4890" />
        <g
           id="g4892" />
        <g
           id="g4894" />
        <g
           id="g4896" />
      </g>
      <g
         transform="translate(-5.858631,9.0714286)"
         id="g2410">
        <g
           id="g4062"
           transform="matrix(0.58139535,0,0,0.58139535,148.66166,110.07006)">
          <g
             id="g3988">
            <path
               id="path3950"
               d="M 36.985,0 H 7.963 C 7.155,0 6.5,0.655 6.5,1.926 V 55 c 0,0.345 0.655,1 1.463,1 H 48.037 C 48.845,56 49.5,55.345 49.5,55 V 12.978 c 0,-0.696 -0.093,-0.92 -0.257,-1.085 L 37.607,0.257 C 37.442,0.093 37.218,0 36.985,0 Z"
               style="fill:#e9e9e0"
               inkscape:connector-curvature="0" />
            <polygon
               id="polygon3952"
               points="49.349,12 37.5,0.151 37.5,12 "
               style="fill:#d9d7ca" />
            <path
               id="path3954"
               d="M 48.037,56 H 7.963 C 7.155,56 6.5,55.345 6.5,54.537 V 39 h 43 V 54.537 C 49.5,55.345 48.845,56 48.037,56 Z"
               style="fill:#95a5a5"
               inkscape:connector-curvature="0" />
            <g
               id="g3962">
              <path
                 id="path3956"
                 d="m 21.867,42.924 v 1.121 H 18.859 V 53 h -1.654 v -8.955 h -3.008 v -1.121 z"
                 style="fill:#ffffff"
                 inkscape:connector-curvature="0" />
              <path
                 id="path3958"
                 d="M 28.443,48.105 31,53 H 29.1 L 27.5,49.199 H 27.363 L 25.641,53 h -1.9 l 2.557,-4.895 -2.721,-5.182 h 1.873 l 1.777,4.102 h 0.137 l 1.928,-4.102 h 1.873 z"
                 style="fill:#ffffff"
                 inkscape:connector-curvature="0" />
              <path
                 id="path3960"
                 d="m 40.529,42.924 v 1.121 H 37.521 V 53 h -1.654 v -8.955 h -3.008 v -1.121 z"
                 style="fill:#ffffff"
                 inkscape:connector-curvature="0" />
            </g>
            <path
               id="path3964"
               d="m 18.5,13 h -6 c -0.553,0 -1,-0.448 -1,-1 0,-0.552 0.447,-1 1,-1 h 6 c 0.553,0 1,0.448 1,1 0,0.552 -0.447,1 -1,1 z"
               style="fill:#c8bdb8"
               inkscape:connector-curvature="0" />
            <path
               id="path3966"
               d="m 21.5,18 h -9 c -0.553,0 -1,-0.448 -1,-1 0,-0.552 0.447,-1 1,-1 h 9 c 0.553,0 1,0.448 1,1 0,0.552 -0.447,1 -1,1 z"
               style="fill:#c8bdb8"
               inkscape:connector-curvature="0" />
            <path
               id="path3968"
               d="M 25.5,18 C 25.24,18 24.979,17.89 24.79,17.71 24.609,17.52 24.5,17.27 24.5,17 c 0,-0.27 0.109,-0.52 0.3,-0.71 0.36,-0.37 1.04,-0.37 1.41,0 0.18,0.19 0.29,0.45 0.29,0.71 0,0.26 -0.11,0.52 -0.29,0.71 C 26.02,17.89 25.76,18 25.5,18 Z"
               style="fill:#c8bdb8"
               inkscape:connector-curvature="0" />
            <path
               id="path3970"
               d="m 37.5,18 h -8 c -0.553,0 -1,-0.448 -1,-1 0,-0.552 0.447,-1 1,-1 h 8 c 0.553,0 1,0.448 1,1 0,0.552 -0.447,1 -1,1 z"
               style="fill:#c8bdb8"
               inkscape:connector-curvature="0" />
            <path
               id="path3972"
               d="M 12.5,33 C 12.24,33 11.979,32.89 11.79,32.71 11.609,32.52 11.5,32.26 11.5,32 c 0,-0.26 0.109,-0.52 0.29,-0.71 0.37,-0.37 1.05,-0.37 1.42,0.01 0.18,0.18 0.29,0.44 0.29,0.7 0,0.26 -0.11,0.52 -0.29,0.71 C 13.02,32.89 12.76,33 12.5,33 Z"
               style="fill:#c8bdb8"
               inkscape:connector-curvature="0" />
            <path
               id="path3974"
               d="m 24.5,33 h -8 c -0.553,0 -1,-0.448 -1,-1 0,-0.552 0.447,-1 1,-1 h 8 c 0.553,0 1,0.448 1,1 0,0.552 -0.447,1 -1,1 z"
               style="fill:#c8bdb8"
               inkscape:connector-curvature="0" />
            <path
               id="path3976"
               d="m 43.5,18 h -2 c -0.553,0 -1,-0.448 -1,-1 0,-0.552 0.447,-1 1,-1 h 2 c 0.553,0 1,0.448 1,1 0,0.552 -0.447,1 -1,1 z"
               style="fill:#c8bdb8"
               inkscape:connector-curvature="0" />
            <path
               id="path3978"
               d="m 34.5,23 h -22 c -0.553,0 -1,-0.448 -1,-1 0,-0.552 0.447,-1 1,-1 h 22 c 0.553,0 1,0.448 1,1 0,0.552 -0.447,1 -1,1 z"
               style="fill:#c8bdb8"
               inkscape:connector-curvature="0" />
            <path
               id="path3980"
               d="m 43.5,23 h -6 c -0.553,0 -1,-0.448 -1,-1 0,-0.552 0.447,-1 1,-1 h 6 c 0.553,0 1,0.448 1,1 0,0.552 -0.447,1 -1,1 z"
               style="fill:#c8bdb8"
               inkscape:connector-curvature="0" />
            <path
               id="path3982"
               d="m 16.5,28 h -4 c -0.553,0 -1,-0.448 -1,-1 0,-0.552 0.447,-1 1,-1 h 4 c 0.553,0 1,0.448 1,1 0,0.552 -0.447,1 -1,1 z"
               style="fill:#c8bdb8"
               inkscape:connector-curvature="0" />
            <path
               id="path3984"
               d="m 30.5,28 h -10 c -0.553,0 -1,-0.448 -1,-1 0,-0.552 0.447,-1 1,-1 h 10 c 0.553,0 1,0.448 1,1 0,0.552 -0.447,1 -1,1 z"
               style="fill:#c8bdb8"
               inkscape:connector-curvature="0" />
            <path
               id="path3986"
               d="m 43.5,28 h -9 c -0.553,0 -1,-0.448 -1,-1 0,-0.552 0.447,-1 1,-1 h 9 c 0.553,0 1,0.448 1,1 0,0.552 -0.447,1 -1,1 z"
               style="fill:#c8bdb8"
               inkscape:connector-curvature="0" />
          </g>
          <g
             id="g3990" />
          <g
             id="g3992" />
          <g
             id="g3994" />
          <g
             id="g3996" />
          <g
             id="g3998" />
          <g
             id="g4000" />
          <g
             id="g4002" />
          <g
             id="g4004" />
          <g
             id="g4006" />
          <g
             id="g4008" />
          <g
             id="g4010" />
          <g
             id="g4012" />
          <g
             id="g4014" />
          <g
             id="g4016" />
          <g
             id="g4018" />
        </g>
        <g
           id="g5010"
           transform="matrix(0.58139535,0,0,0.58139535,139.94073,100.76773)">
          <g
             id="g4947">
            <path
               id="path4931"
               d="M 36.985,0 H 7.963 C 7.155,0 6.5,0.655 6.5,1.926 V 55 c 0,0.345 0.655,1 1.463,1 H 48.037 C 48.845,56 49.5,55.345 49.5,55 V 12.978 c 0,-0.696 -0.093,-0.92 -0.257,-1.085 L 37.607,0.257 C 37.442,0.093 37.218,0 36.985,0 Z"
               style="fill:#e9e9e0"
               inkscape:connector-curvature="0" />
            <polygon
               id="polygon4933"
               points="49.349,12 37.5,0.151 37.5,12 "
               style="fill:#d9d7ca" />
            <path
               id="path4935"
               d="M 48.037,56 H 7.963 C 7.155,56 6.5,55.345 6.5,54.537 V 39 h 43 V 54.537 C 49.5,55.345 48.845,56 48.037,56 Z"
               style="fill:#f36fa0"
               inkscape:connector-curvature="0" />
            <g
               id="g4943">
              <path
                 id="path4937"
                 d="m 21.58,51.975 c -0.374,0.364 -0.798,0.638 -1.271,0.82 -0.474,0.183 -0.984,0.273 -1.531,0.273 -0.602,0 -1.155,-0.109 -1.661,-0.328 -0.506,-0.219 -0.948,-0.542 -1.326,-0.971 -0.378,-0.429 -0.675,-0.966 -0.889,-1.613 -0.214,-0.647 -0.321,-1.395 -0.321,-2.242 0,-0.847 0.107,-1.593 0.321,-2.235 0.214,-0.643 0.51,-1.178 0.889,-1.606 0.378,-0.429 0.822,-0.754 1.333,-0.978 0.51,-0.224 1.062,-0.335 1.654,-0.335 0.547,0 1.057,0.091 1.531,0.273 0.474,0.183 0.897,0.456 1.271,0.82 l -1.135,1.012 c -0.228,-0.265 -0.481,-0.456 -0.759,-0.574 -0.278,-0.118 -0.567,-0.178 -0.868,-0.178 -0.337,0 -0.659,0.063 -0.964,0.191 -0.306,0.128 -0.579,0.344 -0.82,0.649 -0.242,0.306 -0.431,0.699 -0.567,1.183 -0.136,0.484 -0.21,1.075 -0.219,1.777 0.009,0.684 0.08,1.267 0.212,1.75 0.132,0.483 0.314,0.877 0.547,1.183 0.233,0.306 0.497,0.528 0.793,0.67 0.296,0.142 0.608,0.212 0.937,0.212 0.329,0 0.636,-0.06 0.923,-0.178 0.287,-0.118 0.549,-0.31 0.786,-0.574 z"
                 style="fill:#ffffff"
                 inkscape:connector-curvature="0" />
              <path
                 id="path4939"
                 d="m 29.633,50.238 c 0,0.364 -0.075,0.718 -0.226,1.06 -0.151,0.342 -0.362,0.643 -0.636,0.902 -0.274,0.259 -0.611,0.467 -1.012,0.622 -0.401,0.155 -0.857,0.232 -1.367,0.232 -0.219,0 -0.444,-0.012 -0.677,-0.034 -0.233,-0.022 -0.467,-0.062 -0.704,-0.116 -0.237,-0.055 -0.463,-0.13 -0.677,-0.226 -0.214,-0.096 -0.399,-0.212 -0.554,-0.349 l 0.287,-1.176 c 0.127,0.073 0.289,0.144 0.485,0.212 0.196,0.068 0.398,0.132 0.608,0.191 0.209,0.06 0.419,0.107 0.629,0.144 0.209,0.036 0.405,0.055 0.588,0.055 0.556,0 0.982,-0.13 1.278,-0.39 0.296,-0.26 0.444,-0.645 0.444,-1.155 0,-0.31 -0.105,-0.574 -0.314,-0.793 C 27.575,49.198 27.313,49 26.999,48.822 26.685,48.644 26.345,48.467 25.98,48.289 25.615,48.111 25.273,47.901 24.955,47.66 c -0.319,-0.241 -0.583,-0.526 -0.793,-0.854 -0.21,-0.328 -0.314,-0.738 -0.314,-1.23 0,-0.446 0.082,-0.843 0.246,-1.189 0.164,-0.346 0.385,-0.641 0.663,-0.882 0.278,-0.241 0.602,-0.426 0.971,-0.554 0.369,-0.128 0.759,-0.191 1.169,-0.191 0.419,0 0.843,0.039 1.271,0.116 0.428,0.077 0.774,0.203 1.039,0.376 -0.055,0.118 -0.119,0.248 -0.191,0.39 -0.073,0.142 -0.142,0.273 -0.205,0.396 -0.064,0.123 -0.119,0.226 -0.164,0.308 -0.046,0.082 -0.073,0.128 -0.082,0.137 C 28.51,44.456 28.449,44.42 28.38,44.374 28.311,44.328 28.213,44.283 28.086,44.237 27.958,44.191 27.79,44.16 27.58,44.141 c -0.21,-0.019 -0.479,-0.014 -0.807,0.014 -0.183,0.019 -0.355,0.07 -0.52,0.157 -0.165,0.087 -0.31,0.193 -0.438,0.321 -0.128,0.128 -0.228,0.271 -0.301,0.431 -0.073,0.159 -0.109,0.313 -0.109,0.458 0,0.364 0.104,0.658 0.314,0.882 0.209,0.224 0.469,0.419 0.779,0.588 0.31,0.169 0.647,0.333 1.012,0.492 0.364,0.159 0.704,0.354 1.019,0.581 0.315,0.227 0.576,0.513 0.786,0.854 0.213,0.342 0.318,0.781 0.318,1.319 z"
                 style="fill:#ffffff"
                 inkscape:connector-curvature="0" />
              <path
                 id="path4941"
                 d="M 34.035,53.055 30.904,42.924 h 1.873 l 2.338,8.695 2.475,-8.695 h 1.859 l -3.281,10.131 z"
                 style="fill:#ffffff"
                 inkscape:connector-curvature="0" />
            </g>
            <path
               id="path4945"
               d="m 23.5,16 v -4 h -12 v 4 2 2 2 2 2 2 2 4 h 10 2 21 v -4 -2 -2 -2 -2 -2 -4 z m -10,-2 h 8 v 2 h -8 z m 0,4 h 8 v 2 h -8 z m 0,4 h 8 v 2 h -8 z m 0,4 h 8 v 2 h -8 z m 8,6 h -8 v -2 h 8 z m 21,0 h -19 v -2 h 19 z m 0,-4 h -19 v -2 h 19 z m 0,-4 h -19 v -2 h 19 z m -19,-4 v -2 h 19 v 2 z"
               style="fill:#c8bdb8"
               inkscape:connector-curvature="0" />
          </g>
          <g
             id="g4949" />
          <g
             id="g4951" />
          <g
             id="g4953" />
          <g
             id="g4955" />
          <g
             id="g4957" />
          <g
             id="g4959" />
          <g
             id="g4961" />
          <g
             id="g4963" />
          <g
             id="g4965" />
          <g
             id="g4967" />
          <g
             id="g4969" />
          <g
             id="g4971" />
          <g
             id="g4973" />
          <g
             id="g4975" />
          <g
             id="g4977" />
        </g>
      </g>
      <g
         transform="matrix(0.07631502,0,0,0.07631502,120.87173,169.10938)"
         id="g5091">
        <path
           style="fill:url(#gradientFill-1);fill-rule:evenodd"
           inkscape:connector-curvature="0"
           d="M 361.453,485.937 C 162.329,485.937 0.906,377.828 0.906,244.469 0.906,111.109 162.329,3 361.453,3 560.578,3 722,111.109 722,244.469 722,377.828 560.578,485.937 361.453,485.937 Z M 416.641,97.406 c -151.352,0 -274.047,73.908 -274.047,165.078 0,91.17 122.695,165.078 274.047,165.078 151.351,0 263.046,-50.529 263.046,-165.078 0,-114.513 -111.695,-165.078 -263.046,-165.078 z"
           id="path5073" />
        <path
           style="fill:url(#gradientFill-2);fill-rule:evenodd"
           inkscape:connector-curvature="0"
           d="m 550,377 c 0,0 21.822,6.585 34.5,13 4.399,2.226 12.01,6.668 17.5,12.5 5.378,5.712 8,11.5 8,11.5 L 696,559 557,559.062 492,437 c 0,0 -13.31,-22.869 -21.5,-29.5 -6.832,-5.531 -9.745,-7.5 -16.5,-7.5 -4.702,0 -33.026,0 -33.026,0 L 421,558.974 298,559.026 V 152.938 h 247 c 0,0 112.5,2.029 112.5,109.062 0,107.033 -107.5,115 -107.5,115 z m -53.5,-135.976 -74.463,-0.048 -0.037,69.05 74.5,-0.024 c 0,0 34.5,-0.107 34.5,-35.125 0,-35.722 -34.5,-33.853 -34.5,-33.853 z"
           id="path5075" />
      </g>
      <g
         transform="matrix(1.5871067,0,0,1.5871067,-340.69784,-81.134189)"
         id="g2347">
        <rect
           style="fill:#e9e9e0;fill-opacity:1;stroke:#e9e9e0;stroke-width:2.89307451;stroke-linecap:round;stroke-linejoin:round;stroke-miterlimit:4;stroke-dasharray:none;stroke-dashoffset:0;stroke-opacity:1"
           id="rect2274"
           width="12.858859"
           height="18.523458"
           x="241.82257"
           y="150.0791"
           ry="3.8151272e-014" />
        <g
           id="g5163"
           transform="matrix(0.0393466,0,0,0.0393466,237.40386,148.54046)"
           style="fill:#324a5e;fill-opacity:1">
          <g
             id="g5103"
             style="fill:#324a5e;fill-opacity:1">
            <g
               id="g5101"
               style="fill:#324a5e;fill-opacity:1">
              <path
                 id="path5093"
                 d="m 283.215,416.317 c -5.948,0 -9.798,0.517 -12.076,1.044 v 77.172 c 2.278,0.527 5.959,0.527 9.281,0.527 24.152,0.179 39.899,-13.121 39.899,-41.297 0.179,-24.494 -14.174,-37.446 -37.104,-37.446 z"
                 inkscape:connector-curvature="0"
                 style="fill:#324a5e;fill-opacity:1" />
              <path
                 id="path5095"
                 d="m 170.153,415.959 c -18.025,0 -28.516,17.148 -28.516,40.078 0,23.098 10.848,39.371 28.695,39.371 18.024,0 28.35,-17.149 28.35,-40.067 0,-21.179 -10.151,-39.382 -28.529,-39.382 z"
                 inkscape:connector-curvature="0"
                 style="fill:#324a5e;fill-opacity:1" />
              <path
                 id="path5097"
                 d="m 475.084,131.992 c -0.021,-2.531 -0.828,-5.021 -2.562,-6.993 L 366.324,3.694 C 366.293,3.663 366.262,3.649 366.24,3.618 365.607,2.911 364.869,2.323 364.089,1.814 363.857,1.659 363.625,1.529 363.382,1.392 362.707,1.026 361.99,0.717 361.252,0.496 361.051,0.443 360.872,0.361 360.672,0.308 359.87,0.119 359.037,0 358.193,0 H 97.2 C 85.282,0 75.6,9.693 75.6,21.601 v 507.6 c 0,11.907 9.682,21.601 21.6,21.601 h 356.4 c 11.908,0 21.601,-9.693 21.601,-21.601 V 133.197 c -0.001,-0.401 -0.064,-0.799 -0.117,-1.205 z M 168.929,516.586 c -34.992,0 -55.468,-26.43 -55.468,-60.021 0,-35.354 22.575,-61.773 57.401,-61.773 36.218,0 55.99,27.127 55.99,59.669 0.001,38.669 -23.445,62.125 -57.923,62.125 z M 329.062,500.66 c -12.424,10.326 -31.313,15.22 -54.419,15.22 -13.825,0 -23.62,-0.876 -30.267,-1.751 V 398.293 c 9.795,-1.572 22.573,-2.458 36.054,-2.458 22.392,0 36.925,4.019 48.289,12.593 12.25,9.118 19.949,23.625 19.949,44.466 10e-4,22.57 -8.226,38.137 -19.606,47.766 z m 65.993,15.758 c -13.474,0 -26.779,-3.513 -33.424,-7.183 l 5.422,-22.054 c 7.177,3.681 18.203,7.352 29.578,7.352 12.261,0 18.727,-5.073 18.727,-12.772 0,-7.352 -5.601,-11.549 -19.775,-16.622 -19.597,-6.824 -32.374,-17.671 -32.374,-34.826 0,-20.123 16.801,-35.521 44.629,-35.521 13.3,0 23.093,2.8 30.101,5.954 l -5.953,21.516 c -4.726,-2.273 -13.126,-5.59 -24.68,-5.59 -11.549,0 -17.149,5.252 -17.149,11.374 0,7.525 6.649,10.843 21.88,16.611 20.824,7.699 30.628,18.558 30.628,35.185 -0.013,19.763 -15.242,36.576 -47.61,36.576 z M 453.6,366.747 H 97.2 V 21.601 h 250.192 v 110.51 c 0,5.97 4.842,10.8 10.801,10.8 H 453.6 Z"
                 inkscape:connector-curvature="0"
                 style="fill:#324a5e;fill-opacity:1" />
              <path
                 id="path5099"
                 d="M 149.705,154.744 V 325.751 H 401.098 V 154.744 Z m 236.047,155.619 h -84.955 v -17.539 h 84.955 z m -89.343,0 H 255.31 v -17.539 h 41.099 z m -45.488,0 h -38.367 v -17.539 h 38.367 z m -42.752,0 h -43.118 v -17.539 h 43.118 z m 92.628,-107.981 h 84.955 v 19.73 h -84.955 z m 0,24.123 h 84.955 v 17.906 h -84.955 z m 0,22.296 h 84.955 v 19.721 h -84.955 z m 84.955,24.11 v 15.525 H 300.797 V 272.911 Z M 255.306,172.283 h 41.104 v 25.724 h -41.104 z m 0,30.099 h 41.104 v 19.73 h -41.104 z m 0,24.123 h 41.104 v 17.906 h -41.104 z m 0,22.296 h 41.104 v 19.721 h -41.104 z m 41.103,24.11 v 15.525 H 255.31 v -15.525 z m -83.86,-70.529 h 38.367 v 19.73 h -38.367 z m 0,24.123 h 38.367 v 17.906 h -38.367 z m 0,22.296 h 38.367 v 19.721 h -38.367 z m 38.372,24.11 v 15.525 H 212.554 V 272.911 Z M 165.045,172.283 h 43.118 v 25.724 h -43.118 z m 0,30.099 h 43.118 v 19.73 h -43.118 z m 0,24.123 h 43.118 v 17.906 h -43.118 z m 0,22.296 h 43.118 v 19.721 h -43.118 z m 43.124,24.11 v 15.525 h -43.118 v -15.525 z"
                 inkscape:connector-curvature="0"
                 style="fill:#324a5e;fill-opacity:1" />
            </g>
          </g>
          <g
             id="g5105"
             style="fill:#324a5e;fill-opacity:1" />
          <g
             id="g5107"
             style="fill:#324a5e;fill-opacity:1" />
          <g
             id="g5109"
             style="fill:#324a5e;fill-opacity:1" />
          <g
             id="g5111"
             style="fill:#324a5e;fill-opacity:1" />
          <g
             id="g5113"
             style="fill:#324a5e;fill-opacity:1" />
          <g
             id="g5115"
             style="fill:#324a5e;fill-opacity:1" />
          <g
             id="g5117"
             style="fill:#324a5e;fill-opacity:1" />
          <g
             id="g5119"
             style="fill:#324a5e;fill-opacity:1" />
          <g
             id="g5121"
             style="fill:#324a5e;fill-opacity:1" />
          <g
             id="g5123"
             style="fill:#324a5e;fill-opacity:1" />
          <g
             id="g5125"
             style="fill:#324a5e;fill-opacity:1" />
          <g
             id="g5127"
             style="fill:#324a5e;fill-opacity:1" />
          <g
             id="g5129"
             style="fill:#324a5e;fill-opacity:1" />
          <g
             id="g5131"
             style="fill:#324a5e;fill-opacity:1" />
          <g
             id="g5133"
             style="fill:#324a5e;fill-opacity:1" />
        </g>
      </g>
      <g
         transform="matrix(0.58139535,0,0,0.58139535,80.080714,126.62593)"
         id="g4740">
        <g
           id="g4677">
          <path
             inkscape:connector-curvature="0"
             style="fill:#e9e9e0"
             d="M 36.985,0 H 7.963 C 7.155,0 6.5,0.655 6.5,1.926 V 55 c 0,0.345 0.655,1 1.463,1 H 48.037 C 48.845,56 49.5,55.345 49.5,55 V 12.978 c 0,-0.696 -0.093,-0.92 -0.257,-1.085 L 37.607,0.257 C 37.442,0.093 37.218,0 36.985,0 Z"
             id="path4661" />
          <polygon
             style="fill:#d9d7ca"
             points="37.5,0.151 37.5,12 49.349,12 "
             id="polygon4663" />
          <path
             inkscape:connector-curvature="0"
             style="fill:#91cda0"
             d="M 48.037,56 H 7.963 C 7.155,56 6.5,55.345 6.5,54.537 V 39 h 43 V 54.537 C 49.5,55.345 48.845,56 48.037,56 Z"
             id="path4665" />
          <g
             id="g4673">
            <path
               inkscape:connector-curvature="0"
               style="fill:#ffffff"
               d="M 20.379,48.105 22.936,53 h -1.9 l -1.6,-3.801 H 19.299 L 17.576,53 h -1.9 l 2.557,-4.895 -2.721,-5.182 h 1.873 l 1.777,4.102 h 0.137 l 1.928,-4.102 H 23.1 Z"
               id="path4667" />
            <path
               inkscape:connector-curvature="0"
               style="fill:#ffffff"
               d="m 27.037,42.924 v 8.832 h 4.635 V 53 H 25.369 V 42.924 Z"
               id="path4669" />
            <path
               inkscape:connector-curvature="0"
               style="fill:#ffffff"
               d="m 39.041,50.238 c 0,0.364 -0.075,0.718 -0.226,1.06 -0.151,0.342 -0.362,0.642 -0.635,0.902 -0.273,0.26 -0.611,0.467 -1.012,0.622 -0.401,0.155 -0.857,0.232 -1.367,0.232 -0.219,0 -0.444,-0.012 -0.677,-0.034 -0.233,-0.022 -0.467,-0.062 -0.704,-0.116 -0.237,-0.055 -0.463,-0.13 -0.677,-0.226 -0.214,-0.096 -0.399,-0.212 -0.554,-0.349 l 0.287,-1.176 c 0.127,0.073 0.289,0.144 0.485,0.212 0.196,0.068 0.398,0.132 0.608,0.191 0.209,0.06 0.419,0.107 0.629,0.144 0.209,0.036 0.405,0.055 0.588,0.055 0.556,0 0.982,-0.13 1.278,-0.39 0.296,-0.26 0.444,-0.645 0.444,-1.155 0,-0.31 -0.105,-0.574 -0.314,-0.793 -0.21,-0.219 -0.472,-0.417 -0.786,-0.595 -0.314,-0.178 -0.654,-0.355 -1.019,-0.533 -0.365,-0.178 -0.707,-0.388 -1.025,-0.629 -0.319,-0.241 -0.583,-0.526 -0.793,-0.854 -0.21,-0.328 -0.314,-0.738 -0.314,-1.23 0,-0.446 0.082,-0.843 0.246,-1.189 0.164,-0.346 0.385,-0.641 0.663,-0.882 0.278,-0.241 0.602,-0.426 0.971,-0.554 0.369,-0.128 0.759,-0.191 1.169,-0.191 0.419,0 0.843,0.039 1.271,0.116 0.428,0.077 0.774,0.203 1.039,0.376 -0.055,0.118 -0.119,0.248 -0.191,0.39 -0.073,0.142 -0.142,0.273 -0.205,0.396 -0.064,0.123 -0.119,0.226 -0.164,0.308 -0.046,0.082 -0.073,0.128 -0.082,0.137 -0.055,-0.027 -0.116,-0.063 -0.185,-0.109 -0.069,-0.046 -0.167,-0.091 -0.294,-0.137 -0.128,-0.046 -0.296,-0.077 -0.506,-0.096 -0.21,-0.019 -0.479,-0.014 -0.807,0.014 -0.183,0.019 -0.355,0.07 -0.52,0.157 -0.165,0.087 -0.31,0.193 -0.438,0.321 -0.128,0.128 -0.228,0.271 -0.301,0.431 -0.073,0.159 -0.109,0.313 -0.109,0.458 0,0.364 0.104,0.658 0.314,0.882 0.209,0.224 0.469,0.419 0.779,0.588 0.31,0.169 0.647,0.333 1.012,0.492 0.364,0.159 0.704,0.354 1.019,0.581 0.315,0.227 0.576,0.513 0.786,0.854 0.212,0.342 0.317,0.781 0.317,1.319 z"
               id="path4671" />
          </g>
          <path
             inkscape:connector-curvature="0"
             style="fill:#c8bdb8"
             d="m 23.5,16 v -4 h -12 v 4 2 2 2 2 2 2 2 4 h 10 2 21 v -4 -2 -2 -2 -2 -2 -4 z m -10,-2 h 8 v 2 h -8 z m 0,4 h 8 v 2 h -8 z m 0,4 h 8 v 2 h -8 z m 0,4 h 8 v 2 h -8 z m 8,6 h -8 v -2 h 8 z m 21,0 h -19 v -2 h 19 z m 0,-4 h -19 v -2 h 19 z m 0,-4 h -19 v -2 h 19 z m -19,-4 v -2 h 19 v 2 z"
             id="path4675" />
        </g>
        <g
           id="g4679" />
        <g
           id="g4681" />
        <g
           id="g4683" />
        <g
           id="g4685" />
        <g
           id="g4687" />
        <g
           id="g4689" />
        <g
           id="g4691" />
        <g
           id="g4693" />
        <g
           id="g4695" />
        <g
           id="g4697" />
        <g
           id="g4699" />
        <g
           id="g4701" />
        <g
           id="g4703" />
        <g
           id="g4705" />
        <g
           id="g4707" />
      </g>
      <g
         transform="translate(7.9375,77.107143)"
         id="g2452">
        <g
           id="g4848"
           transform="matrix(0.68965517,0,0,0.68965517,57.047648,128.40288)">
          <path
             id="path4742"
             d="M 34,0 C 22.773,0 13.35,2.73 10.728,6.418 4.63,7.854 0.495,10.252 0.045,13 v 0 H 0 V 13.5 25 25.5 26 37 37.5 38 50 H 0.045 C 0.776,54.461 11.219,58 24,58 35.227,58 44.648,55.269 47.269,51.581 53.366,50.145 57.505,47.748 57.956,45 H 58 V 33 32.5 21 20.5 8.5 C 58,3.806 47.255,0 34,0 Z"
             style="fill:#424a60"
             inkscape:connector-curvature="0" />
          <g
             id="g4750">
            <path
               id="path4744"
               d="M 24,46 C 10.745,46 0,42.194 0,37.5 V 50 H 0.045 C 0.776,54.461 11.219,58 24,58 36.781,58 47.224,54.461 47.955,50 H 48 V 37.5 C 48,42.194 37.255,46 24,46 Z"
               style="fill:#424a60"
               inkscape:connector-curvature="0" />
            <path
               id="path4746"
               d="m 0,37 v 0.5 C 0,37.332 0.018,37.166 0.045,37 Z"
               style="fill:#424a60"
               inkscape:connector-curvature="0" />
            <path
               id="path4748"
               d="M 47.955,37 C 47.982,37.166 48,37.332 48,37.5 V 37 Z"
               style="fill:#424a60"
               inkscape:connector-curvature="0" />
          </g>
          <g
             id="g4758">
            <path
               id="path4752"
               d="M 24,34 C 10.745,34 0,30.194 0,25.5 V 38 H 0.045 C 0.776,42.461 11.219,46 24,46 36.781,46 47.224,42.461 47.955,38 H 48 V 25.5 C 48,30.194 37.255,34 24,34 Z"
               style="fill:#556080"
               inkscape:connector-curvature="0" />
            <path
               id="path4754"
               d="m 0,25 v 0.5 C 0,25.332 0.018,25.166 0.045,25 Z"
               style="fill:#556080"
               inkscape:connector-curvature="0" />
            <path
               id="path4756"
               d="M 47.955,25 C 47.982,25.166 48,25.332 48,25.5 V 25 Z"
               style="fill:#556080"
               inkscape:connector-curvature="0" />
          </g>
          <ellipse
             id="ellipse4760"
             ry="8.5"
             rx="24"
             cy="13.5"
             cx="24"
             style="fill:#7fabda" />
          <g
             id="g4768">
            <path
               id="path4762"
               d="M 24,22 C 10.745,22 0,18.194 0,13.5 V 26 H 0.045 C 0.776,30.461 11.219,34 24,34 36.781,34 47.224,30.461 47.955,26 H 48 V 13.5 C 48,18.194 37.255,22 24,22 Z"
               style="fill:#7383bf"
               inkscape:connector-curvature="0" />
            <path
               id="path4764"
               d="m 0,13 v 0.5 C 0,13.332 0.018,13.166 0.045,13 Z"
               style="fill:#7383bf"
               inkscape:connector-curvature="0" />
            <path
               id="path4766"
               d="M 47.955,13 C 47.982,13.166 48,13.332 48,13.5 V 13 Z"
               style="fill:#7383bf"
               inkscape:connector-curvature="0" />
          </g>
          <path
             id="path4770"
             d="M 34,0 C 22.772,0 13.347,2.731 10.727,6.42 14.529,5.524 19.09,5 24,5 36.781,5 47.224,8.538 47.955,13 H 48 v 0.5 1.902 C 54.054,13.859 58,11.343 58,8.5 58,3.806 47.255,0 34,0 Z"
             style="fill:#88c057"
             inkscape:connector-curvature="0" />
          <path
             id="path4772"
             d="M 48,15.402 V 25 25.5 26 27.403 C 53.696,25.951 57.523,23.637 57.955,21 H 58 V 8.5 c 0,2.843 -3.946,5.359 -10,6.902 z"
             style="fill:#61b872"
             inkscape:connector-curvature="0" />
          <path
             id="path4774"
             d="M 48,27.402 V 37 37.5 38 39.403 C 53.696,37.951 57.523,35.637 57.955,33 H 58 V 20.5 c 0,2.843 -3.946,5.359 -10,6.902 z"
             style="fill:#25ae88"
             inkscape:connector-curvature="0" />
          <path
             id="path4776"
             d="M 48,39.402 V 50 h -0.045 c -0.089,0.542 -0.324,1.071 -0.687,1.581 C 53.365,50.145 57.504,47.748 57.955,45 H 58 V 32.5 c 0,2.843 -3.946,5.359 -10,6.902 z"
             style="fill:#1a9172"
             inkscape:connector-curvature="0" />
          <g
             id="g4778" />
          <g
             id="g4780" />
          <g
             id="g4782" />
          <g
             id="g4784" />
          <g
             id="g4786" />
          <g
             id="g4788" />
          <g
             id="g4790" />
          <g
             id="g4792" />
          <g
             id="g4794" />
          <g
             id="g4796" />
          <g
             id="g4798" />
          <g
             id="g4800" />
          <g
             id="g4802" />
          <g
             id="g4804" />
          <g
             id="g4806" />
        </g>
        <text
           xml:space="preserve"
           style="font-style:normal;font-weight:normal;font-size:7.04964685px;line-height:1.25;font-family:sans-serif;letter-spacing:0px;word-spacing:0px;fill:#000000;fill-opacity:1;stroke:none;stroke-width:0.17624116"
           x="57.542492"
           y="175.17513"
           id="text2414"><tspan
             sodipodi:role="line"
             id="tspan2412"
             x="57.542492"
             y="175.17513"
             style="stroke-width:0.17624116">DATABASE</tspan></text>
      </g>
    </g>
  </g>
  <style
     id="style815"
     type="text/css">
	.st0{fill:#005590;}
	.st1{fill:#004064;}
	.st2{fill:#E6B35A;}
	.st3{opacity:0.94;}
	.st4{fill:#FFFFFF;}
	.st5{fill:none;}
	.st6{fill:#110B0C;}
</style>
  <style
     id="style1666"
     type="text/css">
	.st0{fill:#164F86;}
	.st1{fill:#14275B;}
	.st2{fill:#E6B35A;}
	.st3{fill:#FFFFFF;}
	.st4{fill:#BA3224;}
	.st5{fill:#B13728;}
	.st6{fill:#AA3729;}
	.st7{fill:#221819;}
	.st8{opacity:0.1;fill:#1A171B;enable-background:new    ;}
	.st9{opacity:0.94;}
</style>
  <style
     id="style1839"
     type="text/css">
	.st0{fill:#DB1F26;}
	.st1{opacity:0.25;fill:url(#SVGID_1_);enable-background:new    ;}
	.st2{fill:#A51D21;}
	.st3{fill:#FFFFFF;}
	.st4{fill:none;}
	.st5{fill:#231F20;}
	.st6{fill:#E6B35A;}
</style>
</svg>
