<?xml version="1.0" encoding="UTF-8" standalone="no"?>
<svg
   xmlns:dc="http://purl.org/dc/elements/1.1/"
   xmlns:cc="http://creativecommons.org/ns#"
   xmlns:rdf="http://www.w3.org/1999/02/22-rdf-syntax-ns#"
   xmlns:svg="http://www.w3.org/2000/svg"
   xmlns="http://www.w3.org/2000/svg"
   xmlns:sodipodi="http://sodipodi.sourceforge.net/DTD/sodipodi-0.dtd"
   xmlns:inkscape="http://www.inkscape.org/namespaces/inkscape"
   viewBox="0 0 339.45215 163.866"
   version="1.1"
   id="svg189"
   sodipodi:docname="tidyr_static_separate.svg"
   inkscape:version="0.92.3 (2405546, 2018-03-11)"
   width="339.45215"
   height="163.866">
  <metadata
     id="metadata193">
    <rdf:RDF>
      <cc:Work
         rdf:about="">
        <dc:format>image/svg+xml</dc:format>
        <dc:type
           rdf:resource="http://purl.org/dc/dcmitype/StillImage" />
        <dc:title></dc:title>
      </cc:Work>
    </rdf:RDF>
  </metadata>
  <sodipodi:namedview
     pagecolor="#ffffff"
     bordercolor="#666666"
     borderopacity="1"
     objecttolerance="10"
     gridtolerance="10"
     guidetolerance="10"
     inkscape:pageopacity="0"
     inkscape:pageshadow="2"
     inkscape:window-width="1600"
     inkscape:window-height="837"
     id="namedview191"
     showgrid="false"
     inkscape:zoom="1.3111111"
     inkscape:cx="57.240481"
     inkscape:cy="-18.26796"
     inkscape:window-x="-8"
     inkscape:window-y="62"
     inkscape:window-maximized="1"
     inkscape:current-layer="svg189" />
  <defs
     id="defs4">
    <marker
       inkscape:stockid="Arrow1Lend"
       orient="auto"
       refY="0"
       refX="0"
       id="marker1286"
       style="overflow:visible"
       inkscape:isstock="true">
      <path
         id="path1284"
         d="M 0,0 5,-5 -12.5,0 5,5 Z"
         style="fill:#000000;fill-opacity:1;fill-rule:evenodd;stroke:#000000;stroke-width:1.00000003pt;stroke-linecap:round;stroke-linejoin:round;stroke-miterlimit:10;stroke-opacity:1"
         transform="matrix(-0.8,0,0,-0.8,-10,0)"
         inkscape:connector-curvature="0" />
    </marker>
    <marker
       inkscape:stockid="Arrow1Lend"
       orient="auto"
       refY="0"
       refX="0"
       id="Arrow1Lend"
       style="overflow:visible"
       inkscape:isstock="true">
      <path
         id="path1005"
         d="M 0,0 5,-5 -12.5,0 5,5 Z"
         style="fill:none;fill-rule:evenodd;stroke:#000000;stroke-width:1.00000003pt;stroke-linecap:round;stroke-linejoin:round;stroke-miterlimit:10;stroke-opacity:1"
         transform="matrix(-0.8,0,0,-0.8,-10,0)"
         inkscape:connector-curvature="0" />
    </marker>
    <style
       type="text/css"
       id="style2"><![CDATA[
    line, polyline, path, rect, circle {
      fill: none;
      stroke: #000000;
      stroke-linecap: round;
      stroke-linejoin: round;
      stroke-miterlimit: 10.00;
    }
  ]]></style>
    <clipPath
       id="cpMzIuNTgyNnwyMTkuNDE3fDM2MHwyNC42NTU1-2">
      <rect
         x="32.580002"
         y="24.66"
         width="186.83"
         height="335.34"
         id="rect8-9"
         style="fill:none;stroke:#000000;stroke-linecap:round;stroke-linejoin:round;stroke-miterlimit:10" />
    </clipPath>
    <clipPath
       id="clipPath1035">
      <rect
         x="32.580002"
         y="24.66"
         width="186.83"
         height="335.34"
         id="rect1033"
         style="fill:none;stroke:#000000;stroke-linecap:round;stroke-linejoin:round;stroke-miterlimit:10" />
    </clipPath>
    <clipPath
       id="clipPath1039">
      <rect
         x="32.580002"
         y="24.66"
         width="186.83"
         height="335.34"
         id="rect1037"
         style="fill:none;stroke:#000000;stroke-linecap:round;stroke-linejoin:round;stroke-miterlimit:10" />
    </clipPath>
    <clipPath
       id="clipPath1043">
      <rect
         x="32.580002"
         y="24.66"
         width="186.83"
         height="335.34"
         id="rect1041"
         style="fill:none;stroke:#000000;stroke-linecap:round;stroke-linejoin:round;stroke-miterlimit:10" />
    </clipPath>
    <clipPath
       id="clipPath1047">
      <rect
         x="32.580002"
         y="24.66"
         width="186.83"
         height="335.34"
         id="rect1045"
         style="fill:none;stroke:#000000;stroke-linecap:round;stroke-linejoin:round;stroke-miterlimit:10" />
    </clipPath>
    <clipPath
       id="clipPath1051">
      <rect
         x="32.580002"
         y="24.66"
         width="186.83"
         height="335.34"
         id="rect1049"
         style="fill:none;stroke:#000000;stroke-linecap:round;stroke-linejoin:round;stroke-miterlimit:10" />
    </clipPath>
    <clipPath
       id="clipPath1055">
      <rect
         x="32.580002"
         y="24.66"
         width="186.83"
         height="335.34"
         id="rect1053"
         style="fill:none;stroke:#000000;stroke-linecap:round;stroke-linejoin:round;stroke-miterlimit:10" />
    </clipPath>
    <clipPath
       id="clipPath1059">
      <rect
         x="32.580002"
         y="24.66"
         width="186.83"
         height="335.34"
         id="rect1057"
         style="fill:none;stroke:#000000;stroke-linecap:round;stroke-linejoin:round;stroke-miterlimit:10" />
    </clipPath>
    <clipPath
       id="clipPath1063">
      <rect
         x="32.580002"
         y="24.66"
         width="186.83"
         height="335.34"
         id="rect1061"
         style="fill:none;stroke:#000000;stroke-linecap:round;stroke-linejoin:round;stroke-miterlimit:10" />
    </clipPath>
    <clipPath
       id="clipPath1067">
      <rect
         x="32.580002"
         y="24.66"
         width="186.83"
         height="335.34"
         id="rect1065"
         style="fill:none;stroke:#000000;stroke-linecap:round;stroke-linejoin:round;stroke-miterlimit:10" />
    </clipPath>
    <clipPath
       id="clipPath1071">
      <rect
         x="32.580002"
         y="24.66"
         width="186.83"
         height="335.34"
         id="rect1069"
         style="fill:none;stroke:#000000;stroke-linecap:round;stroke-linejoin:round;stroke-miterlimit:10" />
    </clipPath>
    <clipPath
       id="clipPath1075">
      <rect
         x="32.580002"
         y="24.66"
         width="186.83"
         height="335.34"
         id="rect1073"
         style="fill:none;stroke:#000000;stroke-linecap:round;stroke-linejoin:round;stroke-miterlimit:10" />
    </clipPath>
    <clipPath
       id="clipPath1079">
      <rect
         x="32.580002"
         y="24.66"
         width="186.83"
         height="335.34"
         id="rect1077"
         style="fill:none;stroke:#000000;stroke-linecap:round;stroke-linejoin:round;stroke-miterlimit:10" />
    </clipPath>
    <clipPath
       id="clipPath1083">
      <rect
         x="32.580002"
         y="24.66"
         width="186.83"
         height="335.34"
         id="rect1081"
         style="fill:none;stroke:#000000;stroke-linecap:round;stroke-linejoin:round;stroke-miterlimit:10" />
    </clipPath>
    <clipPath
       id="clipPath1087">
      <rect
         x="32.580002"
         y="24.66"
         width="186.83"
         height="335.34"
         id="rect1085"
         style="fill:none;stroke:#000000;stroke-linecap:round;stroke-linejoin:round;stroke-miterlimit:10" />
    </clipPath>
    <clipPath
       id="clipPath1091">
      <rect
         x="32.580002"
         y="24.66"
         width="186.83"
         height="335.34"
         id="rect1089"
         style="fill:none;stroke:#000000;stroke-linecap:round;stroke-linejoin:round;stroke-miterlimit:10" />
    </clipPath>
    <clipPath
       id="clipPath1095">
      <rect
         x="32.580002"
         y="24.66"
         width="186.83"
         height="335.34"
         id="rect1093"
         style="fill:none;stroke:#000000;stroke-linecap:round;stroke-linejoin:round;stroke-miterlimit:10" />
    </clipPath>
    <clipPath
       id="clipPath1099">
      <rect
         x="32.580002"
         y="24.66"
         width="186.83"
         height="335.34"
         id="rect1097"
         style="fill:none;stroke:#000000;stroke-linecap:round;stroke-linejoin:round;stroke-miterlimit:10" />
    </clipPath>
    <clipPath
       id="clipPath1103">
      <rect
         x="32.580002"
         y="24.66"
         width="186.83"
         height="335.34"
         id="rect1101"
         style="fill:none;stroke:#000000;stroke-linecap:round;stroke-linejoin:round;stroke-miterlimit:10" />
    </clipPath>
    <clipPath
       id="clipPath1107">
      <rect
         x="32.580002"
         y="24.66"
         width="186.83"
         height="335.34"
         id="rect1105"
         style="fill:none;stroke:#000000;stroke-linecap:round;stroke-linejoin:round;stroke-miterlimit:10" />
    </clipPath>
    <clipPath
       id="clipPath1111">
      <rect
         x="32.580002"
         y="24.66"
         width="186.83"
         height="335.34"
         id="rect1109"
         style="fill:none;stroke:#000000;stroke-linecap:round;stroke-linejoin:round;stroke-miterlimit:10" />
    </clipPath>
    <clipPath
       id="clipPath1115">
      <rect
         x="32.580002"
         y="24.66"
         width="186.83"
         height="335.34"
         id="rect1113"
         style="fill:none;stroke:#000000;stroke-linecap:round;stroke-linejoin:round;stroke-miterlimit:10" />
    </clipPath>
    <clipPath
       id="clipPath1119">
      <rect
         x="32.580002"
         y="24.66"
         width="186.83"
         height="335.34"
         id="rect1117"
         style="fill:none;stroke:#000000;stroke-linecap:round;stroke-linejoin:round;stroke-miterlimit:10" />
    </clipPath>
    <clipPath
       id="clipPath1123">
      <rect
         x="32.580002"
         y="24.66"
         width="186.83"
         height="335.34"
         id="rect1121"
         style="fill:none;stroke:#000000;stroke-linecap:round;stroke-linejoin:round;stroke-miterlimit:10" />
    </clipPath>
    <clipPath
       id="clipPath1127">
      <rect
         x="32.580002"
         y="24.66"
         width="186.83"
         height="335.34"
         id="rect1125"
         style="fill:none;stroke:#000000;stroke-linecap:round;stroke-linejoin:round;stroke-miterlimit:10" />
    </clipPath>
    <clipPath
       id="cpMzIuNTgyNnwyMTkuNDE3fDM2MHwyNC42NTU1-27">
      <rect
         x="32.580002"
         y="24.66"
         width="186.83"
         height="335.34"
         id="rect8-4"
         style="fill:none;stroke:#000000;stroke-linecap:round;stroke-linejoin:round;stroke-miterlimit:10" />
    </clipPath>
    <clipPath
       id="cpMzIuNTgyNnwyMTkuNDE3fDM2MHwyNC42NTU1-0">
      <rect
         x="32.580002"
         y="24.66"
         width="186.83"
         height="335.34"
         id="rect8-6"
         style="fill:none;stroke:#000000;stroke-linecap:round;stroke-linejoin:round;stroke-miterlimit:10" />
    </clipPath>
  </defs>
  <defs
     id="defs11">
    <clipPath
       id="cpMzIuNTgyNnwyMTkuNDE3fDM2MHwyNC42NTU1">
      <rect
         x="32.580002"
         y="24.66"
         width="186.83"
         height="335.34"
         id="rect8"
         style="fill:none;stroke:#000000;stroke-linecap:round;stroke-linejoin:round;stroke-miterlimit:10" />
    </clipPath>
  </defs>
  <defs
     id="defs66">
    <clipPath
       id="cpMHw1MDR8MzYwfDA=">
      <rect
         x="0"
         y="0"
         width="504"
         height="360"
         id="rect63"
         style="fill:none;stroke:#000000;stroke-linecap:round;stroke-linejoin:round;stroke-miterlimit:10" />
    </clipPath>
  </defs>
  <defs
     id="defs79">
    <clipPath
       id="cpMzA3LjUyOXw0NDguNDcxfDM2MHwyNC42NTU1">
      <rect
         x="307.53"
         y="24.66"
         width="140.94"
         height="335.34"
         id="rect76"
         style="fill:none;stroke:#000000;stroke-linecap:round;stroke-linejoin:round;stroke-miterlimit:10" />
    </clipPath>
  </defs>
  <defs
     id="defs179">
    <clipPath
       id="clipPath177">
      <rect
         x="0"
         y="0"
         width="504"
         height="360"
         id="rect175"
         style="fill:none;stroke:#000000;stroke-linecap:round;stroke-linejoin:round;stroke-miterlimit:10" />
    </clipPath>
  </defs>
  <g
     id="g2072">
    <rect
       id="rect6"
       style="fill:#ffffff;stroke:none;stroke-width:1.01630855;stroke-linecap:round;stroke-linejoin:round;stroke-miterlimit:10"
       height="102.79361%"
       width="100.48124%"
       x="0"
       y="2.2131347e-007" />
    <path
       inkscape:connector-curvature="0"
       id="path1000"
       d="m 113.53167,114.91475 83.4768,-1.27068"
       style="fill:#000000;fill-opacity:1;stroke:#000000;stroke-width:2;stroke-linecap:butt;stroke-linejoin:miter;stroke-miterlimit:10;stroke-dasharray:none;stroke-opacity:1;marker-end:url(#marker1286)" />
    <g
       transform="translate(-28.644073,-9.9152542)"
       id="g1490">
      <rect
         x="41.080002"
         y="85.629997"
         width="39.200001"
         height="39.200001"
         style="fill:#e41a1c;stroke:none;stroke-width:0.20999999;stroke-linecap:butt;stroke-linejoin:round;stroke-miterlimit:10"
         clip-path="url(#cpMzIuNTgyNnwyMTkuNDE3fDM2MHwyNC42NTU1)"
         id="rect13" />
      <rect
         x="41.080002"
         y="129.17999"
         width="39.200001"
         height="39.200001"
         style="fill:#e41a1c;fill-opacity:1;stroke:none;stroke-width:0.20999999;stroke-linecap:butt;stroke-linejoin:round;stroke-miterlimit:10"
         clip-path="url(#cpMzIuNTgyNnwyMTkuNDE3fDM2MHwyNC42NTU1)"
         id="rect15" />
      <rect
         x="84.629997"
         y="85.629997"
         width="39.200001"
         height="39.200001"
         style="fill:#4daf4a;fill-opacity:1;stroke:none;stroke-width:0.20999999;stroke-linecap:butt;stroke-linejoin:round;stroke-miterlimit:10"
         clip-path="url(#cpMzIuNTgyNnwyMTkuNDE3fDM2MHwyNC42NTU1)"
         id="rect17" />
      <rect
         x="84.629997"
         y="129.17999"
         width="39.200001"
         height="39.200001"
         style="fill:#4daf4a;fill-opacity:0.99655175;stroke:none;stroke-width:0.20999999;stroke-linecap:butt;stroke-linejoin:round;stroke-miterlimit:10"
         clip-path="url(#cpMzIuNTgyNnwyMTkuNDE3fDM2MHwyNC42NTU1)"
         id="rect19" />
      <path
         inkscape:connector-curvature="0"
         d="m 63.7,95.99 v 19.04 H 61.09 V 98.78 l -4.44,2.7 -1.14,-1.85 5.89,-3.64 z"
         style="fill:#ffffff;fill-rule:evenodd;stroke:none;stroke-width:0.75;stroke-linecap:round;stroke-linejoin:round;stroke-miterlimit:10"
         clip-path="url(#cpMzIuNTgyNnwyMTkuNDE3fDM2MHwyNC42NTU1)"
         id="path37" />
      <path
         inkscape:connector-curvature="0"
         d="m 60.12,139.26 v 0 l 0.34,0.01 0.32,0.02 0.32,0.03 0.32,0.05 0.3,0.06 0.29,0.07 0.29,0.09 0.28,0.11 0.27,0.11 0.26,0.13 v 0 l 0.25,0.14 0.25,0.16 0.23,0.16 0.22,0.17 0.21,0.18 0.19,0.2 0.19,0.2 0.17,0.21 0.16,0.23 0.15,0.23 v 0 l 0.13,0.24 0.12,0.24 0.11,0.25 0.09,0.25 0.08,0.26 0.06,0.27 0.05,0.28 0.04,0.28 0.02,0.28 0.01,0.3 v 0 l -0.01,0.34 -0.02,0.34 -0.04,0.34 -0.06,0.34 -0.07,0.34 -0.09,0.33 -0.1,0.33 -0.12,0.32 -0.14,0.32 -0.15,0.32 v 0 l -0.16,0.33 -0.18,0.32 -0.2,0.33 -0.21,0.34 -0.23,0.34 -0.25,0.35 -0.26,0.35 -0.28,0.36 -0.3,0.36 -0.32,0.37 v 0 l -0.34,0.38 -0.38,0.42 -0.4,0.44 -0.45,0.47 -0.47,0.5 -0.51,0.53 -0.54,0.56 -0.58,0.59 -0.61,0.61 -0.64,0.65 h 8.56 l -0.31,2.19 H 54.74 v -2.08 0 l 0.74,-0.77 0.7,-0.73 0.65,-0.68 0.61,-0.64 0.56,-0.6 0.52,-0.56 0.47,-0.51 0.43,-0.47 0.39,-0.43 0.34,-0.38 v 0 l 0.31,-0.37 0.29,-0.35 0.27,-0.35 0.26,-0.34 0.23,-0.32 0.22,-0.32 0.2,-0.31 0.18,-0.29 0.17,-0.29 0.14,-0.28 v 0 l 0.13,-0.27 0.12,-0.28 0.1,-0.29 0.09,-0.28 0.08,-0.3 0.06,-0.29 0.04,-0.3 0.04,-0.3 0.02,-0.31 0.01,-0.31 v 0 l -0.01,-0.29 -0.03,-0.28 -0.04,-0.26 -0.06,-0.25 -0.08,-0.24 -0.09,-0.22 -0.11,-0.21 -0.13,-0.2 -0.15,-0.18 -0.16,-0.17 v 0 l -0.17,-0.17 -0.19,-0.14 -0.2,-0.13 -0.21,-0.11 -0.22,-0.1 -0.24,-0.07 -0.24,-0.06 -0.26,-0.04 -0.27,-0.03 -0.27,-0.01 v 0 l -0.23,0.01 -0.23,0.01 -0.22,0.02 -0.21,0.04 -0.21,0.04 -0.2,0.06 -0.2,0.06 -0.19,0.07 -0.18,0.08 -0.18,0.1 v 0 l -0.18,0.1 -0.18,0.11 -0.18,0.13 -0.19,0.14 -0.18,0.16 -0.19,0.16 -0.19,0.18 -0.2,0.19 -0.19,0.2 -0.2,0.22 -1.71,-1.37 v 0 l 0.24,-0.28 0.24,-0.27 0.25,-0.25 0.25,-0.24 0.25,-0.22 0.26,-0.21 0.27,-0.2 0.27,-0.18 0.28,-0.16 0.28,-0.15 v 0 l 0.29,-0.13 0.29,-0.13 0.31,-0.1 0.3,-0.09 0.32,-0.08 0.32,-0.07 0.33,-0.05 0.34,-0.03 0.34,-0.02 z"
         style="fill:#ffffff;fill-rule:evenodd;stroke:none;stroke-width:0.75;stroke-linecap:round;stroke-linejoin:round;stroke-miterlimit:10"
         clip-path="url(#cpMzIuNTgyNnwyMTkuNDE3fDM2MHwyNC42NTU1)"
         id="path39" />
      <path
         inkscape:connector-curvature="0"
         d="m 109.29,111.53 v 0 0.18 l 0.01,0.16 0.02,0.16 0.02,0.15 0.03,0.14 0.03,0.14 0.04,0.12 0.05,0.11 0.05,0.11 0.06,0.09 v 0 l 0.07,0.09 0.07,0.08 0.08,0.07 0.08,0.07 0.09,0.07 0.1,0.06 0.1,0.06 0.11,0.06 0.12,0.05 0.12,0.05 -0.6,1.82 v 0 l -0.23,-0.03 -0.22,-0.04 -0.21,-0.05 -0.2,-0.05 -0.19,-0.07 -0.18,-0.07 -0.18,-0.07 -0.16,-0.09 -0.16,-0.09 -0.14,-0.1 v 0 l -0.14,-0.1 -0.13,-0.12 -0.13,-0.13 -0.11,-0.15 -0.11,-0.15 -0.1,-0.17 -0.1,-0.17 -0.09,-0.19 -0.08,-0.2 -0.07,-0.21 v 0 l -0.31,0.43 -0.35,0.38 -0.37,0.34 -0.41,0.29 -0.43,0.25 -0.46,0.2 -0.49,0.16 -0.52,0.11 -0.55,0.07 -0.57,0.02 v 0 l -0.44,-0.01 -0.41,-0.04 -0.4,-0.06 -0.38,-0.09 -0.36,-0.11 -0.34,-0.14 -0.32,-0.16 -0.3,-0.19 -0.29,-0.22 -0.26,-0.23 v 0 l -0.25,-0.26 -0.21,-0.27 -0.2,-0.29 -0.16,-0.31 -0.14,-0.32 -0.12,-0.33 -0.09,-0.35 -0.06,-0.37 -0.04,-0.38 -0.01,-0.4 v 0 l 0.01,-0.46 0.05,-0.45 0.09,-0.42 0.12,-0.4 0.15,-0.38 0.19,-0.35 0.22,-0.34 0.26,-0.31 0.29,-0.29 0.32,-0.27 v 0 l 0.36,-0.24 0.39,-0.22 0.42,-0.19 0.45,-0.17 0.47,-0.14 0.51,-0.11 0.53,-0.09 0.56,-0.06 0.59,-0.04 0.62,-0.02 h 2.3 v -1.11 0 l -0.01,-0.31 -0.02,-0.29 -0.04,-0.27 -0.05,-0.25 -0.07,-0.24 -0.09,-0.22 -0.1,-0.2 -0.11,-0.18 -0.13,-0.17 -0.15,-0.14 v 0 l -0.16,-0.13 -0.18,-0.12 -0.19,-0.1 -0.21,-0.09 -0.23,-0.07 -0.25,-0.07 -0.26,-0.04 -0.27,-0.04 -0.3,-0.02 h -0.31 v 0 h -0.34 l -0.35,0.03 -0.37,0.04 -0.38,0.05 -0.39,0.07 -0.42,0.09 -0.42,0.11 -0.44,0.12 -0.46,0.13 -0.47,0.15 -0.65,-1.9 v 0 l 0.55,-0.2 0.55,-0.17 0.53,-0.16 0.53,-0.13 0.53,-0.11 0.51,-0.09 0.51,-0.08 0.49,-0.05 0.49,-0.03 0.49,-0.01 v 0 l 0.51,0.01 0.49,0.04 0.46,0.07 0.44,0.09 0.41,0.12 0.38,0.14 0.35,0.17 0.33,0.2 0.31,0.22 0.27,0.25 v 0 l 0.25,0.27 0.22,0.29 0.2,0.31 0.17,0.33 0.14,0.36 0.12,0.38 0.09,0.4 0.07,0.42 0.04,0.44 0.01,0.47 z m -6.15,1.88 v 0 l 0.44,-0.03 0.42,-0.07 0.4,-0.11 0.39,-0.17 0.36,-0.21 0.34,-0.25 0.33,-0.31 0.3,-0.35 0.29,-0.39 0.26,-0.45 v -3.44 h -1.96 v 0 l -0.79,0.03 -0.71,0.09 -0.62,0.16 -0.54,0.21 -0.46,0.28 -0.37,0.34 -0.29,0.4 -0.21,0.46 -0.12,0.52 -0.05,0.58 v 0 l 0.01,0.26 0.02,0.25 0.03,0.24 0.05,0.22 0.06,0.21 0.07,0.19 0.08,0.18 0.1,0.17 0.11,0.16 0.13,0.14 v 0 l 0.14,0.13 0.15,0.12 0.16,0.1 0.17,0.09 0.19,0.07 0.2,0.07 0.21,0.04 0.23,0.04 0.23,0.02 z"
         style="fill:#ffffff;fill-rule:evenodd;stroke:none;stroke-width:0.75;stroke-linecap:round;stroke-linejoin:round;stroke-miterlimit:10"
         clip-path="url(#cpMzIuNTgyNnwyMTkuNDE3fDM2MHwyNC42NTU1)"
         id="path41"
         transform="translate(-10)" />
      <path
         inkscape:connector-curvature="0"
         d="m 105.33,143.24 v 0 l 0.51,0.02 0.48,0.07 0.46,0.1 0.43,0.14 0.42,0.19 0.4,0.23 0.37,0.27 0.36,0.31 0.33,0.35 0.31,0.4 v 0 l 0.29,0.43 0.26,0.45 0.22,0.5 0.2,0.52 0.16,0.56 0.14,0.59 0.11,0.63 0.07,0.65 0.05,0.69 0.01,0.73 v 0 l -0.01,0.46 -0.02,0.45 -0.03,0.44 -0.05,0.43 -0.07,0.41 -0.08,0.41 -0.09,0.4 -0.1,0.38 -0.13,0.38 -0.13,0.36 v 0 l -0.15,0.35 -0.16,0.33 -0.17,0.31 -0.19,0.3 -0.2,0.28 -0.21,0.27 -0.22,0.26 -0.24,0.23 -0.25,0.23 -0.26,0.2 v 0 l -0.27,0.19 -0.28,0.16 -0.29,0.15 -0.3,0.12 -0.31,0.11 -0.32,0.09 -0.32,0.06 -0.34,0.05 -0.34,0.03 -0.36,0.01 v 0 l -0.46,-0.02 -0.45,-0.06 -0.44,-0.1 -0.42,-0.14 -0.41,-0.18 -0.39,-0.22 -0.37,-0.26 -0.36,-0.29 -0.35,-0.34 -0.33,-0.38 -0.26,1.65 h -2.3 v -21.03 l 2.61,-0.31 v 8.22 0 l 0.34,-0.42 0.35,-0.38 0.38,-0.33 0.39,-0.29 0.42,-0.24 0.43,-0.2 0.45,-0.16 0.48,-0.11 0.49,-0.07 z m -0.93,13.6 v 0 l 0.33,-0.01 0.33,-0.04 0.31,-0.07 0.29,-0.1 0.28,-0.13 0.26,-0.15 0.25,-0.18 0.23,-0.21 0.22,-0.24 0.2,-0.26 v 0 l 0.19,-0.3 0.17,-0.33 0.15,-0.36 0.13,-0.4 0.1,-0.42 0.09,-0.45 0.07,-0.49 0.05,-0.51 0.03,-0.55 0.01,-0.57 v 0 l -0.01,-0.59 -0.02,-0.56 -0.05,-0.53 -0.06,-0.49 -0.08,-0.45 -0.1,-0.42 -0.12,-0.39 -0.14,-0.35 -0.15,-0.32 -0.18,-0.28 v 0 l -0.19,-0.26 -0.2,-0.24 -0.22,-0.2 -0.24,-0.18 -0.25,-0.15 -0.27,-0.12 -0.28,-0.1 -0.29,-0.07 -0.32,-0.04 -0.33,-0.01 v 0 l -0.39,0.02 -0.38,0.07 -0.38,0.12 -0.36,0.16 -0.36,0.21 -0.34,0.26 -0.34,0.3 -0.32,0.35 -0.32,0.4 -0.31,0.44 v 7.17 0 l 0.13,0.19 0.12,0.17 0.14,0.17 0.13,0.16 0.15,0.15 0.14,0.15 0.16,0.13 0.15,0.13 0.17,0.12 0.17,0.11 v 0 l 0.17,0.1 0.18,0.1 0.18,0.08 0.18,0.07 0.19,0.06 0.18,0.05 0.19,0.03 0.19,0.03 0.19,0.02 z"
         style="fill:#ffffff;fill-rule:evenodd;stroke:none;stroke-width:0.75;stroke-linecap:round;stroke-linejoin:round;stroke-miterlimit:10"
         clip-path="url(#cpMzIuNTgyNnwyMTkuNDE3fDM2MHwyNC42NTU1)"
         id="path43"
         transform="translate(-10)" />
      <path
         inkscape:connector-curvature="0"
         d="m 56.35,58.56 v 9 h -1.57 v -9 z m -0.8,-4.32 v 0 h 0.1 l 0.09,0.01 0.09,0.02 0.09,0.02 0.08,0.03 0.08,0.03 0.07,0.04 0.07,0.05 0.07,0.05 0.06,0.06 v 0 l 0.06,0.06 0.05,0.07 0.05,0.06 0.04,0.08 0.03,0.07 0.03,0.08 0.02,0.08 0.02,0.09 0.01,0.08 v 0.09 0 0.1 l -0.01,0.08 -0.02,0.09 -0.02,0.08 -0.03,0.08 -0.03,0.07 -0.04,0.07 -0.05,0.07 -0.05,0.07 -0.06,0.06 v 0 l -0.06,0.06 -0.07,0.05 -0.07,0.04 -0.07,0.04 -0.08,0.03 -0.08,0.03 -0.09,0.02 -0.09,0.01 -0.09,0.01 h -0.1 v 0 H 55.46 L 55.37,56.36 55.28,56.35 55.2,56.33 55.12,56.3 55.04,56.27 54.97,56.23 54.9,56.19 54.83,56.14 54.77,56.08 v 0 l -0.06,-0.06 -0.05,-0.07 -0.05,-0.07 -0.04,-0.07 -0.03,-0.07 -0.03,-0.08 -0.02,-0.08 -0.02,-0.09 -0.01,-0.08 v -0.1 0 -0.09 l 0.01,-0.08 0.02,-0.09 0.02,-0.08 0.03,-0.08 0.03,-0.07 0.04,-0.08 0.05,-0.06 0.05,-0.07 0.06,-0.06 v 0 l 0.06,-0.06 0.07,-0.05 0.07,-0.05 0.07,-0.04 0.08,-0.03 0.08,-0.03 0.08,-0.02 0.09,-0.02 0.09,-0.01 z"
         style="fill:#000000;fill-rule:evenodd;stroke:none;stroke-width:0.75;stroke-linecap:round;stroke-linejoin:round;stroke-miterlimit:10"
         clip-path="url(#cpMzIuNTgyNnwyMTkuNDE3fDM2MHwyNC42NTU1)"
         id="path59" />
      <path
         inkscape:connector-curvature="0"
         d="m 66.56,54.94 v 12.62 h -1.38 l -0.15,-1.25 v 0 l -0.09,0.13 -0.1,0.13 -0.1,0.12 -0.1,0.12 -0.11,0.11 -0.12,0.1 -0.11,0.1 -0.13,0.1 -0.12,0.08 -0.13,0.08 v 0 l -0.14,0.08 -0.14,0.06 -0.14,0.06 -0.14,0.04 -0.15,0.05 -0.15,0.03 -0.15,0.03 -0.16,0.02 -0.16,0.01 h -0.16 v 0 L 62.12,67.75 61.82,67.71 61.53,67.65 61.26,67.56 61,67.44 60.76,67.31 60.53,67.14 60.31,66.95 60.11,66.74 59.92,66.5 v 0 L 59.75,66.24 59.6,65.96 59.47,65.66 59.35,65.35 59.26,65.02 59.18,64.67 59.11,64.3 59.07,63.92 59.04,63.52 59.03,63.1 v 0 l 0.01,-0.27 0.01,-0.27 0.02,-0.26 0.03,-0.26 0.04,-0.25 0.05,-0.24 0.05,-0.24 0.07,-0.23 0.07,-0.22 0.08,-0.22 v 0 l 0.09,-0.21 0.1,-0.2 0.1,-0.19 0.11,-0.18 0.12,-0.17 0.13,-0.17 0.13,-0.15 0.14,-0.14 0.15,-0.14 0.16,-0.12 v 0 l 0.16,-0.12 0.17,-0.1 0.18,-0.1 0.18,-0.08 0.18,-0.06 0.19,-0.06 0.2,-0.04 0.2,-0.03 0.21,-0.02 0.21,-0.01 v 0 l 0.27,0.01 0.27,0.04 0.26,0.05 0.25,0.08 0.25,0.1 0.23,0.12 0.24,0.15 0.22,0.16 0.22,0.19 0.21,0.21 v -4.71 z m -3.79,11.57 v 0 h 0.14 l 0.14,-0.01 0.13,-0.02 0.13,-0.02 0.13,-0.03 0.12,-0.03 0.12,-0.05 0.11,-0.04 0.11,-0.06 0.1,-0.06 v 0 l 0.1,-0.07 0.11,-0.08 0.1,-0.08 0.1,-0.1 0.1,-0.09 0.09,-0.11 0.1,-0.11 0.1,-0.11 0.1,-0.13 0.09,-0.13 v -4.4 0 l -0.09,-0.12 -0.09,-0.1 -0.09,-0.1 -0.09,-0.1 -0.1,-0.09 -0.09,-0.08 -0.1,-0.08 -0.1,-0.08 -0.1,-0.06 -0.1,-0.06 v 0 l -0.1,-0.06 -0.11,-0.05 -0.1,-0.05 -0.11,-0.04 -0.11,-0.03 -0.12,-0.03 -0.11,-0.02 -0.12,-0.02 -0.13,-0.01 h -0.12 v 0 l -0.2,0.01 -0.2,0.02 -0.18,0.05 -0.18,0.06 -0.17,0.08 -0.15,0.09 -0.15,0.12 -0.14,0.13 -0.13,0.15 -0.12,0.16 v 0 l -0.11,0.18 -0.1,0.2 -0.08,0.22 -0.07,0.23 -0.06,0.25 -0.06,0.27 -0.03,0.29 -0.03,0.3 -0.02,0.32 -0.01,0.34 v 0 l 0.01,0.33 0.02,0.33 0.02,0.3 0.04,0.29 0.05,0.26 0.05,0.26 0.07,0.23 0.08,0.21 0.09,0.2 0.1,0.18 v 0 l 0.11,0.16 0.12,0.15 0.13,0.13 0.14,0.11 0.15,0.09 0.15,0.08 0.17,0.06 0.18,0.04 0.18,0.03 z"
         style="fill:#000000;fill-rule:evenodd;stroke:none;stroke-width:0.75;stroke-linecap:round;stroke-linejoin:round;stroke-miterlimit:10"
         clip-path="url(#cpMzIuNTgyNnwyMTkuNDE3fDM2MHwyNC42NTU1)"
         id="path61" />
      <path
         transform="translate(-35.278643,0.77508261)"
         inkscape:connector-curvature="0"
         d="m 149.14,99.69 v 0 l 0.27,0.01 0.26,0.01 0.25,0.02 0.25,0.02 0.25,0.04 0.24,0.04 0.24,0.06 0.24,0.06 0.22,0.06 0.23,0.08 v 0 l 0.22,0.08 0.22,0.09 0.22,0.09 0.21,0.11 0.22,0.12 0.21,0.13 0.21,0.13 0.21,0.15 0.21,0.16 0.2,0.16 -1.25,1.65 v 0 l -0.16,-0.11 -0.16,-0.1 -0.16,-0.1 -0.15,-0.09 -0.16,-0.09 -0.16,-0.08 -0.15,-0.07 -0.16,-0.07 -0.15,-0.06 -0.15,-0.05 v 0 l -0.15,-0.06 -0.16,-0.04 -0.15,-0.05 -0.16,-0.03 -0.17,-0.04 -0.16,-0.02 -0.17,-0.02 -0.18,-0.02 h -0.17 l -0.18,-0.01 v 0 l -0.36,0.02 -0.34,0.04 -0.33,0.07 -0.3,0.11 -0.3,0.13 -0.27,0.16 -0.26,0.18 -0.25,0.22 -0.23,0.25 -0.21,0.27 v 0 l -0.19,0.31 -0.17,0.33 -0.15,0.36 -0.13,0.39 -0.11,0.41 -0.09,0.45 -0.07,0.47 -0.05,0.5 -0.03,0.53 -0.01,0.55 v 0 l 0.01,0.56 0.03,0.52 0.05,0.5 0.07,0.46 0.09,0.44 0.11,0.4 0.13,0.38 0.15,0.35 0.17,0.31 0.19,0.29 v 0 l 0.21,0.26 0.22,0.22 0.24,0.2 0.26,0.18 0.28,0.15 0.29,0.12 0.31,0.09 0.33,0.07 0.34,0.04 0.37,0.01 v 0 h 0.17 l 0.17,-0.01 0.17,-0.01 0.17,-0.02 0.16,-0.02 0.16,-0.03 0.16,-0.04 0.16,-0.03 0.15,-0.05 0.15,-0.05 v 0 l 0.15,-0.06 0.15,-0.06 0.16,-0.08 0.16,-0.07 0.16,-0.09 0.17,-0.09 0.17,-0.1 0.17,-0.1 0.18,-0.11 0.18,-0.12 1.19,1.71 v 0 l -0.41,0.31 -0.43,0.28 -0.43,0.25 -0.44,0.21 -0.46,0.19 -0.46,0.14 -0.47,0.12 -0.49,0.08 -0.49,0.05 -0.5,0.02 v 0 l -0.59,-0.02 -0.58,-0.06 -0.54,-0.11 -0.52,-0.14 -0.49,-0.18 -0.47,-0.23 -0.44,-0.27 -0.42,-0.3 -0.39,-0.35 -0.37,-0.39 v 0 l -0.33,-0.43 -0.29,-0.45 -0.26,-0.49 -0.23,-0.52 -0.19,-0.55 -0.16,-0.58 -0.12,-0.61 -0.08,-0.65 -0.06,-0.67 -0.01,-0.71 v 0 l 0.01,-0.47 0.02,-0.46 0.04,-0.45 0.05,-0.44 0.08,-0.42 0.08,-0.41 0.11,-0.41 0.12,-0.38 0.13,-0.38 0.15,-0.36 v 0 l 0.17,-0.36 0.18,-0.33 0.19,-0.32 0.21,-0.3 0.21,-0.29 0.24,-0.27 0.24,-0.25 0.26,-0.24 0.27,-0.23 0.28,-0.2 v 0 l 0.3,-0.19 0.32,-0.17 0.32,-0.15 0.33,-0.13 0.35,-0.11 0.35,-0.09 0.37,-0.07 0.37,-0.05 0.39,-0.03 z"
         style="fill:#ffffff;fill-rule:evenodd;stroke:none;stroke-width:0.75;stroke-linecap:round;stroke-linejoin:round;stroke-miterlimit:10"
         clip-path="url(#cpMzIuNTgyNnwyMTkuNDE3fDM2MHwyNC42NTU1-27)"
         id="path45-3" />
      <path
         transform="translate(-33.660931,0.08949)"
         inkscape:connector-curvature="0"
         d="m 153.58,137.55 v 21.03 h -2.3 l -0.26,-2.08 v 0 l -0.15,0.22 -0.16,0.22 -0.17,0.2 -0.17,0.19 -0.18,0.19 -0.19,0.17 -0.2,0.17 -0.2,0.15 -0.21,0.15 -0.22,0.13 v 0 l -0.22,0.12 -0.23,0.11 -0.24,0.09 -0.24,0.08 -0.24,0.07 -0.25,0.06 -0.26,0.04 -0.26,0.03 -0.26,0.02 -0.28,0.01 v 0 l -0.52,-0.02 -0.5,-0.06 -0.48,-0.11 -0.45,-0.15 -0.43,-0.19 -0.41,-0.23 -0.38,-0.27 -0.36,-0.32 -0.33,-0.36 -0.32,-0.4 v 0 l -0.28,-0.43 -0.25,-0.47 -0.22,-0.49 -0.2,-0.52 -0.16,-0.55 -0.13,-0.58 -0.1,-0.61 -0.08,-0.64 -0.04,-0.67 -0.02,-0.7 v 0 l 0.01,-0.45 0.02,-0.45 0.04,-0.43 0.05,-0.43 0.06,-0.41 0.08,-0.41 0.09,-0.39 0.11,-0.39 0.12,-0.37 0.13,-0.36 v 0 l 0.15,-0.36 0.16,-0.33 0.18,-0.32 0.18,-0.3 0.2,-0.29 0.21,-0.27 0.23,-0.25 0.23,-0.24 0.25,-0.23 0.26,-0.2 v 0 l 0.27,-0.2 0.29,-0.17 0.29,-0.16 0.29,-0.13 0.31,-0.11 0.32,-0.09 0.33,-0.08 0.33,-0.05 0.35,-0.03 0.35,-0.01 v 0 l 0.46,0.02 0.44,0.06 0.43,0.09 0.42,0.13 0.41,0.16 0.4,0.21 0.39,0.24 0.38,0.28 0.36,0.31 0.35,0.35 v -7.85 z m -6.32,19.29 v 0 h 0.24 l 0.23,-0.02 0.22,-0.03 0.21,-0.03 0.21,-0.05 0.2,-0.06 0.2,-0.07 0.19,-0.08 0.18,-0.1 0.17,-0.1 v 0 l 0.17,-0.12 0.17,-0.13 0.17,-0.14 0.17,-0.15 0.16,-0.16 0.17,-0.18 0.16,-0.18 0.16,-0.19 0.16,-0.21 0.16,-0.22 v -7.34 0 l -0.15,-0.19 -0.15,-0.17 -0.15,-0.17 -0.16,-0.16 -0.16,-0.15 -0.16,-0.14 -0.16,-0.13 -0.16,-0.13 -0.17,-0.11 -0.17,-0.1 v 0 l -0.17,-0.1 -0.17,-0.08 -0.18,-0.08 -0.18,-0.07 -0.18,-0.05 -0.19,-0.05 -0.2,-0.03 -0.2,-0.03 -0.2,-0.02 h -0.21 v 0 l -0.34,0.01 -0.32,0.05 -0.31,0.07 -0.29,0.1 -0.28,0.13 -0.27,0.16 -0.24,0.19 -0.23,0.22 -0.22,0.24 -0.2,0.28 v 0 l -0.18,0.31 -0.16,0.33 -0.14,0.36 -0.12,0.39 -0.11,0.42 -0.08,0.44 -0.07,0.48 -0.04,0.5 -0.03,0.53 -0.01,0.57 v 0 l 0.01,0.56 0.02,0.54 0.05,0.5 0.06,0.48 0.08,0.45 0.1,0.42 0.11,0.38 0.13,0.36 0.15,0.33 0.17,0.3 v 0 l 0.19,0.27 0.19,0.24 0.22,0.22 0.23,0.18 0.25,0.16 0.26,0.13 0.27,0.09 0.29,0.08 0.31,0.04 z"
         style="fill:#ffffff;fill-rule:evenodd;stroke:none;stroke-width:0.75;stroke-linecap:round;stroke-linejoin:round;stroke-miterlimit:10"
         clip-path="url(#cpMzIuNTgyNnwyMTkuNDE3fDM2MHwyNC42NTU1-0)"
         id="path47-9" />
      <text
         xml:space="preserve"
         style="font-style:normal;font-weight:normal;font-size:28.09425354px;line-height:1.25;font-family:sans-serif;letter-spacing:0px;word-spacing:0px;fill:#ffffff;fill-opacity:1;stroke:none;stroke-width:0.70235634"
         x="100.08422"
         y="115.76004"
         id="text1404-2"><tspan
           sodipodi:role="line"
           id="tspan1402-1"
           x="100.08422"
           y="115.76004"
           style="fill:#ffffff;stroke-width:0.70235634">/</tspan></text>
      <text
         xml:space="preserve"
         style="font-style:normal;font-weight:normal;font-size:28.09425354px;line-height:1.25;font-family:sans-serif;letter-spacing:0px;word-spacing:0px;fill:#ffffff;fill-opacity:1;stroke:none;stroke-width:0.70235634"
         x="100.33089"
         y="157.09399"
         id="text1404-2-1"><tspan
           sodipodi:role="line"
           id="tspan1402-1-7"
           x="100.33089"
           y="157.09399"
           style="fill:#ffffff;stroke-width:0.70235634">/</tspan></text>
      <text
         xml:space="preserve"
         style="font-style:normal;font-weight:normal;font-size:40px;line-height:1.25;font-family:sans-serif;letter-spacing:0px;word-spacing:0px;fill:#000000;fill-opacity:1;stroke:none"
         x="91.525421"
         y="67.881348"
         id="text1444"><tspan
           sodipodi:role="line"
           id="tspan1442"
           x="91.525421"
           y="67.881348"
           style="font-style:normal;font-variant:normal;font-weight:normal;font-stretch:normal;font-size:16px;font-family:sans-serif;-inkscape-font-specification:'sans-serif, Normal';font-variant-ligatures:normal;font-variant-caps:normal;font-variant-numeric:normal;font-feature-settings:normal;text-align:start;writing-mode:lr-tb;text-anchor:start">col</tspan></text>
    </g>
    <g
       transform="translate(-104.64407,-9.9152542)"
       id="g1512">
      <rect
         x="313.94"
         y="39.900002"
         width="39.759998"
         height="39.759998"
         style="fill:#ffffff;stroke:none;stroke-width:0.20999999;stroke-linecap:butt;stroke-linejoin:round;stroke-miterlimit:10"
         clip-path="url(#cpMzA3LjUyOXw0NDguNDcxfDM2MHwyNC42NTU1)"
         id="rect117" />
      <rect
         transform="translate(273.47255,-1.270682)"
         x="41.080002"
         y="85.629997"
         width="39.200001"
         height="39.200001"
         style="fill:#e41a1c;stroke:none;stroke-width:0.20999999;stroke-linecap:butt;stroke-linejoin:round;stroke-miterlimit:10"
         clip-path="url(#cpMzIuNTgyNnwyMTkuNDE3fDM2MHwyNC42NTU1-2)"
         id="rect13-3" />
      <rect
         transform="translate(273.47255,-1.270682)"
         x="41.080002"
         y="129.17999"
         width="39.200001"
         height="39.200001"
         style="fill:#e41a1c;fill-opacity:1;stroke:none;stroke-width:0.20999999;stroke-linecap:butt;stroke-linejoin:round;stroke-miterlimit:10"
         clip-path="url(#cpMzIuNTgyNnwyMTkuNDE3fDM2MHwyNC42NTU1-2)"
         id="rect15-9" />
      <rect
         transform="translate(273.47255,-1.270682)"
         x="84.629997"
         y="85.629997"
         width="39.200001"
         height="39.200001"
         style="fill:#377eb8;fill-opacity:1;stroke:none;stroke-width:0.20999999;stroke-linecap:butt;stroke-linejoin:round;stroke-miterlimit:10"
         clip-path="url(#cpMzIuNTgyNnwyMTkuNDE3fDM2MHwyNC42NTU1-2)"
         id="rect17-3" />
      <rect
         transform="translate(273.47255,-1.270682)"
         x="84.629997"
         y="129.17999"
         width="39.200001"
         height="39.200001"
         style="fill:#377eb8;fill-opacity:1;stroke:none;stroke-width:0.20999999;stroke-linecap:butt;stroke-linejoin:round;stroke-miterlimit:10"
         clip-path="url(#cpMzIuNTgyNnwyMTkuNDE3fDM2MHwyNC42NTU1-2)"
         id="rect19-4" />
      <rect
         transform="translate(273.47255,-1.270682)"
         x="128.17999"
         y="85.629997"
         width="39.200001"
         height="39.200001"
         style="fill:#ffff00;fill-opacity:0.6;stroke:none;stroke-width:0.20999999;stroke-linecap:butt;stroke-linejoin:round;stroke-miterlimit:10"
         clip-path="url(#cpMzIuNTgyNnwyMTkuNDE3fDM2MHwyNC42NTU1-2)"
         id="rect21-7" />
      <rect
         transform="translate(273.47255,-1.270682)"
         x="128.17999"
         y="129.17999"
         width="39.200001"
         height="39.200001"
         style="fill:#ffff66;fill-opacity:1;stroke:none;stroke-width:0.20999999;stroke-linecap:butt;stroke-linejoin:round;stroke-miterlimit:10"
         clip-path="url(#cpMzIuNTgyNnwyMTkuNDE3fDM2MHwyNC42NTU1-2)"
         id="rect23-9" />
      <rect
         transform="translate(273.47255,-1.270682)"
         x="41.080002"
         y="42.080002"
         width="39.200001"
         height="39.200001"
         style="fill:#ffffff;stroke:none;stroke-width:0.20999999;stroke-linecap:butt;stroke-linejoin:round;stroke-miterlimit:10"
         clip-path="url(#cpMzIuNTgyNnwyMTkuNDE3fDM2MHwyNC42NTU1-2)"
         id="rect35-6" />
      <path
         transform="translate(273.47255,-1.270682)"
         inkscape:connector-curvature="0"
         d="m 63.7,95.99 v 19.04 H 61.09 V 98.78 l -4.44,2.7 -1.14,-1.85 5.89,-3.64 z"
         style="fill:#ffffff;fill-rule:evenodd;stroke:none;stroke-width:0.75;stroke-linecap:round;stroke-linejoin:round;stroke-miterlimit:10"
         clip-path="url(#cpMzIuNTgyNnwyMTkuNDE3fDM2MHwyNC42NTU1-2)"
         id="path37-9" />
      <path
         transform="translate(273.47255,-1.270682)"
         inkscape:connector-curvature="0"
         d="m 60.12,139.26 v 0 l 0.34,0.01 0.32,0.02 0.32,0.03 0.32,0.05 0.3,0.06 0.29,0.07 0.29,0.09 0.28,0.11 0.27,0.11 0.26,0.13 v 0 l 0.25,0.14 0.25,0.16 0.23,0.16 0.22,0.17 0.21,0.18 0.19,0.2 0.19,0.2 0.17,0.21 0.16,0.23 0.15,0.23 v 0 l 0.13,0.24 0.12,0.24 0.11,0.25 0.09,0.25 0.08,0.26 0.06,0.27 0.05,0.28 0.04,0.28 0.02,0.28 0.01,0.3 v 0 l -0.01,0.34 -0.02,0.34 -0.04,0.34 -0.06,0.34 -0.07,0.34 -0.09,0.33 -0.1,0.33 -0.12,0.32 -0.14,0.32 -0.15,0.32 v 0 l -0.16,0.33 -0.18,0.32 -0.2,0.33 -0.21,0.34 -0.23,0.34 -0.25,0.35 -0.26,0.35 -0.28,0.36 -0.3,0.36 -0.32,0.37 v 0 l -0.34,0.38 -0.38,0.42 -0.4,0.44 -0.45,0.47 -0.47,0.5 -0.51,0.53 -0.54,0.56 -0.58,0.59 -0.61,0.61 -0.64,0.65 h 8.56 l -0.31,2.19 H 54.74 v -2.08 0 l 0.74,-0.77 0.7,-0.73 0.65,-0.68 0.61,-0.64 0.56,-0.6 0.52,-0.56 0.47,-0.51 0.43,-0.47 0.39,-0.43 0.34,-0.38 v 0 l 0.31,-0.37 0.29,-0.35 0.27,-0.35 0.26,-0.34 0.23,-0.32 0.22,-0.32 0.2,-0.31 0.18,-0.29 0.17,-0.29 0.14,-0.28 v 0 l 0.13,-0.27 0.12,-0.28 0.1,-0.29 0.09,-0.28 0.08,-0.3 0.06,-0.29 0.04,-0.3 0.04,-0.3 0.02,-0.31 0.01,-0.31 v 0 l -0.01,-0.29 -0.03,-0.28 -0.04,-0.26 -0.06,-0.25 -0.08,-0.24 -0.09,-0.22 -0.11,-0.21 -0.13,-0.2 -0.15,-0.18 -0.16,-0.17 v 0 l -0.17,-0.17 -0.19,-0.14 -0.2,-0.13 -0.21,-0.11 -0.22,-0.1 -0.24,-0.07 -0.24,-0.06 -0.26,-0.04 -0.27,-0.03 -0.27,-0.01 v 0 l -0.23,0.01 -0.23,0.01 -0.22,0.02 -0.21,0.04 -0.21,0.04 -0.2,0.06 -0.2,0.06 -0.19,0.07 -0.18,0.08 -0.18,0.1 v 0 l -0.18,0.1 -0.18,0.11 -0.18,0.13 -0.19,0.14 -0.18,0.16 -0.19,0.16 -0.19,0.18 -0.2,0.19 -0.19,0.2 -0.2,0.22 -1.71,-1.37 v 0 l 0.24,-0.28 0.24,-0.27 0.25,-0.25 0.25,-0.24 0.25,-0.22 0.26,-0.21 0.27,-0.2 0.27,-0.18 0.28,-0.16 0.28,-0.15 v 0 l 0.29,-0.13 0.29,-0.13 0.31,-0.1 0.3,-0.09 0.32,-0.08 0.32,-0.07 0.33,-0.05 0.34,-0.03 0.34,-0.02 z"
         style="fill:#ffffff;fill-rule:evenodd;stroke:none;stroke-width:0.75;stroke-linecap:round;stroke-linejoin:round;stroke-miterlimit:10"
         clip-path="url(#cpMzIuNTgyNnwyMTkuNDE3fDM2MHwyNC42NTU1-2)"
         id="path39-6" />
      <path
         transform="translate(273.47255,-1.270682)"
         inkscape:connector-curvature="0"
         d="m 109.29,111.53 v 0 0.18 l 0.01,0.16 0.02,0.16 0.02,0.15 0.03,0.14 0.03,0.14 0.04,0.12 0.05,0.11 0.05,0.11 0.06,0.09 v 0 l 0.07,0.09 0.07,0.08 0.08,0.07 0.08,0.07 0.09,0.07 0.1,0.06 0.1,0.06 0.11,0.06 0.12,0.05 0.12,0.05 -0.6,1.82 v 0 l -0.23,-0.03 -0.22,-0.04 -0.21,-0.05 -0.2,-0.05 -0.19,-0.07 -0.18,-0.07 -0.18,-0.07 -0.16,-0.09 -0.16,-0.09 -0.14,-0.1 v 0 l -0.14,-0.1 -0.13,-0.12 -0.13,-0.13 -0.11,-0.15 -0.11,-0.15 -0.1,-0.17 -0.1,-0.17 -0.09,-0.19 -0.08,-0.2 -0.07,-0.21 v 0 l -0.31,0.43 -0.35,0.38 -0.37,0.34 -0.41,0.29 -0.43,0.25 -0.46,0.2 -0.49,0.16 -0.52,0.11 -0.55,0.07 -0.57,0.02 v 0 l -0.44,-0.01 -0.41,-0.04 -0.4,-0.06 -0.38,-0.09 -0.36,-0.11 -0.34,-0.14 -0.32,-0.16 -0.3,-0.19 -0.29,-0.22 -0.26,-0.23 v 0 l -0.25,-0.26 -0.21,-0.27 -0.2,-0.29 -0.16,-0.31 -0.14,-0.32 -0.12,-0.33 -0.09,-0.35 -0.06,-0.37 -0.04,-0.38 -0.01,-0.4 v 0 l 0.01,-0.46 0.05,-0.45 0.09,-0.42 0.12,-0.4 0.15,-0.38 0.19,-0.35 0.22,-0.34 0.26,-0.31 0.29,-0.29 0.32,-0.27 v 0 l 0.36,-0.24 0.39,-0.22 0.42,-0.19 0.45,-0.17 0.47,-0.14 0.51,-0.11 0.53,-0.09 0.56,-0.06 0.59,-0.04 0.62,-0.02 h 2.3 v -1.11 0 l -0.01,-0.31 -0.02,-0.29 -0.04,-0.27 -0.05,-0.25 -0.07,-0.24 -0.09,-0.22 -0.1,-0.2 -0.11,-0.18 -0.13,-0.17 -0.15,-0.14 v 0 l -0.16,-0.13 -0.18,-0.12 -0.19,-0.1 -0.21,-0.09 -0.23,-0.07 -0.25,-0.07 -0.26,-0.04 -0.27,-0.04 -0.3,-0.02 h -0.31 v 0 h -0.34 l -0.35,0.03 -0.37,0.04 -0.38,0.05 -0.39,0.07 -0.42,0.09 -0.42,0.11 -0.44,0.12 -0.46,0.13 -0.47,0.15 -0.65,-1.9 v 0 l 0.55,-0.2 0.55,-0.17 0.53,-0.16 0.53,-0.13 0.53,-0.11 0.51,-0.09 0.51,-0.08 0.49,-0.05 0.49,-0.03 0.49,-0.01 v 0 l 0.51,0.01 0.49,0.04 0.46,0.07 0.44,0.09 0.41,0.12 0.38,0.14 0.35,0.17 0.33,0.2 0.31,0.22 0.27,0.25 v 0 l 0.25,0.27 0.22,0.29 0.2,0.31 0.17,0.33 0.14,0.36 0.12,0.38 0.09,0.4 0.07,0.42 0.04,0.44 0.01,0.47 z m -6.15,1.88 v 0 l 0.44,-0.03 0.42,-0.07 0.4,-0.11 0.39,-0.17 0.36,-0.21 0.34,-0.25 0.33,-0.31 0.3,-0.35 0.29,-0.39 0.26,-0.45 v -3.44 h -1.96 v 0 l -0.79,0.03 -0.71,0.09 -0.62,0.16 -0.54,0.21 -0.46,0.28 -0.37,0.34 -0.29,0.4 -0.21,0.46 -0.12,0.52 -0.05,0.58 v 0 l 0.01,0.26 0.02,0.25 0.03,0.24 0.05,0.22 0.06,0.21 0.07,0.19 0.08,0.18 0.1,0.17 0.11,0.16 0.13,0.14 v 0 l 0.14,0.13 0.15,0.12 0.16,0.1 0.17,0.09 0.19,0.07 0.2,0.07 0.21,0.04 0.23,0.04 0.23,0.02 z"
         style="fill:#ffffff;fill-rule:evenodd;stroke:none;stroke-width:0.75;stroke-linecap:round;stroke-linejoin:round;stroke-miterlimit:10"
         clip-path="url(#cpMzIuNTgyNnwyMTkuNDE3fDM2MHwyNC42NTU1-2)"
         id="path41-1" />
      <path
         transform="translate(273.47255,-1.270682)"
         inkscape:connector-curvature="0"
         d="m 105.33,143.24 v 0 l 0.51,0.02 0.48,0.07 0.46,0.1 0.43,0.14 0.42,0.19 0.4,0.23 0.37,0.27 0.36,0.31 0.33,0.35 0.31,0.4 v 0 l 0.29,0.43 0.26,0.45 0.22,0.5 0.2,0.52 0.16,0.56 0.14,0.59 0.11,0.63 0.07,0.65 0.05,0.69 0.01,0.73 v 0 l -0.01,0.46 -0.02,0.45 -0.03,0.44 -0.05,0.43 -0.07,0.41 -0.08,0.41 -0.09,0.4 -0.1,0.38 -0.13,0.38 -0.13,0.36 v 0 l -0.15,0.35 -0.16,0.33 -0.17,0.31 -0.19,0.3 -0.2,0.28 -0.21,0.27 -0.22,0.26 -0.24,0.23 -0.25,0.23 -0.26,0.2 v 0 l -0.27,0.19 -0.28,0.16 -0.29,0.15 -0.3,0.12 -0.31,0.11 -0.32,0.09 -0.32,0.06 -0.34,0.05 -0.34,0.03 -0.36,0.01 v 0 l -0.46,-0.02 -0.45,-0.06 -0.44,-0.1 -0.42,-0.14 -0.41,-0.18 -0.39,-0.22 -0.37,-0.26 -0.36,-0.29 -0.35,-0.34 -0.33,-0.38 -0.26,1.65 h -2.3 v -21.03 l 2.61,-0.31 v 8.22 0 l 0.34,-0.42 0.35,-0.38 0.38,-0.33 0.39,-0.29 0.42,-0.24 0.43,-0.2 0.45,-0.16 0.48,-0.11 0.49,-0.07 z m -0.93,13.6 v 0 l 0.33,-0.01 0.33,-0.04 0.31,-0.07 0.29,-0.1 0.28,-0.13 0.26,-0.15 0.25,-0.18 0.23,-0.21 0.22,-0.24 0.2,-0.26 v 0 l 0.19,-0.3 0.17,-0.33 0.15,-0.36 0.13,-0.4 0.1,-0.42 0.09,-0.45 0.07,-0.49 0.05,-0.51 0.03,-0.55 0.01,-0.57 v 0 l -0.01,-0.59 -0.02,-0.56 -0.05,-0.53 -0.06,-0.49 -0.08,-0.45 -0.1,-0.42 -0.12,-0.39 -0.14,-0.35 -0.15,-0.32 -0.18,-0.28 v 0 l -0.19,-0.26 -0.2,-0.24 -0.22,-0.2 -0.24,-0.18 -0.25,-0.15 -0.27,-0.12 -0.28,-0.1 -0.29,-0.07 -0.32,-0.04 -0.33,-0.01 v 0 l -0.39,0.02 -0.38,0.07 -0.38,0.12 -0.36,0.16 -0.36,0.21 -0.34,0.26 -0.34,0.3 -0.32,0.35 -0.32,0.4 -0.31,0.44 v 7.17 0 l 0.13,0.19 0.12,0.17 0.14,0.17 0.13,0.16 0.15,0.15 0.14,0.15 0.16,0.13 0.15,0.13 0.17,0.12 0.17,0.11 v 0 l 0.17,0.1 0.18,0.1 0.18,0.08 0.18,0.07 0.19,0.06 0.18,0.05 0.19,0.03 0.19,0.03 0.19,0.02 z"
         style="fill:#ffffff;fill-rule:evenodd;stroke:none;stroke-width:0.75;stroke-linecap:round;stroke-linejoin:round;stroke-miterlimit:10"
         clip-path="url(#cpMzIuNTgyNnwyMTkuNDE3fDM2MHwyNC42NTU1-2)"
         id="path43-7" />
      <path
         transform="translate(273.47255,-1.270682)"
         inkscape:connector-curvature="0"
         d="m 149.14,99.69 v 0 l 0.27,0.01 0.26,0.01 0.25,0.02 0.25,0.02 0.25,0.04 0.24,0.04 0.24,0.06 0.24,0.06 0.22,0.06 0.23,0.08 v 0 l 0.22,0.08 0.22,0.09 0.22,0.09 0.21,0.11 0.22,0.12 0.21,0.13 0.21,0.13 0.21,0.15 0.21,0.16 0.2,0.16 -1.25,1.65 v 0 l -0.16,-0.11 -0.16,-0.1 -0.16,-0.1 -0.15,-0.09 -0.16,-0.09 -0.16,-0.08 -0.15,-0.07 -0.16,-0.07 -0.15,-0.06 -0.15,-0.05 v 0 l -0.15,-0.06 -0.16,-0.04 -0.15,-0.05 -0.16,-0.03 -0.17,-0.04 -0.16,-0.02 -0.17,-0.02 -0.18,-0.02 h -0.17 l -0.18,-0.01 v 0 l -0.36,0.02 -0.34,0.04 -0.33,0.07 -0.3,0.11 -0.3,0.13 -0.27,0.16 -0.26,0.18 -0.25,0.22 -0.23,0.25 -0.21,0.27 v 0 l -0.19,0.31 -0.17,0.33 -0.15,0.36 -0.13,0.39 -0.11,0.41 -0.09,0.45 -0.07,0.47 -0.05,0.5 -0.03,0.53 -0.01,0.55 v 0 l 0.01,0.56 0.03,0.52 0.05,0.5 0.07,0.46 0.09,0.44 0.11,0.4 0.13,0.38 0.15,0.35 0.17,0.31 0.19,0.29 v 0 l 0.21,0.26 0.22,0.22 0.24,0.2 0.26,0.18 0.28,0.15 0.29,0.12 0.31,0.09 0.33,0.07 0.34,0.04 0.37,0.01 v 0 h 0.17 l 0.17,-0.01 0.17,-0.01 0.17,-0.02 0.16,-0.02 0.16,-0.03 0.16,-0.04 0.16,-0.03 0.15,-0.05 0.15,-0.05 v 0 l 0.15,-0.06 0.15,-0.06 0.16,-0.08 0.16,-0.07 0.16,-0.09 0.17,-0.09 0.17,-0.1 0.17,-0.1 0.18,-0.11 0.18,-0.12 1.19,1.71 v 0 l -0.41,0.31 -0.43,0.28 -0.43,0.25 -0.44,0.21 -0.46,0.19 -0.46,0.14 -0.47,0.12 -0.49,0.08 -0.49,0.05 -0.5,0.02 v 0 l -0.59,-0.02 -0.58,-0.06 -0.54,-0.11 -0.52,-0.14 -0.49,-0.18 -0.47,-0.23 -0.44,-0.27 -0.42,-0.3 -0.39,-0.35 -0.37,-0.39 v 0 l -0.33,-0.43 -0.29,-0.45 -0.26,-0.49 -0.23,-0.52 -0.19,-0.55 -0.16,-0.58 -0.12,-0.61 -0.08,-0.65 -0.06,-0.67 -0.01,-0.71 v 0 l 0.01,-0.47 0.02,-0.46 0.04,-0.45 0.05,-0.44 0.08,-0.42 0.08,-0.41 0.11,-0.41 0.12,-0.38 0.13,-0.38 0.15,-0.36 v 0 l 0.17,-0.36 0.18,-0.33 0.19,-0.32 0.21,-0.3 0.21,-0.29 0.24,-0.27 0.24,-0.25 0.26,-0.24 0.27,-0.23 0.28,-0.2 v 0 l 0.3,-0.19 0.32,-0.17 0.32,-0.15 0.33,-0.13 0.35,-0.11 0.35,-0.09 0.37,-0.07 0.37,-0.05 0.39,-0.03 z"
         style="fill:#000000;fill-rule:evenodd;stroke:none;stroke-width:0.75;stroke-linecap:round;stroke-linejoin:round;stroke-miterlimit:10"
         clip-path="url(#cpMzIuNTgyNnwyMTkuNDE3fDM2MHwyNC42NTU1-2)"
         id="path45-5" />
      <path
         transform="translate(273.47255,-1.270682)"
         inkscape:connector-curvature="0"
         d="m 153.58,137.55 v 21.03 h -2.3 l -0.26,-2.08 v 0 l -0.15,0.22 -0.16,0.22 -0.17,0.2 -0.17,0.19 -0.18,0.19 -0.19,0.17 -0.2,0.17 -0.2,0.15 -0.21,0.15 -0.22,0.13 v 0 l -0.22,0.12 -0.23,0.11 -0.24,0.09 -0.24,0.08 -0.24,0.07 -0.25,0.06 -0.26,0.04 -0.26,0.03 -0.26,0.02 -0.28,0.01 v 0 l -0.52,-0.02 -0.5,-0.06 -0.48,-0.11 -0.45,-0.15 -0.43,-0.19 -0.41,-0.23 -0.38,-0.27 -0.36,-0.32 -0.33,-0.36 -0.32,-0.4 v 0 l -0.28,-0.43 -0.25,-0.47 -0.22,-0.49 -0.2,-0.52 -0.16,-0.55 -0.13,-0.58 -0.1,-0.61 -0.08,-0.64 -0.04,-0.67 -0.02,-0.7 v 0 l 0.01,-0.45 0.02,-0.45 0.04,-0.43 0.05,-0.43 0.06,-0.41 0.08,-0.41 0.09,-0.39 0.11,-0.39 0.12,-0.37 0.13,-0.36 v 0 l 0.15,-0.36 0.16,-0.33 0.18,-0.32 0.18,-0.3 0.2,-0.29 0.21,-0.27 0.23,-0.25 0.23,-0.24 0.25,-0.23 0.26,-0.2 v 0 l 0.27,-0.2 0.29,-0.17 0.29,-0.16 0.29,-0.13 0.31,-0.11 0.32,-0.09 0.33,-0.08 0.33,-0.05 0.35,-0.03 0.35,-0.01 v 0 l 0.46,0.02 0.44,0.06 0.43,0.09 0.42,0.13 0.41,0.16 0.4,0.21 0.39,0.24 0.38,0.28 0.36,0.31 0.35,0.35 v -7.85 z m -6.32,19.29 v 0 h 0.24 l 0.23,-0.02 0.22,-0.03 0.21,-0.03 0.21,-0.05 0.2,-0.06 0.2,-0.07 0.19,-0.08 0.18,-0.1 0.17,-0.1 v 0 l 0.17,-0.12 0.17,-0.13 0.17,-0.14 0.17,-0.15 0.16,-0.16 0.17,-0.18 0.16,-0.18 0.16,-0.19 0.16,-0.21 0.16,-0.22 v -7.34 0 l -0.15,-0.19 -0.15,-0.17 -0.15,-0.17 -0.16,-0.16 -0.16,-0.15 -0.16,-0.14 -0.16,-0.13 -0.16,-0.13 -0.17,-0.11 -0.17,-0.1 v 0 l -0.17,-0.1 -0.17,-0.08 -0.18,-0.08 -0.18,-0.07 -0.18,-0.05 -0.19,-0.05 -0.2,-0.03 -0.2,-0.03 -0.2,-0.02 h -0.21 v 0 l -0.34,0.01 -0.32,0.05 -0.31,0.07 -0.29,0.1 -0.28,0.13 -0.27,0.16 -0.24,0.19 -0.23,0.22 -0.22,0.24 -0.2,0.28 v 0 l -0.18,0.31 -0.16,0.33 -0.14,0.36 -0.12,0.39 -0.11,0.42 -0.08,0.44 -0.07,0.48 -0.04,0.5 -0.03,0.53 -0.01,0.57 v 0 l 0.01,0.56 0.02,0.54 0.05,0.5 0.06,0.48 0.08,0.45 0.1,0.42 0.11,0.38 0.13,0.36 0.15,0.33 0.17,0.3 v 0 l 0.19,0.27 0.19,0.24 0.22,0.22 0.23,0.18 0.25,0.16 0.26,0.13 0.27,0.09 0.29,0.08 0.31,0.04 z"
         style="fill:#000000;fill-rule:evenodd;stroke:none;stroke-width:0.75;stroke-linecap:round;stroke-linejoin:round;stroke-miterlimit:10"
         clip-path="url(#cpMzIuNTgyNnwyMTkuNDE3fDM2MHwyNC42NTU1-2)"
         id="path47-8" />
      <path
         transform="translate(273.47255,-1.270682)"
         inkscape:connector-curvature="0"
         d="m 56.35,58.56 v 9 h -1.57 v -9 z m -0.8,-4.32 v 0 h 0.1 l 0.09,0.01 0.09,0.02 0.09,0.02 0.08,0.03 0.08,0.03 0.07,0.04 0.07,0.05 0.07,0.05 0.06,0.06 v 0 l 0.06,0.06 0.05,0.07 0.05,0.06 0.04,0.08 0.03,0.07 0.03,0.08 0.02,0.08 0.02,0.09 0.01,0.08 v 0.09 0 0.1 l -0.01,0.08 -0.02,0.09 -0.02,0.08 -0.03,0.08 -0.03,0.07 -0.04,0.07 -0.05,0.07 -0.05,0.07 -0.06,0.06 v 0 l -0.06,0.06 -0.07,0.05 -0.07,0.04 -0.07,0.04 -0.08,0.03 -0.08,0.03 -0.09,0.02 -0.09,0.01 -0.09,0.01 h -0.1 v 0 H 55.46 L 55.37,56.36 55.28,56.35 55.2,56.33 55.12,56.3 55.04,56.27 54.97,56.23 54.9,56.19 54.83,56.14 54.77,56.08 v 0 l -0.06,-0.06 -0.05,-0.07 -0.05,-0.07 -0.04,-0.07 -0.03,-0.07 -0.03,-0.08 -0.02,-0.08 -0.02,-0.09 -0.01,-0.08 v -0.1 0 -0.09 l 0.01,-0.08 0.02,-0.09 0.02,-0.08 0.03,-0.08 0.03,-0.07 0.04,-0.08 0.05,-0.06 0.05,-0.07 0.06,-0.06 v 0 l 0.06,-0.06 0.07,-0.05 0.07,-0.05 0.07,-0.04 0.08,-0.03 0.08,-0.03 0.08,-0.02 0.09,-0.02 0.09,-0.01 z"
         style="fill:#000000;fill-rule:evenodd;stroke:none;stroke-width:0.75;stroke-linecap:round;stroke-linejoin:round;stroke-miterlimit:10"
         clip-path="url(#cpMzIuNTgyNnwyMTkuNDE3fDM2MHwyNC42NTU1-2)"
         id="path59-0" />
      <path
         transform="translate(273.47255,-1.270682)"
         inkscape:connector-curvature="0"
         d="m 66.56,54.94 v 12.62 h -1.38 l -0.15,-1.25 v 0 l -0.09,0.13 -0.1,0.13 -0.1,0.12 -0.1,0.12 -0.11,0.11 -0.12,0.1 -0.11,0.1 -0.13,0.1 -0.12,0.08 -0.13,0.08 v 0 l -0.14,0.08 -0.14,0.06 -0.14,0.06 -0.14,0.04 -0.15,0.05 -0.15,0.03 -0.15,0.03 -0.16,0.02 -0.16,0.01 h -0.16 v 0 L 62.12,67.75 61.82,67.71 61.53,67.65 61.26,67.56 61,67.44 60.76,67.31 60.53,67.14 60.31,66.95 60.11,66.74 59.92,66.5 v 0 L 59.75,66.24 59.6,65.96 59.47,65.66 59.35,65.35 59.26,65.02 59.18,64.67 59.11,64.3 59.07,63.92 59.04,63.52 59.03,63.1 v 0 l 0.01,-0.27 0.01,-0.27 0.02,-0.26 0.03,-0.26 0.04,-0.25 0.05,-0.24 0.05,-0.24 0.07,-0.23 0.07,-0.22 0.08,-0.22 v 0 l 0.09,-0.21 0.1,-0.2 0.1,-0.19 0.11,-0.18 0.12,-0.17 0.13,-0.17 0.13,-0.15 0.14,-0.14 0.15,-0.14 0.16,-0.12 v 0 l 0.16,-0.12 0.17,-0.1 0.18,-0.1 0.18,-0.08 0.18,-0.06 0.19,-0.06 0.2,-0.04 0.2,-0.03 0.21,-0.02 0.21,-0.01 v 0 l 0.27,0.01 0.27,0.04 0.26,0.05 0.25,0.08 0.25,0.1 0.23,0.12 0.24,0.15 0.22,0.16 0.22,0.19 0.21,0.21 v -4.71 z m -3.79,11.57 v 0 h 0.14 l 0.14,-0.01 0.13,-0.02 0.13,-0.02 0.13,-0.03 0.12,-0.03 0.12,-0.05 0.11,-0.04 0.11,-0.06 0.1,-0.06 v 0 l 0.1,-0.07 0.11,-0.08 0.1,-0.08 0.1,-0.1 0.1,-0.09 0.09,-0.11 0.1,-0.11 0.1,-0.11 0.1,-0.13 0.09,-0.13 v -4.4 0 l -0.09,-0.12 -0.09,-0.1 -0.09,-0.1 -0.09,-0.1 -0.1,-0.09 -0.09,-0.08 -0.1,-0.08 -0.1,-0.08 -0.1,-0.06 -0.1,-0.06 v 0 l -0.1,-0.06 -0.11,-0.05 -0.1,-0.05 -0.11,-0.04 -0.11,-0.03 -0.12,-0.03 -0.11,-0.02 -0.12,-0.02 -0.13,-0.01 h -0.12 v 0 l -0.2,0.01 -0.2,0.02 -0.18,0.05 -0.18,0.06 -0.17,0.08 -0.15,0.09 -0.15,0.12 -0.14,0.13 -0.13,0.15 -0.12,0.16 v 0 l -0.11,0.18 -0.1,0.2 -0.08,0.22 -0.07,0.23 -0.06,0.25 -0.06,0.27 -0.03,0.29 -0.03,0.3 -0.02,0.32 -0.01,0.34 v 0 l 0.01,0.33 0.02,0.33 0.02,0.3 0.04,0.29 0.05,0.26 0.05,0.26 0.07,0.23 0.08,0.21 0.09,0.2 0.1,0.18 v 0 l 0.11,0.16 0.12,0.15 0.13,0.13 0.14,0.11 0.15,0.09 0.15,0.08 0.17,0.06 0.18,0.04 0.18,0.03 z"
         style="fill:#000000;fill-rule:evenodd;stroke:none;stroke-width:0.75;stroke-linecap:round;stroke-linejoin:round;stroke-miterlimit:10"
         clip-path="url(#cpMzIuNTgyNnwyMTkuNDE3fDM2MHwyNC42NTU1-2)"
         id="path61-2" />
      <text
         xml:space="preserve"
         style="font-style:normal;font-weight:normal;font-size:40px;line-height:1.25;font-family:sans-serif;letter-spacing:0px;word-spacing:0px;fill:#000000;fill-opacity:1;stroke:none"
         x="358.51788"
         y="65.744499"
         id="text1444-3"><tspan
           sodipodi:role="line"
           id="tspan1442-2"
           x="358.51788"
           y="65.744499"
           style="font-style:normal;font-variant:normal;font-weight:normal;font-stretch:normal;font-size:16px;font-family:sans-serif;-inkscape-font-specification:'sans-serif, Normal';font-variant-ligatures:normal;font-variant-caps:normal;font-variant-numeric:normal;font-feature-settings:normal;text-align:start;writing-mode:lr-tb;text-anchor:start">col1</tspan></text>
      <text
         xml:space="preserve"
         style="font-style:normal;font-weight:normal;font-size:40px;line-height:1.25;font-family:sans-serif;letter-spacing:0px;word-spacing:0px;fill:#000000;fill-opacity:1;stroke:none"
         x="402.46704"
         y="66.795349"
         id="text1444-1"><tspan
           sodipodi:role="line"
           id="tspan1442-8"
           x="402.46704"
           y="66.795349"
           style="font-style:normal;font-variant:normal;font-weight:normal;font-stretch:normal;font-size:16px;font-family:sans-serif;-inkscape-font-specification:'sans-serif, Normal';font-variant-ligatures:normal;font-variant-caps:normal;font-variant-numeric:normal;font-feature-settings:normal;text-align:start;writing-mode:lr-tb;text-anchor:start">col2</tspan></text>
    </g>
    <text
       xml:space="preserve"
       style="font-style:normal;font-weight:normal;font-size:40px;line-height:1.25;font-family:sans-serif;letter-spacing:0px;word-spacing:0px;fill:#000000;fill-opacity:1;stroke:none"
       x="32.796612"
       y="24.990158"
       id="text1622"><tspan
         sodipodi:role="line"
         id="tspan1620"
         x="32.796612"
         y="24.990158"
         style="font-style:normal;font-variant:normal;font-weight:normal;font-stretch:normal;font-size:21.33333397px;font-family:sans-serif;-inkscape-font-specification:'sans-serif, Normal';font-variant-ligatures:normal;font-variant-caps:normal;font-variant-numeric:normal;font-feature-settings:normal;text-align:start;writing-mode:lr-tb;text-anchor:start">df1</tspan></text>
    <text
       xml:space="preserve"
       style="font-style:normal;font-weight:normal;font-size:40px;line-height:1.25;font-family:sans-serif;letter-spacing:0px;word-spacing:0px;fill:#000000;fill-opacity:1;stroke:none"
       x="253.85124"
       y="24.553461"
       id="text1622-7"><tspan
         sodipodi:role="line"
         id="tspan1620-5"
         x="253.85124"
         y="24.553461"
         style="font-style:normal;font-variant:normal;font-weight:normal;font-stretch:normal;font-size:21.33333397px;font-family:sans-serif;-inkscape-font-specification:'sans-serif, Normal';font-variant-ligatures:normal;font-variant-caps:normal;font-variant-numeric:normal;font-feature-settings:normal;text-align:start;writing-mode:lr-tb;text-anchor:start">df2</tspan></text>
  </g>
</svg>
