<?xml version="1.0" encoding="UTF-8" standalone="no"?>
<svg
   xmlns:dc="http://purl.org/dc/elements/1.1/"
   xmlns:cc="http://creativecommons.org/ns#"
   xmlns:rdf="http://www.w3.org/1999/02/22-rdf-syntax-ns#"
   xmlns:svg="http://www.w3.org/2000/svg"
   xmlns="http://www.w3.org/2000/svg"
   xmlns:sodipodi="http://sodipodi.sourceforge.net/DTD/sodipodi-0.dtd"
   xmlns:inkscape="http://www.inkscape.org/namespaces/inkscape"
   viewBox="0 0 504.00 360.00"
   version="1.1"
   id="svg189"
   sodipodi:docname="tidyr_static_complete_fill.svg"
   inkscape:version="0.92.3 (2405546, 2018-03-11)">
  <metadata
     id="metadata193">
    <rdf:RDF>
      <cc:Work
         rdf:about="">
        <dc:format>image/svg+xml</dc:format>
        <dc:type
           rdf:resource="http://purl.org/dc/dcmitype/StillImage" />
        <dc:title></dc:title>
      </cc:Work>
    </rdf:RDF>
  </metadata>
  <sodipodi:namedview
     pagecolor="#ffffff"
     bordercolor="#666666"
     borderopacity="1"
     objecttolerance="10"
     gridtolerance="10"
     guidetolerance="10"
     inkscape:pageopacity="0"
     inkscape:pageshadow="2"
     inkscape:window-width="1600"
     inkscape:window-height="837"
     id="namedview191"
     showgrid="false"
     inkscape:zoom="0.92709555"
     inkscape:cx="85.445799"
     inkscape:cy="172.80094"
     inkscape:window-x="-8"
     inkscape:window-y="62"
     inkscape:window-maximized="1"
     inkscape:current-layer="svg189" />
  <defs
     id="defs4">
    <marker
       inkscape:stockid="Arrow1Lend"
       orient="auto"
       refY="0.0"
       refX="0.0"
       id="marker1286"
       style="overflow:visible;"
       inkscape:isstock="true">
      <path
         id="path1284"
         d="M 0.0,0.0 L 5.0,-5.0 L -12.5,0.0 L 5.0,5.0 L 0.0,0.0 z "
         style="fill-rule:evenodd;stroke:#000000;stroke-width:1pt;stroke-opacity:1;fill:#000000;fill-opacity:1"
         transform="scale(0.8) rotate(180) translate(12.5,0)" />
    </marker>
    <marker
       inkscape:stockid="Arrow1Lend"
       orient="auto"
       refY="0.0"
       refX="0.0"
       id="Arrow1Lend"
       style="overflow:visible;"
       inkscape:isstock="true">
      <path
         id="path1005"
         d="M 0.0,0.0 L 5.0,-5.0 L -12.5,0.0 L 5.0,5.0 L 0.0,0.0 z "
         style="fill-rule:evenodd;stroke:#000000;stroke-width:1pt;stroke-opacity:1"
         transform="scale(0.8) rotate(180) translate(12.5,0)" />
    </marker>
    <style
       type="text/css"
       id="style2"><![CDATA[
    line, polyline, path, rect, circle {
      fill: none;
      stroke: #000000;
      stroke-linecap: round;
      stroke-linejoin: round;
      stroke-miterlimit: 10.00;
    }
  ]]></style>
    <clipPath
       id="cpMzA3LjUyOXw0NDguNDcxfDM2MHwyNC42NTU1-8">
      <rect
         x="307.53"
         y="24.66"
         width="140.94"
         height="335.34"
         id="rect76-2" />
    </clipPath>
    <clipPath
       id="clipPath1084">
      <rect
         x="307.53"
         y="24.66"
         width="140.94"
         height="335.34"
         id="rect1082" />
    </clipPath>
    <clipPath
       id="clipPath1088">
      <rect
         x="307.53"
         y="24.66"
         width="140.94"
         height="335.34"
         id="rect1086" />
    </clipPath>
    <clipPath
       id="clipPath1092">
      <rect
         x="307.53"
         y="24.66"
         width="140.94"
         height="335.34"
         id="rect1090" />
    </clipPath>
    <clipPath
       id="clipPath1096">
      <rect
         x="307.53"
         y="24.66"
         width="140.94"
         height="335.34"
         id="rect1094" />
    </clipPath>
    <clipPath
       id="clipPath1100">
      <rect
         x="307.53"
         y="24.66"
         width="140.94"
         height="335.34"
         id="rect1098" />
    </clipPath>
    <clipPath
       id="clipPath1104">
      <rect
         x="307.53"
         y="24.66"
         width="140.94"
         height="335.34"
         id="rect1102" />
    </clipPath>
    <clipPath
       id="clipPath1108">
      <rect
         x="307.53"
         y="24.66"
         width="140.94"
         height="335.34"
         id="rect1106" />
    </clipPath>
    <clipPath
       id="clipPath1112">
      <rect
         x="307.53"
         y="24.66"
         width="140.94"
         height="335.34"
         id="rect1110" />
    </clipPath>
    <clipPath
       id="clipPath1116">
      <rect
         x="307.53"
         y="24.66"
         width="140.94"
         height="335.34"
         id="rect1114" />
    </clipPath>
    <clipPath
       id="clipPath1120">
      <rect
         x="307.53"
         y="24.66"
         width="140.94"
         height="335.34"
         id="rect1118" />
    </clipPath>
    <clipPath
       id="clipPath1124">
      <rect
         x="307.53"
         y="24.66"
         width="140.94"
         height="335.34"
         id="rect1122" />
    </clipPath>
    <clipPath
       id="clipPath1128">
      <rect
         x="307.53"
         y="24.66"
         width="140.94"
         height="335.34"
         id="rect1126" />
    </clipPath>
    <clipPath
       id="clipPath1132">
      <rect
         x="307.53"
         y="24.66"
         width="140.94"
         height="335.34"
         id="rect1130" />
    </clipPath>
    <clipPath
       id="clipPath1136">
      <rect
         x="307.53"
         y="24.66"
         width="140.94"
         height="335.34"
         id="rect1134" />
    </clipPath>
    <clipPath
       id="clipPath1140">
      <rect
         x="307.53"
         y="24.66"
         width="140.94"
         height="335.34"
         id="rect1138" />
    </clipPath>
    <clipPath
       id="clipPath1144">
      <rect
         x="307.53"
         y="24.66"
         width="140.94"
         height="335.34"
         id="rect1142" />
    </clipPath>
    <clipPath
       id="clipPath1148">
      <rect
         x="307.53"
         y="24.66"
         width="140.94"
         height="335.34"
         id="rect1146" />
    </clipPath>
    <clipPath
       id="clipPath1152">
      <rect
         x="307.53"
         y="24.66"
         width="140.94"
         height="335.34"
         id="rect1150" />
    </clipPath>
    <clipPath
       id="clipPath1156">
      <rect
         x="307.53"
         y="24.66"
         width="140.94"
         height="335.34"
         id="rect1154" />
    </clipPath>
    <clipPath
       id="clipPath1160">
      <rect
         x="307.53"
         y="24.66"
         width="140.94"
         height="335.34"
         id="rect1158" />
    </clipPath>
    <clipPath
       id="clipPath1164">
      <rect
         x="307.53"
         y="24.66"
         width="140.94"
         height="335.34"
         id="rect1162" />
    </clipPath>
    <clipPath
       id="clipPath1168">
      <rect
         x="307.53"
         y="24.66"
         width="140.94"
         height="335.34"
         id="rect1166" />
    </clipPath>
    <clipPath
       id="clipPath1172">
      <rect
         x="307.53"
         y="24.66"
         width="140.94"
         height="335.34"
         id="rect1170" />
    </clipPath>
    <clipPath
       id="clipPath1176">
      <rect
         x="307.53"
         y="24.66"
         width="140.94"
         height="335.34"
         id="rect1174" />
    </clipPath>
    <clipPath
       id="clipPath1180">
      <rect
         x="307.53"
         y="24.66"
         width="140.94"
         height="335.34"
         id="rect1178" />
    </clipPath>
    <clipPath
       id="clipPath1184">
      <rect
         x="307.53"
         y="24.66"
         width="140.94"
         height="335.34"
         id="rect1182" />
    </clipPath>
    <clipPath
       id="clipPath1188">
      <rect
         x="307.53"
         y="24.66"
         width="140.94"
         height="335.34"
         id="rect1186" />
    </clipPath>
    <clipPath
       id="clipPath1192">
      <rect
         x="307.53"
         y="24.66"
         width="140.94"
         height="335.34"
         id="rect1190" />
    </clipPath>
    <clipPath
       id="clipPath1196">
      <rect
         x="307.53"
         y="24.66"
         width="140.94"
         height="335.34"
         id="rect1194" />
    </clipPath>
    <clipPath
       id="clipPath1200">
      <rect
         x="307.53"
         y="24.66"
         width="140.94"
         height="335.34"
         id="rect1198" />
    </clipPath>
    <clipPath
       id="clipPath1204">
      <rect
         x="307.53"
         y="24.66"
         width="140.94"
         height="335.34"
         id="rect1202" />
    </clipPath>
    <clipPath
       id="clipPath1208">
      <rect
         x="307.53"
         y="24.66"
         width="140.94"
         height="335.34"
         id="rect1206" />
    </clipPath>
    <clipPath
       id="clipPath1212">
      <rect
         x="307.53"
         y="24.66"
         width="140.94"
         height="335.34"
         id="rect1210" />
    </clipPath>
    <clipPath
       id="clipPath1216">
      <rect
         x="307.53"
         y="24.66"
         width="140.94"
         height="335.34"
         id="rect1214" />
    </clipPath>
    <clipPath
       id="clipPath1220">
      <rect
         x="307.53"
         y="24.66"
         width="140.94"
         height="335.34"
         id="rect1218" />
    </clipPath>
    <clipPath
       id="clipPath1224">
      <rect
         x="307.53"
         y="24.66"
         width="140.94"
         height="335.34"
         id="rect1222" />
    </clipPath>
    <clipPath
       id="clipPath1228">
      <rect
         x="307.53"
         y="24.66"
         width="140.94"
         height="335.34"
         id="rect1226" />
    </clipPath>
    <clipPath
       id="clipPath1232">
      <rect
         x="307.53"
         y="24.66"
         width="140.94"
         height="335.34"
         id="rect1230" />
    </clipPath>
    <clipPath
       id="clipPath1236">
      <rect
         x="307.53"
         y="24.66"
         width="140.94"
         height="335.34"
         id="rect1234" />
    </clipPath>
    <clipPath
       id="clipPath1240">
      <rect
         x="307.53"
         y="24.66"
         width="140.94"
         height="335.34"
         id="rect1238" />
    </clipPath>
  </defs>
  <defs
     id="defs11">
    <clipPath
       id="cpMzIuNTgyNnwyMTkuNDE3fDM2MHwyNC42NTU1">
      <rect
         x="32.58"
         y="24.66"
         width="186.83"
         height="335.34"
         id="rect8" />
    </clipPath>
  </defs>
  <defs
     id="defs66">
    <clipPath
       id="cpMHw1MDR8MzYwfDA=">
      <rect
         x="0.00"
         y="0.00"
         width="504.00"
         height="360.00"
         id="rect63" />
    </clipPath>
  </defs>
  <defs
     id="defs79">
    <clipPath
       id="cpMzA3LjUyOXw0NDguNDcxfDM2MHwyNC42NTU1">
      <rect
         x="307.53"
         y="24.66"
         width="140.94"
         height="335.34"
         id="rect76" />
    </clipPath>
  </defs>
  <defs
     id="defs179">
    <clipPath
       id="clipPath177">
      <rect
         x="0.00"
         y="0.00"
         width="504.00"
         height="360.00"
         id="rect175" />
    </clipPath>
  </defs>
  <g
     id="g1929">
    <rect
       id="rect6"
       style="fill:#ffffff;stroke:none;stroke-linecap:round;stroke-linejoin:round;stroke-miterlimit:10"
       height="100%"
       width="100%"
       x="0"
       y="0" />
    <rect
       id="rect117"
       clip-path="url(#cpMzA3LjUyOXw0NDguNDcxfDM2MHwyNC42NTU1)"
       style="fill:#ffffff;stroke:none;stroke-width:0.20999999;stroke-linecap:butt;stroke-linejoin:round;stroke-miterlimit:10"
       height="39.759998"
       width="39.759998"
       y="39.900002"
       x="313.94" />
    <rect
       id="rect119"
       clip-path="url(#cpMzA3LjUyOXw0NDguNDcxfDM2MHwyNC42NTU1)"
       style="fill:#ffffff;stroke:none;stroke-width:0.20999999;stroke-linecap:butt;stroke-linejoin:round;stroke-miterlimit:10"
       height="39.759998"
       width="39.759998"
       y="39.900002"
       x="358.12" />
    <rect
       id="rect121"
       clip-path="url(#cpMzA3LjUyOXw0NDguNDcxfDM2MHwyNC42NTU1)"
       style="fill:#ffffff;stroke:none;stroke-width:0.20999999;stroke-linecap:butt;stroke-linejoin:round;stroke-miterlimit:10"
       height="39.759998"
       width="39.759998"
       y="39.900002"
       x="402.29999" />
    <path
       inkscape:connector-curvature="0"
       id="path1000"
       d="m 218.17575,124.83 83.47679,-1.27068"
       style="fill:#000000;fill-opacity:1;stroke:#000000;stroke-width:2;stroke-linecap:butt;stroke-linejoin:miter;stroke-miterlimit:10;stroke-dasharray:none;stroke-opacity:1;marker-end:url(#marker1286)" />
    <rect
       id="rect81"
       clip-path="url(#cpMzA3LjUyOXw0NDguNDcxfDM2MHwyNC42NTU1)"
       style="fill:#e41a1c;stroke:none;stroke-width:0.20999999;stroke-linecap:butt;stroke-linejoin:round;stroke-miterlimit:10"
       height="39.759998"
       width="39.759998"
       y="84.080002"
       x="313.94" />
    <rect
       id="rect83"
       clip-path="url(#cpMzA3LjUyOXw0NDguNDcxfDM2MHwyNC42NTU1)"
       style="fill:#377eb8;stroke:none;stroke-width:0.20999999;stroke-linecap:butt;stroke-linejoin:round;stroke-miterlimit:10"
       height="39.759998"
       width="39.759998"
       y="128.25999"
       x="313.94" />
    <rect
       id="rect85"
       clip-path="url(#cpMzA3LjUyOXw0NDguNDcxfDM2MHwyNC42NTU1)"
       style="fill:#e41a1c;stroke:none;stroke-width:0.20999999;stroke-linecap:butt;stroke-linejoin:round;stroke-miterlimit:10"
       height="39.759998"
       width="39.759998"
       y="172.45"
       x="313.94" />
    <rect
       id="rect87"
       clip-path="url(#cpMzA3LjUyOXw0NDguNDcxfDM2MHwyNC42NTU1)"
       style="fill:#377eb8;stroke:none;stroke-width:0.20999999;stroke-linecap:butt;stroke-linejoin:round;stroke-miterlimit:10"
       height="39.759998"
       width="39.759998"
       y="216.63"
       x="313.94" />
    <rect
       id="rect89"
       clip-path="url(#cpMzA3LjUyOXw0NDguNDcxfDM2MHwyNC42NTU1)"
       style="fill:#e41a1c;stroke:none;stroke-width:0.20999999;stroke-linecap:butt;stroke-linejoin:round;stroke-miterlimit:10"
       height="39.759998"
       width="39.759998"
       y="260.81"
       x="313.94" />
    <rect
       id="rect91"
       clip-path="url(#cpMzA3LjUyOXw0NDguNDcxfDM2MHwyNC42NTU1)"
       style="fill:#377eb8;stroke:none;stroke-width:0.20999999;stroke-linecap:butt;stroke-linejoin:round;stroke-miterlimit:10"
       height="39.759998"
       width="39.759998"
       y="304.98999"
       x="313.94" />
    <rect
       id="rect93"
       clip-path="url(#cpMzA3LjUyOXw0NDguNDcxfDM2MHwyNC42NTU1)"
       style="fill:#4daf4a;stroke:none;stroke-width:0.20999999;stroke-linecap:butt;stroke-linejoin:round;stroke-miterlimit:10"
       height="39.759998"
       width="39.759998"
       y="84.080002"
       x="358.12" />
    <rect
       id="rect95"
       clip-path="url(#cpMzA3LjUyOXw0NDguNDcxfDM2MHwyNC42NTU1)"
       style="fill:#4daf4a;stroke:none;stroke-width:0.20999999;stroke-linecap:butt;stroke-linejoin:round;stroke-miterlimit:10"
       height="39.759998"
       width="39.759998"
       y="128.25999"
       x="358.12" />
    <rect
       id="rect97"
       clip-path="url(#cpMzA3LjUyOXw0NDguNDcxfDM2MHwyNC42NTU1)"
       style="fill:#984ea3;stroke:none;stroke-width:0.20999999;stroke-linecap:butt;stroke-linejoin:round;stroke-miterlimit:10"
       height="39.759998"
       width="39.759998"
       y="172.45"
       x="358.12" />
    <rect
       id="rect99"
       clip-path="url(#cpMzA3LjUyOXw0NDguNDcxfDM2MHwyNC42NTU1)"
       style="fill:#984ea3;stroke:none;stroke-width:0.20999999;stroke-linecap:butt;stroke-linejoin:round;stroke-miterlimit:10"
       height="39.759998"
       width="39.759998"
       y="216.63"
       x="358.12" />
    <rect
       id="rect101"
       clip-path="url(#cpMzA3LjUyOXw0NDguNDcxfDM2MHwyNC42NTU1)"
       style="fill:#ff7f00;stroke:none;stroke-width:0.20999999;stroke-linecap:butt;stroke-linejoin:round;stroke-miterlimit:10"
       height="39.759998"
       width="39.759998"
       y="260.81"
       x="358.12" />
    <rect
       id="rect103"
       clip-path="url(#cpMzA3LjUyOXw0NDguNDcxfDM2MHwyNC42NTU1)"
       style="fill:#ff7f00;stroke:none;stroke-width:0.20999999;stroke-linecap:butt;stroke-linejoin:round;stroke-miterlimit:10"
       height="39.759998"
       width="39.759998"
       y="304.98999"
       x="358.12" />
    <rect
       id="rect105"
       clip-path="url(#cpMzA3LjUyOXw0NDguNDcxfDM2MHwyNC42NTU1)"
       style="fill:#4daf4a;fill-opacity:0.6;stroke:none;stroke-width:0.20999999;stroke-linecap:butt;stroke-linejoin:round;stroke-miterlimit:10"
       height="39.759998"
       width="39.759998"
       y="84.080002"
       x="402.29999" />
    <rect
       id="rect107"
       clip-path="url(#cpMzA3LjUyOXw0NDguNDcxfDM2MHwyNC42NTU1)"
       style="fill:#4daf4a;fill-opacity:0.6;stroke:none;stroke-width:0.20999999;stroke-linecap:butt;stroke-linejoin:round;stroke-miterlimit:10"
       height="39.759998"
       width="39.759998"
       y="128.25999"
       x="402.29999" />
    <rect
       id="rect109"
       clip-path="url(#cpMzA3LjUyOXw0NDguNDcxfDM2MHwyNC42NTU1)"
       style="fill:#984ea3;fill-opacity:0.6;stroke:none;stroke-width:0.20999999;stroke-linecap:butt;stroke-linejoin:round;stroke-miterlimit:10"
       height="39.759998"
       width="39.759998"
       y="172.45"
       x="402.29999" />
    <rect
       id="rect111"
       clip-path="url(#cpMzA3LjUyOXw0NDguNDcxfDM2MHwyNC42NTU1)"
       style="fill:#984ea3;fill-opacity:0.6;stroke:none;stroke-width:0.20999999;stroke-linecap:butt;stroke-linejoin:round;stroke-miterlimit:10"
       height="39.759998"
       width="39.759998"
       y="216.63"
       x="402.29999" />
    <rect
       id="rect113"
       clip-path="url(#cpMzA3LjUyOXw0NDguNDcxfDM2MHwyNC42NTU1)"
       style="fill:#ff7f00;fill-opacity:0.6;stroke:none;stroke-width:0.20999999;stroke-linecap:butt;stroke-linejoin:round;stroke-miterlimit:10"
       height="39.759998"
       width="39.759998"
       y="260.81"
       x="402.29999" />
    <rect
       id="rect115"
       clip-path="url(#cpMzA3LjUyOXw0NDguNDcxfDM2MHwyNC42NTU1)"
       style="fill:#ff7f00;fill-opacity:0.6;stroke:none;stroke-width:0.20999999;stroke-linecap:butt;stroke-linejoin:round;stroke-miterlimit:10"
       height="39.759998"
       width="39.759998"
       y="304.98999"
       x="402.29999" />
    <path
       id="path123"
       clip-path="url(#cpMzA3LjUyOXw0NDguNDcxfDM2MHwyNC42NTU1)"
       style="fill:#ffffff;fill-rule:evenodd;stroke:none;stroke-width:0.75;stroke-linecap:round;stroke-linejoin:round;stroke-miterlimit:10"
       d="m 336.85,94.73 v 19.03 h -2.62 V 97.52 l -4.44,2.7 -1.14,-1.85 5.89,-3.64 z"
       inkscape:connector-curvature="0" />
    <path
       id="path125"
       clip-path="url(#cpMzA3LjUyOXw0NDguNDcxfDM2MHwyNC42NTU1)"
       style="fill:#ffffff;fill-rule:evenodd;stroke:none;stroke-width:0.75;stroke-linecap:round;stroke-linejoin:round;stroke-miterlimit:10"
       d="m 333.26,138.63 v 0 h 0.34 l 0.33,0.03 0.32,0.03 0.31,0.05 0.3,0.06 0.3,0.07 0.28,0.09 0.28,0.1 0.27,0.12 0.26,0.13 v 0 l 0.26,0.14 0.24,0.15 0.23,0.17 0.22,0.17 0.21,0.18 0.2,0.19 0.18,0.21 0.17,0.21 0.16,0.22 0.15,0.24 v 0 l 0.14,0.24 0.12,0.24 0.1,0.25 0.1,0.25 0.07,0.26 0.07,0.27 0.05,0.28 0.03,0.28 0.02,0.28 0.01,0.29 v 0 l -0.01,0.35 -0.02,0.34 -0.04,0.34 -0.06,0.34 -0.07,0.33 -0.09,0.34 -0.1,0.32 -0.12,0.33 -0.13,0.32 -0.15,0.32 v 0 l -0.17,0.32 -0.18,0.33 -0.19,0.33 -0.22,0.34 -0.23,0.34 -0.24,0.35 -0.27,0.35 -0.28,0.36 -0.3,0.36 -0.31,0.37 v 0 l -0.35,0.38 -0.37,0.41 -0.41,0.45 -0.44,0.47 -0.48,0.5 -0.51,0.53 -0.54,0.56 -0.57,0.58 -0.61,0.62 -0.65,0.65 h 8.57 l -0.32,2.19 h -11.23 v -2.08 0 l 0.74,-0.77 0.69,-0.73 0.65,-0.68 0.61,-0.64 0.56,-0.6 0.52,-0.56 0.48,-0.51 0.43,-0.47 0.38,-0.43 0.34,-0.39 v 0 l 0.31,-0.36 0.29,-0.36 0.28,-0.34 0.25,-0.34 0.24,-0.32 0.22,-0.32 0.2,-0.31 0.18,-0.3 0.16,-0.28 0.15,-0.28 v 0 l 0.13,-0.28 0.11,-0.28 0.11,-0.28 0.08,-0.29 0.08,-0.29 0.06,-0.29 0.05,-0.3 0.03,-0.3 0.02,-0.31 0.01,-0.31 v 0 l -0.01,-0.29 -0.02,-0.28 -0.05,-0.26 -0.06,-0.25 -0.07,-0.24 -0.1,-0.22 -0.11,-0.21 -0.13,-0.2 -0.14,-0.18 -0.16,-0.18 v 0 l -0.18,-0.16 -0.19,-0.14 -0.2,-0.13 -0.21,-0.11 -0.22,-0.1 -0.23,-0.07 -0.25,-0.06 -0.25,-0.05 -0.27,-0.02 -0.28,-0.01 v 0 l -0.23,0.01 -0.22,0.01 -0.22,0.02 -0.22,0.04 -0.2,0.04 -0.21,0.05 -0.19,0.07 -0.19,0.07 -0.19,0.08 -0.18,0.09 v 0 l -0.18,0.11 -0.18,0.11 -0.18,0.13 -0.18,0.14 -0.19,0.15 -0.19,0.17 -0.19,0.18 -0.19,0.19 -0.2,0.2 -0.2,0.22 -1.7,-1.37 v 0 l 0.23,-0.28 0.24,-0.27 0.25,-0.25 0.25,-0.24 0.26,-0.22 0.26,-0.21 0.27,-0.2 0.27,-0.18 0.27,-0.16 0.29,-0.15 v 0 l 0.28,-0.14 0.3,-0.12 0.3,-0.1 0.31,-0.1 0.31,-0.07 0.33,-0.07 0.33,-0.05 0.33,-0.03 0.34,-0.03 z"
       inkscape:connector-curvature="0" />
    <path
       id="path127"
       clip-path="url(#cpMzA3LjUyOXw0NDguNDcxfDM2MHwyNC42NTU1)"
       style="fill:#ffffff;fill-rule:evenodd;stroke:none;stroke-width:0.75;stroke-linecap:round;stroke-linejoin:round;stroke-miterlimit:10"
       d="m 336.85,183.09 v 19.04 h -2.62 v -16.25 l -4.44,2.71 -1.14,-1.85 5.89,-3.65 z"
       inkscape:connector-curvature="0" />
    <path
       id="path129"
       clip-path="url(#cpMzA3LjUyOXw0NDguNDcxfDM2MHwyNC42NTU1)"
       style="fill:#ffffff;fill-rule:evenodd;stroke:none;stroke-width:0.75;stroke-linecap:round;stroke-linejoin:round;stroke-miterlimit:10"
       d="m 333.26,226.99 v 0 l 0.34,0.01 0.33,0.02 0.32,0.03 0.31,0.05 0.3,0.06 0.3,0.08 0.28,0.09 0.28,0.1 0.27,0.12 0.26,0.13 v 0 l 0.26,0.14 0.24,0.15 0.23,0.16 0.22,0.17 0.21,0.19 0.2,0.19 0.18,0.2 0.17,0.22 0.16,0.22 0.15,0.23 v 0 l 0.14,0.24 0.12,0.24 0.1,0.25 0.1,0.26 0.07,0.26 0.07,0.27 0.05,0.27 0.03,0.28 0.02,0.29 0.01,0.29 v 0 l -0.01,0.35 -0.02,0.34 -0.04,0.34 -0.06,0.34 -0.07,0.33 -0.09,0.33 -0.1,0.33 -0.12,0.33 -0.13,0.32 -0.15,0.32 v 0 l -0.17,0.32 -0.18,0.33 -0.19,0.33 -0.22,0.33 -0.23,0.35 -0.24,0.34 -0.27,0.35 -0.28,0.36 -0.3,0.36 -0.31,0.37 v 0 l -0.35,0.39 -0.37,0.41 -0.41,0.44 -0.44,0.47 -0.48,0.5 -0.51,0.53 -0.54,0.56 -0.57,0.59 -0.61,0.62 -0.65,0.64 h 8.57 l -0.32,2.19 h -11.23 v -2.07 0 l 0.74,-0.77 0.69,-0.73 0.65,-0.69 0.61,-0.64 0.56,-0.6 0.52,-0.55 0.48,-0.52 0.43,-0.47 0.38,-0.43 0.34,-0.38 v 0 l 0.31,-0.37 0.29,-0.35 0.28,-0.35 0.25,-0.33 0.24,-0.33 0.22,-0.32 0.2,-0.3 0.18,-0.3 0.16,-0.29 0.15,-0.28 v 0 l 0.13,-0.27 0.11,-0.28 0.11,-0.28 0.08,-0.29 0.08,-0.29 0.06,-0.3 0.05,-0.3 0.03,-0.3 0.02,-0.31 0.01,-0.31 v 0 l -0.01,-0.29 -0.02,-0.27 -0.05,-0.27 -0.06,-0.25 -0.07,-0.23 -0.1,-0.23 -0.11,-0.21 -0.13,-0.2 -0.14,-0.18 -0.16,-0.17 v 0 l -0.18,-0.16 -0.19,-0.15 -0.2,-0.13 -0.21,-0.11 -0.22,-0.09 -0.23,-0.08 -0.25,-0.06 -0.25,-0.04 -0.27,-0.03 h -0.28 v 0 h -0.23 l -0.22,0.01 -0.22,0.03 -0.22,0.03 -0.2,0.05 -0.21,0.05 -0.19,0.06 -0.19,0.07 -0.19,0.09 -0.18,0.09 v 0 l -0.18,0.1 -0.18,0.12 -0.18,0.13 -0.18,0.14 -0.19,0.15 -0.19,0.16 -0.19,0.18 -0.19,0.19 -0.2,0.21 -0.2,0.21 -1.7,-1.36 v 0 l 0.23,-0.29 0.24,-0.26 0.25,-0.26 0.25,-0.24 0.26,-0.22 0.26,-0.21 0.27,-0.19 0.27,-0.18 0.27,-0.17 0.29,-0.15 v 0 l 0.28,-0.13 0.3,-0.12 0.3,-0.11 0.31,-0.09 0.31,-0.08 0.33,-0.06 0.33,-0.05 0.33,-0.04 0.34,-0.02 z"
       inkscape:connector-curvature="0" />
    <path
       id="path131"
       clip-path="url(#cpMzA3LjUyOXw0NDguNDcxfDM2MHwyNC42NTU1)"
       style="fill:#ffffff;fill-rule:evenodd;stroke:none;stroke-width:0.75;stroke-linecap:round;stroke-linejoin:round;stroke-miterlimit:10"
       d="m 336.85,271.46 v 19.03 h -2.62 v -16.24 l -4.44,2.7 -1.14,-1.85 5.89,-3.64 z"
       inkscape:connector-curvature="0" />
    <path
       id="path133"
       clip-path="url(#cpMzA3LjUyOXw0NDguNDcxfDM2MHwyNC42NTU1)"
       style="fill:#ffffff;fill-rule:evenodd;stroke:none;stroke-width:0.75;stroke-linecap:round;stroke-linejoin:round;stroke-miterlimit:10"
       d="m 333.26,315.36 v 0 h 0.34 l 0.33,0.02 0.32,0.04 0.31,0.05 0.3,0.06 0.3,0.07 0.28,0.09 0.28,0.1 0.27,0.12 0.26,0.13 v 0 l 0.26,0.14 0.24,0.15 0.23,0.17 0.22,0.17 0.21,0.18 0.2,0.19 0.18,0.21 0.17,0.21 0.16,0.22 0.15,0.24 v 0 l 0.14,0.23 0.12,0.25 0.1,0.25 0.1,0.25 0.07,0.26 0.07,0.27 0.05,0.27 0.03,0.29 0.02,0.28 0.01,0.29 v 0 l -0.01,0.35 -0.02,0.34 -0.04,0.34 -0.06,0.34 -0.07,0.33 -0.09,0.34 -0.1,0.32 -0.12,0.33 -0.13,0.32 -0.15,0.32 v 0 l -0.17,0.32 -0.18,0.33 -0.19,0.33 -0.22,0.34 -0.23,0.34 -0.24,0.35 -0.27,0.35 -0.28,0.36 -0.3,0.36 -0.31,0.37 v 0 l -0.35,0.38 -0.37,0.41 -0.41,0.45 -0.44,0.47 -0.48,0.5 -0.51,0.53 -0.54,0.56 -0.57,0.58 -0.61,0.62 -0.65,0.65 h 8.57 l -0.32,2.19 h -11.23 v -2.08 0 l 0.74,-0.77 0.69,-0.73 0.65,-0.68 0.61,-0.64 0.56,-0.6 0.52,-0.56 0.48,-0.51 0.43,-0.47 0.38,-0.43 0.34,-0.39 v 0 l 0.31,-0.36 0.29,-0.36 0.28,-0.34 0.25,-0.34 0.24,-0.32 0.22,-0.32 0.2,-0.31 0.18,-0.3 0.16,-0.28 0.15,-0.28 v 0 l 0.13,-0.28 0.11,-0.28 0.11,-0.28 0.08,-0.29 0.08,-0.29 0.06,-0.29 0.05,-0.3 0.03,-0.3 0.02,-0.31 0.01,-0.31 v 0 l -0.01,-0.29 -0.02,-0.28 -0.05,-0.26 -0.06,-0.25 -0.07,-0.24 -0.1,-0.22 -0.11,-0.21 -0.13,-0.2 -0.14,-0.18 -0.16,-0.18 v 0 l -0.18,-0.16 -0.19,-0.14 -0.2,-0.13 -0.21,-0.11 -0.22,-0.1 -0.23,-0.07 -0.25,-0.06 -0.25,-0.05 -0.27,-0.02 -0.28,-0.01 v 0 h -0.23 l -0.22,0.02 -0.22,0.02 -0.22,0.04 -0.2,0.04 -0.21,0.05 -0.19,0.07 -0.19,0.07 -0.19,0.08 -0.18,0.09 v 0 l -0.18,0.11 -0.18,0.11 -0.18,0.13 -0.18,0.14 -0.19,0.15 -0.19,0.17 -0.19,0.18 -0.19,0.19 -0.2,0.2 -0.2,0.22 -1.7,-1.37 v 0 l 0.23,-0.28 0.24,-0.27 0.25,-0.25 0.25,-0.24 0.26,-0.22 0.26,-0.21 0.27,-0.2 0.27,-0.18 0.27,-0.16 0.29,-0.15 v 0 l 0.28,-0.14 0.3,-0.12 0.3,-0.1 0.31,-0.1 0.31,-0.07 0.33,-0.07 0.33,-0.05 0.33,-0.03 0.34,-0.03 z"
       inkscape:connector-curvature="0" />
    <path
       id="path135"
       clip-path="url(#cpMzA3LjUyOXw0NDguNDcxfDM2MHwyNC42NTU1)"
       style="fill:#ffffff;fill-rule:evenodd;stroke:none;stroke-width:0.75;stroke-linecap:round;stroke-linejoin:round;stroke-miterlimit:10"
       d="m 379.55,105.74 5.21,8.02 h -3.16 l -3.67,-6.34 -3.73,6.34 h -2.96 l 5.24,-7.91 -4.64,-7.08 h 3.07 l 3.13,5.49 3.16,-5.49 h 2.96 z"
       inkscape:connector-curvature="0" />
    <path
       id="path137"
       clip-path="url(#cpMzA3LjUyOXw0NDguNDcxfDM2MHwyNC42NTU1)"
       style="fill:#ffffff;fill-rule:evenodd;stroke:none;stroke-width:0.75;stroke-linecap:round;stroke-linejoin:round;stroke-miterlimit:10"
       d="m 379.55,149.92 5.21,8.03 h -3.16 l -3.67,-6.35 -3.73,6.35 h -2.96 l 5.24,-7.91 -4.64,-7.09 h 3.07 l 3.13,5.49 3.16,-5.49 h 2.96 z"
       inkscape:connector-curvature="0" />
    <path
       id="path139"
       clip-path="url(#cpMzA3LjUyOXw0NDguNDcxfDM2MHwyNC42NTU1)"
       style="fill:#ffffff;fill-rule:evenodd;stroke:none;stroke-width:0.75;stroke-linecap:round;stroke-linejoin:round;stroke-miterlimit:10"
       d="m 379.71,202.22 v 0 l -0.19,0.51 -0.19,0.49 -0.22,0.47 -0.22,0.44 -0.24,0.43 -0.26,0.4 -0.27,0.38 -0.28,0.35 -0.3,0.34 -0.31,0.31 v 0 l -0.32,0.3 -0.36,0.27 -0.38,0.24 -0.41,0.22 -0.43,0.2 -0.47,0.17 -0.49,0.15 -0.52,0.13 -0.54,0.1 -0.57,0.07 -0.29,-2.05 v 0 l 0.29,-0.05 0.28,-0.06 0.27,-0.06 0.25,-0.07 0.24,-0.07 0.23,-0.08 0.22,-0.08 0.21,-0.08 0.19,-0.09 0.18,-0.1 v 0 l 0.18,-0.1 0.16,-0.1 0.16,-0.11 0.15,-0.12 0.14,-0.12 0.14,-0.13 0.13,-0.13 0.12,-0.14 0.11,-0.15 0.11,-0.15 v 0 l 0.1,-0.15 0.11,-0.17 0.1,-0.17 0.11,-0.19 0.1,-0.2 0.1,-0.2 0.09,-0.22 0.1,-0.23 0.09,-0.24 0.09,-0.25 h -0.88 l -5.03,-14.99 h 2.78 l 4.02,13.08 3.92,-13.08 h 2.7 z"
       inkscape:connector-curvature="0" />
    <path
       id="path141"
       clip-path="url(#cpMzA3LjUyOXw0NDguNDcxfDM2MHwyNC42NTU1)"
       style="fill:#ffffff;fill-rule:evenodd;stroke:none;stroke-width:0.75;stroke-linecap:round;stroke-linejoin:round;stroke-miterlimit:10"
       d="m 379.71,246.4 v 0 l -0.19,0.51 -0.19,0.49 -0.22,0.47 -0.22,0.44 -0.24,0.43 -0.26,0.4 -0.27,0.38 -0.28,0.36 -0.3,0.33 -0.31,0.31 v 0 l -0.32,0.3 -0.36,0.27 -0.38,0.24 -0.41,0.23 -0.43,0.19 -0.47,0.18 -0.49,0.14 -0.52,0.13 -0.54,0.1 -0.57,0.07 -0.29,-2.05 v 0 l 0.29,-0.05 0.28,-0.06 0.27,-0.06 0.25,-0.07 0.24,-0.07 0.23,-0.08 0.22,-0.08 0.21,-0.08 0.19,-0.09 0.18,-0.1 v 0 l 0.18,-0.1 0.16,-0.1 0.16,-0.11 0.15,-0.12 0.14,-0.12 0.14,-0.13 0.13,-0.13 0.12,-0.14 0.11,-0.15 0.11,-0.15 v 0 l 0.1,-0.15 0.11,-0.17 0.1,-0.17 0.11,-0.19 0.1,-0.19 0.1,-0.21 0.09,-0.22 0.1,-0.23 0.09,-0.24 0.09,-0.25 h -0.88 l -5.03,-14.99 h 2.78 l 4.02,13.09 3.92,-13.09 h 2.7 z"
       inkscape:connector-curvature="0" />
    <path
       id="path143"
       clip-path="url(#cpMzA3LjUyOXw0NDguNDcxfDM2MHwyNC42NTU1)"
       style="fill:#ffffff;fill-rule:evenodd;stroke:none;stroke-width:0.75;stroke-linecap:round;stroke-linejoin:round;stroke-miterlimit:10"
       d="m 383.28,275.5 v 1.99 l -7.83,10.81 h 7.91 l -0.31,2.19 h -10.56 v -1.96 l 7.8,-10.81 h -7.14 v -2.22 z"
       inkscape:connector-curvature="0" />
    <path
       id="path145"
       clip-path="url(#cpMzA3LjUyOXw0NDguNDcxfDM2MHwyNC42NTU1)"
       style="fill:#ffffff;fill-rule:evenodd;stroke:none;stroke-width:0.75;stroke-linecap:round;stroke-linejoin:round;stroke-miterlimit:10"
       d="m 383.28,319.68 v 1.99 l -7.83,10.82 h 7.91 l -0.31,2.19 h -10.56 v -1.97 l 7.8,-10.81 h -7.14 v -2.22 z"
       inkscape:connector-curvature="0" />
    <path
       id="path147"
       clip-path="url(#cpMzA3LjUyOXw0NDguNDcxfDM2MHwyNC42NTU1)"
       style="fill:#ffffff;fill-rule:evenodd;stroke:none;stroke-width:0.75;stroke-linecap:round;stroke-linejoin:round;stroke-miterlimit:10"
       d="m 427.25,110.27 v 0 0.17 l 0.01,0.17 0.02,0.16 0.02,0.15 0.03,0.14 0.03,0.13 0.04,0.13 0.05,0.11 0.05,0.11 0.06,0.09 v 0 l 0.07,0.08 0.07,0.08 0.08,0.08 0.08,0.07 0.09,0.07 0.1,0.06 0.1,0.06 0.11,0.06 0.12,0.05 0.12,0.05 -0.6,1.82 v 0 l -0.23,-0.04 -0.22,-0.04 -0.21,-0.04 -0.2,-0.06 -0.19,-0.06 -0.18,-0.07 -0.18,-0.07 -0.16,-0.09 -0.16,-0.09 -0.15,-0.1 v 0 l -0.14,-0.11 -0.13,-0.12 -0.12,-0.13 -0.12,-0.14 -0.11,-0.15 -0.1,-0.17 -0.09,-0.17 -0.09,-0.19 -0.08,-0.2 -0.07,-0.21 v 0 l -0.32,0.43 -0.34,0.38 -0.37,0.33 -0.41,0.3 -0.43,0.24 -0.46,0.21 -0.49,0.15 -0.52,0.12 -0.55,0.06 -0.58,0.03 v 0 l -0.43,-0.02 -0.42,-0.03 -0.39,-0.07 -0.38,-0.08 -0.36,-0.12 -0.34,-0.13 -0.32,-0.17 -0.31,-0.18 -0.28,-0.22 -0.27,-0.24 v 0 l -0.24,-0.25 -0.22,-0.28 -0.19,-0.29 -0.17,-0.3 -0.14,-0.32 -0.11,-0.33 -0.09,-0.35 -0.07,-0.37 -0.03,-0.38 -0.02,-0.4 v 0 l 0.02,-0.46 0.05,-0.45 0.09,-0.42 0.12,-0.4 0.15,-0.38 0.19,-0.36 0.22,-0.33 0.26,-0.31 0.29,-0.29 0.32,-0.27 v 0 l 0.36,-0.24 0.39,-0.22 0.42,-0.19 0.45,-0.17 0.47,-0.14 0.51,-0.11 0.53,-0.09 0.56,-0.07 0.59,-0.04 0.61,-0.01 h 2.31 v -1.11 0 l -0.01,-0.31 -0.02,-0.29 -0.04,-0.27 -0.05,-0.26 -0.07,-0.23 -0.09,-0.22 -0.1,-0.2 -0.11,-0.18 -0.13,-0.17 -0.15,-0.14 v 0 l -0.16,-0.13 -0.18,-0.12 -0.19,-0.1 -0.22,-0.09 -0.22,-0.08 -0.25,-0.06 -0.26,-0.05 -0.28,-0.03 -0.29,-0.02 -0.31,-0.01 v 0 l -0.34,0.01 -0.35,0.02 -0.37,0.04 -0.38,0.06 -0.4,0.07 -0.41,0.09 -0.42,0.1 -0.44,0.12 -0.46,0.14 -0.47,0.15 -0.66,-1.91 v 0 l 0.56,-0.19 0.54,-0.18 0.54,-0.15 0.53,-0.13 0.52,-0.12 0.52,-0.09 0.5,-0.07 0.5,-0.05 0.49,-0.03 0.48,-0.01 v 0 l 0.52,0.01 0.49,0.04 0.46,0.07 0.44,0.09 0.41,0.12 0.38,0.14 0.35,0.17 0.33,0.2 0.3,0.22 0.28,0.25 v 0 l 0.25,0.26 0.22,0.29 0.2,0.32 0.17,0.33 0.14,0.36 0.12,0.37 0.09,0.4 0.06,0.43 0.04,0.44 0.02,0.47 z m -6.15,1.87 v 0 l 0.44,-0.02 0.42,-0.07 0.4,-0.12 0.38,-0.16 0.37,-0.21 0.34,-0.26 0.32,-0.3 0.31,-0.35 0.28,-0.4 0.27,-0.44 v -3.44 h -1.96 v 0 l -0.79,0.03 -0.71,0.09 -0.62,0.15 -0.54,0.22 -0.46,0.28 -0.37,0.33 -0.29,0.4 -0.21,0.46 -0.13,0.53 -0.04,0.58 v 0 l 0.01,0.26 0.02,0.25 0.03,0.23 0.05,0.23 0.06,0.2 0.07,0.2 0.08,0.18 0.1,0.17 0.11,0.16 0.13,0.14 v 0 l 0.13,0.13 0.15,0.12 0.17,0.1 0.17,0.09 0.19,0.07 0.2,0.06 0.21,0.05 0.22,0.04 0.24,0.02 z"
       inkscape:connector-curvature="0" />
    <path
       id="path149"
       clip-path="url(#cpMzA3LjUyOXw0NDguNDcxfDM2MHwyNC42NTU1)"
       style="fill:#ffffff;fill-rule:evenodd;stroke:none;stroke-width:0.75;stroke-linecap:round;stroke-linejoin:round;stroke-miterlimit:10"
       d="m 423.29,142.61 v 0 l 0.5,0.02 0.48,0.06 0.46,0.11 0.44,0.14 0.42,0.19 0.4,0.23 0.37,0.27 0.36,0.31 0.33,0.35 0.31,0.4 v 0 l 0.29,0.42 0.25,0.46 0.23,0.5 0.2,0.52 0.16,0.56 0.14,0.59 0.1,0.62 0.08,0.66 0.04,0.69 0.02,0.73 v 0 l -0.01,0.46 -0.02,0.45 -0.04,0.44 -0.04,0.43 -0.07,0.41 -0.08,0.41 -0.09,0.4 -0.11,0.38 -0.12,0.38 -0.13,0.36 v 0 l -0.15,0.35 -0.16,0.33 -0.18,0.31 -0.18,0.3 -0.2,0.28 -0.21,0.27 -0.23,0.25 -0.23,0.24 -0.25,0.22 -0.26,0.21 v 0 l -0.27,0.19 -0.28,0.16 -0.29,0.14 -0.3,0.13 -0.31,0.11 -0.32,0.08 -0.33,0.07 -0.33,0.05 -0.35,0.03 -0.35,0.01 v 0 l -0.47,-0.02 -0.45,-0.06 -0.43,-0.1 -0.42,-0.14 -0.41,-0.18 -0.39,-0.22 -0.37,-0.26 -0.37,-0.3 -0.34,-0.33 -0.33,-0.38 -0.26,1.65 h -2.31 v -21.03 l 2.62,-0.31 v 8.22 0 l 0.34,-0.42 0.35,-0.38 0.38,-0.33 0.39,-0.29 0.41,-0.24 0.44,-0.2 0.45,-0.16 0.47,-0.11 0.5,-0.07 z m -0.94,13.6 v 0 l 0.34,-0.01 0.33,-0.04 0.31,-0.07 0.29,-0.1 0.28,-0.13 0.26,-0.15 0.25,-0.18 0.23,-0.21 0.21,-0.24 0.21,-0.26 v 0 l 0.19,-0.3 0.16,-0.33 0.15,-0.36 0.13,-0.4 0.11,-0.42 0.09,-0.45 0.07,-0.49 0.05,-0.51 0.03,-0.55 0.01,-0.57 v 0 l -0.01,-0.6 -0.02,-0.55 -0.05,-0.53 -0.06,-0.49 -0.09,-0.45 -0.1,-0.42 -0.11,-0.39 -0.14,-0.35 -0.16,-0.32 -0.17,-0.29 v 0 l -0.19,-0.26 -0.2,-0.23 -0.22,-0.2 -0.24,-0.18 -0.25,-0.15 -0.27,-0.12 -0.28,-0.1 -0.3,-0.07 -0.31,-0.04 -0.33,-0.01 v 0 l -0.39,0.02 -0.39,0.07 -0.37,0.12 -0.36,0.16 -0.36,0.21 -0.34,0.26 -0.34,0.3 -0.32,0.35 -0.32,0.4 -0.31,0.44 v 7.17 0 l 0.12,0.19 0.13,0.17 0.13,0.17 0.14,0.16 0.14,0.15 0.15,0.14 0.15,0.14 0.16,0.13 0.17,0.12 0.16,0.11 v 0 l 0.18,0.1 0.18,0.1 0.18,0.08 0.18,0.07 0.19,0.06 0.18,0.05 0.19,0.03 0.19,0.03 0.19,0.02 z"
       inkscape:connector-curvature="0" />
    <path
       id="path151"
       clip-path="url(#cpMzA3LjUyOXw0NDguNDcxfDM2MHwyNC42NTU1)"
       style="fill:#ffffff;fill-rule:evenodd;stroke:none;stroke-width:0.75;stroke-linecap:round;stroke-linejoin:round;stroke-miterlimit:10"
       d="m 423.55,186.79 v 0 l 0.26,0.01 0.26,0.01 0.26,0.02 0.25,0.03 0.25,0.03 0.24,0.05 0.24,0.05 0.23,0.06 0.23,0.07 0.23,0.07 v 0 l 0.22,0.08 0.22,0.09 0.21,0.1 0.22,0.11 0.21,0.11 0.22,0.13 0.21,0.14 0.21,0.14 0.2,0.16 0.21,0.17 -1.25,1.65 v 0 l -0.16,-0.11 -0.16,-0.11 -0.16,-0.1 -0.16,-0.09 -0.15,-0.09 -0.16,-0.07 -0.15,-0.08 -0.16,-0.06 -0.15,-0.07 -0.16,-0.05 v 0 l -0.15,-0.05 -0.15,-0.05 -0.16,-0.04 -0.16,-0.04 -0.16,-0.03 -0.17,-0.03 -0.17,-0.02 -0.17,-0.01 -0.18,-0.01 h -0.18 v 0 l -0.35,0.01 -0.34,0.04 -0.33,0.08 -0.31,0.1 -0.29,0.13 -0.28,0.16 -0.26,0.19 -0.24,0.21 -0.23,0.25 -0.21,0.28 v 0 l -0.19,0.3 -0.17,0.33 -0.15,0.36 -0.13,0.39 -0.11,0.42 -0.09,0.44 -0.07,0.47 -0.05,0.5 -0.03,0.53 -0.01,0.55 v 0 l 0.01,0.56 0.03,0.52 0.05,0.5 0.07,0.46 0.09,0.44 0.11,0.41 0.13,0.37 0.15,0.35 0.17,0.32 0.19,0.28 v 0 l 0.2,0.26 0.23,0.23 0.24,0.2 0.26,0.17 0.28,0.15 0.29,0.12 0.31,0.09 0.33,0.07 0.34,0.04 0.36,0.01 v 0 h 0.18 l 0.17,-0.01 0.17,-0.01 0.16,-0.02 0.17,-0.02 0.16,-0.03 0.16,-0.03 0.15,-0.04 0.15,-0.05 0.15,-0.04 v 0 l 0.15,-0.06 0.16,-0.07 0.15,-0.07 0.16,-0.08 0.17,-0.09 0.16,-0.09 0.17,-0.1 0.18,-0.1 0.17,-0.11 0.18,-0.12 1.2,1.71 v 0 l -0.42,0.31 -0.42,0.28 -0.43,0.25 -0.45,0.22 -0.45,0.18 -0.46,0.15 -0.48,0.11 -0.48,0.09 -0.49,0.04 -0.5,0.02 v 0 l -0.6,-0.02 -0.57,-0.06 -0.54,-0.1 -0.52,-0.15 -0.5,-0.18 -0.46,-0.23 -0.45,-0.26 -0.41,-0.31 -0.39,-0.35 -0.37,-0.39 v 0 l -0.33,-0.42 -0.3,-0.46 -0.26,-0.49 -0.22,-0.52 -0.19,-0.55 -0.16,-0.58 -0.12,-0.61 -0.09,-0.65 -0.05,-0.67 -0.02,-0.71 v 0 l 0.01,-0.47 0.03,-0.46 0.04,-0.45 0.05,-0.44 0.07,-0.42 0.09,-0.41 0.1,-0.4 0.12,-0.39 0.14,-0.38 0.15,-0.36 v 0 l 0.17,-0.35 0.18,-0.34 0.19,-0.32 0.2,-0.3 0.22,-0.29 0.23,-0.27 0.25,-0.25 0.25,-0.24 0.27,-0.22 0.29,-0.21 v 0 l 0.3,-0.19 0.31,-0.17 0.32,-0.15 0.34,-0.13 0.34,-0.11 0.36,-0.09 0.36,-0.07 0.38,-0.05 0.39,-0.03 z"
       inkscape:connector-curvature="0" />
    <path
       id="path157"
       clip-path="url(#cpMzA3LjUyOXw0NDguNDcxfDM2MHwyNC42NTU1)"
       style="fill:#ffffff;fill-rule:evenodd;stroke:none;stroke-width:0.75;stroke-linecap:round;stroke-linejoin:round;stroke-miterlimit:10"
       d="m 425.21,315.44 v 0 l -0.23,0.01 -0.22,0.01 -0.2,0.03 -0.19,0.04 -0.18,0.05 -0.17,0.06 -0.15,0.07 -0.13,0.08 -0.13,0.09 -0.1,0.1 v 0 l -0.1,0.11 -0.09,0.12 -0.08,0.13 -0.06,0.15 -0.06,0.16 -0.04,0.16 -0.04,0.18 -0.03,0.2 -0.01,0.2 -0.01,0.22 v 2.07 h 3.65 l -0.29,2.02 h -3.36 v 12.98 h -2.61 V 321.7 h -2.68 v -2.02 h 2.68 v -2.05 0 l 0.01,-0.38 0.03,-0.36 0.07,-0.35 0.08,-0.33 0.11,-0.32 0.14,-0.3 0.16,-0.29 0.18,-0.27 0.21,-0.26 0.23,-0.24 v 0 l 0.26,-0.22 0.28,-0.21 0.3,-0.18 0.32,-0.15 0.33,-0.13 0.36,-0.11 0.38,-0.09 0.39,-0.05 0.42,-0.04 0.43,-0.01 v 0 h 0.2 l 0.2,0.01 0.19,0.01 0.19,0.01 0.19,0.02 0.18,0.02 0.17,0.02 0.17,0.03 0.17,0.04 0.16,0.04 v 0 l 0.17,0.03 0.17,0.04 0.17,0.05 0.17,0.05 0.17,0.05 0.18,0.06 0.18,0.07 0.18,0.07 0.19,0.07 0.19,0.08 -0.83,1.9 v 0 l -0.26,-0.11 -0.25,-0.09 -0.26,-0.09 -0.26,-0.07 -0.26,-0.06 -0.27,-0.06 -0.26,-0.04 -0.26,-0.02 -0.27,-0.02 z"
       inkscape:connector-curvature="0" />
    <path
       id="path159"
       clip-path="url(#cpMzA3LjUyOXw0NDguNDcxfDM2MHwyNC42NTU1)"
       style="fill:#000000;fill-rule:evenodd;stroke:none;stroke-width:0.75;stroke-linecap:round;stroke-linejoin:round;stroke-miterlimit:10"
       d="m 329.5,56.66 v 9 h -1.57 v -9 z m -0.8,-4.31 v 0 h 0.09 l 0.1,0.01 0.09,0.01 0.08,0.02 0.08,0.03 0.08,0.04 0.08,0.04 0.07,0.04 0.07,0.05 0.06,0.06 v 0 l 0.06,0.07 0.05,0.06 0.05,0.07 0.04,0.07 0.03,0.08 0.03,0.08 0.02,0.08 0.01,0.08 0.01,0.09 0.01,0.09 v 0 l -0.01,0.09 -0.01,0.09 -0.01,0.08 -0.02,0.09 -0.03,0.07 -0.03,0.08 -0.04,0.07 -0.05,0.07 -0.05,0.07 -0.06,0.06 v 0 l -0.06,0.05 -0.07,0.05 -0.07,0.05 -0.08,0.04 -0.08,0.03 -0.08,0.02 -0.08,0.02 -0.09,0.02 -0.1,0.01 h -0.09 v 0 h -0.1 l -0.09,-0.01 -0.09,-0.02 -0.08,-0.02 -0.08,-0.02 -0.08,-0.03 -0.07,-0.04 -0.07,-0.05 -0.07,-0.05 -0.06,-0.05 v 0 l -0.06,-0.06 -0.05,-0.07 -0.05,-0.07 -0.04,-0.07 -0.03,-0.08 -0.03,-0.07 -0.02,-0.09 -0.01,-0.08 -0.01,-0.09 -0.01,-0.09 v 0 l 0.01,-0.09 0.01,-0.09 0.01,-0.08 0.02,-0.08 0.03,-0.08 0.03,-0.08 0.04,-0.07 0.05,-0.07 0.05,-0.06 0.06,-0.07 v 0 l 0.06,-0.06 0.07,-0.05 0.07,-0.04 0.07,-0.04 0.08,-0.04 0.08,-0.03 0.08,-0.02 0.09,-0.01 0.09,-0.01 z"
       inkscape:connector-curvature="0" />
    <path
       id="path161"
       clip-path="url(#cpMzA3LjUyOXw0NDguNDcxfDM2MHwyNC42NTU1)"
       style="fill:#000000;fill-rule:evenodd;stroke:none;stroke-width:0.75;stroke-linecap:round;stroke-linejoin:round;stroke-miterlimit:10"
       d="m 339.71,53.05 v 12.61 h -1.39 l -0.15,-1.24 v 0 l -0.09,0.13 -0.1,0.13 -0.1,0.12 -0.1,0.12 -0.11,0.11 -0.11,0.1 -0.12,0.1 -0.12,0.09 -0.13,0.09 -0.13,0.08 v 0 l -0.13,0.07 -0.14,0.07 -0.14,0.05 -0.15,0.05 -0.14,0.04 -0.15,0.04 -0.16,0.02 -0.15,0.02 -0.16,0.01 -0.16,0.01 v 0 l -0.32,-0.02 -0.3,-0.03 -0.28,-0.07 -0.28,-0.09 -0.25,-0.11 -0.25,-0.14 -0.23,-0.16 -0.21,-0.19 -0.21,-0.22 -0.18,-0.24 v 0 l -0.17,-0.26 -0.15,-0.28 -0.14,-0.29 -0.11,-0.32 -0.1,-0.33 -0.08,-0.35 -0.06,-0.36 -0.05,-0.39 -0.02,-0.4 -0.01,-0.41 v 0 -0.28 l 0.02,-0.26 0.02,-0.27 0.03,-0.25 0.04,-0.25 0.04,-0.24 0.06,-0.24 0.06,-0.23 0.07,-0.22 0.09,-0.22 v 0 l 0.08,-0.21 0.1,-0.2 0.11,-0.19 0.11,-0.19 0.12,-0.17 0.12,-0.16 0.14,-0.15 0.14,-0.15 0.15,-0.13 0.15,-0.13 v 0 l 0.17,-0.11 0.17,-0.11 0.17,-0.09 0.18,-0.08 0.19,-0.07 0.19,-0.05 0.19,-0.04 0.2,-0.04 0.21,-0.01 0.21,-0.01 v 0 l 0.28,0.01 0.26,0.03 0.26,0.06 0.25,0.08 0.25,0.1 0.24,0.12 0.23,0.14 0.23,0.17 0.22,0.19 0.21,0.21 v -4.71 z m -3.79,11.57 v 0 h 0.14 l 0.14,-0.01 0.13,-0.02 0.13,-0.02 0.12,-0.03 0.12,-0.04 0.12,-0.04 0.11,-0.05 0.11,-0.05 0.11,-0.06 v 0 l 0.1,-0.08 0.1,-0.07 0.1,-0.09 0.1,-0.09 0.1,-0.1 0.1,-0.1 0.1,-0.11 0.09,-0.12 0.1,-0.12 0.1,-0.13 v -4.41 0 l -0.09,-0.11 -0.09,-0.11 -0.1,-0.1 -0.09,-0.09 -0.09,-0.09 -0.1,-0.09 -0.1,-0.08 -0.1,-0.07 -0.1,-0.07 -0.1,-0.06 v 0 l -0.1,-0.05 -0.1,-0.06 -0.11,-0.04 -0.11,-0.04 -0.11,-0.04 -0.11,-0.02 -0.12,-0.03 -0.12,-0.01 -0.12,-0.01 h -0.13 v 0 h -0.2 l -0.19,0.03 -0.19,0.04 -0.18,0.07 -0.16,0.07 -0.16,0.1 -0.15,0.11 -0.14,0.13 -0.13,0.15 -0.12,0.17 v 0 l -0.1,0.18 -0.1,0.2 -0.09,0.22 -0.07,0.23 -0.06,0.25 -0.05,0.27 -0.04,0.28 -0.03,0.31 -0.02,0.32 v 0.33 0 0.34 l 0.02,0.32 0.03,0.31 0.03,0.28 0.05,0.27 0.06,0.25 0.07,0.23 0.08,0.22 0.09,0.2 0.1,0.18 v 0 l 0.11,0.16 0.12,0.14 0.13,0.13 0.14,0.11 0.14,0.1 0.16,0.07 0.16,0.06 0.18,0.05 0.18,0.02 z"
       inkscape:connector-curvature="0" />
    <path
       id="path169"
       clip-path="url(#cpMzA3LjUyOXw0NDguNDcxfDM2MHwyNC42NTU1)"
       style="fill:#000000;fill-rule:evenodd;stroke:none;stroke-width:0.75;stroke-linecap:round;stroke-linejoin:round;stroke-miterlimit:10"
       d="m 419.07,56.66 -3.06,9 h -1.89 l -3.11,-9 h 1.71 l 2.35,7.6 2.34,-7.6 z"
       inkscape:connector-curvature="0" />
    <path
       id="path171"
       clip-path="url(#cpMzA3LjUyOXw0NDguNDcxfDM2MHwyNC42NTU1)"
       style="fill:#000000;fill-rule:evenodd;stroke:none;stroke-width:0.75;stroke-linecap:round;stroke-linejoin:round;stroke-miterlimit:10"
       d="m 426.92,63.56 v 0 0.11 l 0.01,0.1 0.01,0.1 0.01,0.09 0.02,0.08 0.02,0.08 0.02,0.07 0.03,0.07 0.03,0.06 0.04,0.06 v 0 l 0.04,0.05 0.04,0.05 0.05,0.04 0.05,0.05 0.05,0.04 0.06,0.04 0.06,0.03 0.07,0.03 0.07,0.04 0.07,0.02 -0.36,1.1 v 0 l -0.13,-0.02 -0.14,-0.03 -0.12,-0.02 -0.12,-0.04 -0.12,-0.03 -0.11,-0.05 -0.1,-0.04 -0.1,-0.05 -0.1,-0.06 -0.08,-0.06 v 0 l -0.09,-0.06 -0.08,-0.07 -0.07,-0.08 -0.07,-0.09 -0.07,-0.09 -0.06,-0.1 -0.05,-0.1 -0.06,-0.12 -0.04,-0.12 -0.05,-0.12 v 0 l -0.19,0.25 -0.2,0.23 -0.23,0.21 -0.24,0.17 -0.26,0.15 -0.28,0.12 -0.29,0.1 -0.31,0.06 -0.33,0.04 -0.35,0.02 v 0 l -0.26,-0.01 -0.25,-0.02 -0.23,-0.04 -0.23,-0.05 -0.22,-0.07 -0.2,-0.08 -0.19,-0.1 -0.19,-0.11 -0.17,-0.13 -0.16,-0.14 v 0 l -0.14,-0.16 -0.13,-0.16 -0.12,-0.18 -0.1,-0.18 -0.08,-0.19 -0.07,-0.2 -0.06,-0.21 -0.03,-0.22 -0.03,-0.23 v -0.24 0 l 0.01,-0.28 0.03,-0.26 0.05,-0.26 0.07,-0.24 0.09,-0.23 0.11,-0.21 0.14,-0.2 0.15,-0.19 0.18,-0.17 0.19,-0.16 v 0 l 0.22,-0.15 0.23,-0.13 0.25,-0.11 0.27,-0.1 0.28,-0.09 0.31,-0.07 0.32,-0.05 0.33,-0.04 0.36,-0.02 0.37,-0.01 h 1.38 v -0.66 0 l -0.01,-0.19 -0.01,-0.17 -0.02,-0.17 -0.03,-0.15 -0.05,-0.14 -0.05,-0.13 -0.06,-0.12 -0.07,-0.11 -0.07,-0.1 -0.09,-0.09 v 0 l -0.1,-0.08 -0.11,-0.07 -0.11,-0.06 -0.13,-0.05 -0.14,-0.05 -0.14,-0.03 -0.16,-0.03 -0.17,-0.02 -0.17,-0.02 h -0.19 v 0 l -0.2,0.01 -0.21,0.01 -0.22,0.02 -0.23,0.04 -0.24,0.04 -0.25,0.05 -0.25,0.06 -0.27,0.08 -0.27,0.08 -0.28,0.09 -0.4,-1.15 v 0 l 0.34,-0.11 0.32,-0.11 0.33,-0.09 0.31,-0.08 0.32,-0.07 0.31,-0.05 0.3,-0.04 0.3,-0.04 0.29,-0.01 0.29,-0.01 v 0 l 0.31,0.01 0.29,0.02 0.28,0.04 0.26,0.06 0.25,0.07 0.23,0.08 0.21,0.1 0.2,0.12 0.18,0.14 0.16,0.15 v 0 l 0.15,0.16 0.14,0.17 0.12,0.19 0.1,0.2 0.08,0.21 0.07,0.23 0.06,0.24 0.04,0.25 0.02,0.27 0.01,0.28 z m -3.69,1.13 v 0 l 0.27,-0.02 0.25,-0.04 0.24,-0.07 0.23,-0.1 0.22,-0.12 0.2,-0.16 0.2,-0.18 0.18,-0.21 0.17,-0.24 0.16,-0.26 v -2.07 h -1.18 v 0 l -0.47,0.02 -0.43,0.06 -0.37,0.09 -0.32,0.13 -0.28,0.16 -0.22,0.21 -0.18,0.24 -0.12,0.27 -0.08,0.32 -0.02,0.35 v 0 0.15 l 0.01,0.15 0.02,0.14 0.03,0.14 0.04,0.12 0.04,0.12 0.05,0.11 0.06,0.1 0.07,0.09 0.07,0.09 v 0 l 0.08,0.08 0.09,0.07 0.1,0.06 0.11,0.05 0.11,0.05 0.12,0.03 0.13,0.03 0.13,0.02 0.14,0.01 z"
       inkscape:connector-curvature="0" />
    <path
       id="path173"
       clip-path="url(#cpMzA3LjUyOXw0NDguNDcxfDM2MHwyNC42NTU1)"
       style="fill:#000000;fill-rule:evenodd;stroke:none;stroke-width:0.75;stroke-linecap:round;stroke-linejoin:round;stroke-miterlimit:10"
       d="m 431.94,65.87 v 0 l -0.17,-0.01 -0.17,-0.01 -0.15,-0.03 -0.15,-0.04 -0.14,-0.04 -0.14,-0.06 -0.12,-0.06 -0.12,-0.08 -0.12,-0.09 -0.1,-0.1 v 0 l -0.1,-0.11 -0.08,-0.11 -0.08,-0.13 -0.06,-0.13 -0.06,-0.15 -0.04,-0.15 -0.03,-0.16 -0.03,-0.16 -0.01,-0.18 -0.01,-0.18 V 53.05 l 1.57,-0.19 v 10.99 0 0.08 l 0.01,0.06 v 0.07 l 0.01,0.06 0.01,0.06 0.01,0.05 0.02,0.05 0.02,0.04 0.02,0.04 0.02,0.04 v 0 l 0.03,0.03 0.03,0.03 0.04,0.03 0.04,0.02 0.04,0.02 0.05,0.01 0.05,0.01 0.05,0.01 0.06,0.01 h 0.05 v 0 h 0.07 l 0.06,-0.01 h 0.06 l 0.06,-0.01 0.06,-0.01 0.06,-0.01 0.06,-0.01 0.05,-0.02 0.05,-0.01 0.06,-0.02 0.41,1.09 v 0 l -0.12,0.06 -0.12,0.05 -0.11,0.05 -0.12,0.04 -0.13,0.03 -0.12,0.03 -0.13,0.02 -0.13,0.01 -0.14,0.01 z"
       inkscape:connector-curvature="0" />
    <text
       id="text1025"
       y="64.830513"
       x="354.66101"
       style="font-style:normal;font-weight:normal;font-size:40px;line-height:1.25;font-family:sans-serif;letter-spacing:0px;word-spacing:0px;fill:#000000;fill-opacity:1;stroke:none"
       xml:space="preserve"><tspan
         style="font-style:normal;font-variant:normal;font-weight:normal;font-stretch:normal;font-size:16px;font-family:sans-serif;-inkscape-font-specification:'sans-serif, Normal';font-variant-ligatures:normal;font-variant-caps:normal;font-variant-numeric:normal;font-feature-settings:normal;text-align:start;writing-mode:lr-tb;text-anchor:start"
         y="64.830513"
         x="354.66101"
         id="tspan1023"
         sodipodi:role="line">group</tspan></text>
    <rect
       transform="translate(-240.12)"
       id="rect81-4"
       clip-path="url(#cpMzA3LjUyOXw0NDguNDcxfDM2MHwyNC42NTU1-8)"
       style="fill:#e41a1c;stroke:none;stroke-width:0.20999999;stroke-linecap:butt;stroke-linejoin:round;stroke-miterlimit:10"
       height="39.759998"
       width="39.759998"
       y="84.080002"
       x="313.94" />
    <rect
       transform="translate(-240.12)"
       id="rect83-0"
       clip-path="url(#cpMzA3LjUyOXw0NDguNDcxfDM2MHwyNC42NTU1-8)"
       style="fill:#377eb8;stroke:none;stroke-width:0.20999999;stroke-linecap:butt;stroke-linejoin:round;stroke-miterlimit:10"
       height="39.759998"
       width="39.759998"
       y="128.25999"
       x="313.94" />
    <rect
       transform="translate(-240.12)"
       id="rect85-0"
       clip-path="url(#cpMzA3LjUyOXw0NDguNDcxfDM2MHwyNC42NTU1-8)"
       style="fill:#e41a1c;stroke:none;stroke-width:0.20999999;stroke-linecap:butt;stroke-linejoin:round;stroke-miterlimit:10"
       height="39.759998"
       width="39.759998"
       y="172.45"
       x="313.94" />
    <rect
       transform="translate(-240.12,-88)"
       id="rect91-7"
       clip-path="url(#cpMzA3LjUyOXw0NDguNDcxfDM2MHwyNC42NTU1-8)"
       style="fill:#377eb8;stroke:none;stroke-width:0.20999999;stroke-linecap:butt;stroke-linejoin:round;stroke-miterlimit:10"
       height="39.759998"
       width="39.759998"
       y="304.98999"
       x="313.94" />
    <rect
       transform="translate(-240.12)"
       id="rect93-6"
       clip-path="url(#cpMzA3LjUyOXw0NDguNDcxfDM2MHwyNC42NTU1-8)"
       style="fill:#4daf4a;stroke:none;stroke-width:0.20999999;stroke-linecap:butt;stroke-linejoin:round;stroke-miterlimit:10"
       height="39.759998"
       width="39.759998"
       y="84.080002"
       x="358.12" />
    <rect
       transform="translate(-240.12)"
       id="rect95-9"
       clip-path="url(#cpMzA3LjUyOXw0NDguNDcxfDM2MHwyNC42NTU1-8)"
       style="fill:#4daf4a;stroke:none;stroke-width:0.20999999;stroke-linecap:butt;stroke-linejoin:round;stroke-miterlimit:10"
       height="39.759998"
       width="39.759998"
       y="128.25999"
       x="358.12" />
    <rect
       transform="translate(-240.12)"
       id="rect97-4"
       clip-path="url(#cpMzA3LjUyOXw0NDguNDcxfDM2MHwyNC42NTU1-8)"
       style="fill:#984ea3;stroke:none;stroke-width:0.20999999;stroke-linecap:butt;stroke-linejoin:round;stroke-miterlimit:10"
       height="39.759998"
       width="39.759998"
       y="172.45"
       x="358.12" />
    <rect
       transform="translate(-240.12,-88)"
       id="rect103-8"
       clip-path="url(#cpMzA3LjUyOXw0NDguNDcxfDM2MHwyNC42NTU1-8)"
       style="fill:#ff7f00;stroke:none;stroke-width:0.20999999;stroke-linecap:butt;stroke-linejoin:round;stroke-miterlimit:10"
       height="39.759998"
       width="39.759998"
       y="304.98999"
       x="358.12" />
    <rect
       transform="translate(-240.12)"
       id="rect105-7"
       clip-path="url(#cpMzA3LjUyOXw0NDguNDcxfDM2MHwyNC42NTU1-8)"
       style="fill:#4daf4a;fill-opacity:0.6;stroke:none;stroke-width:0.20999999;stroke-linecap:butt;stroke-linejoin:round;stroke-miterlimit:10"
       height="39.759998"
       width="39.759998"
       y="84.080002"
       x="402.29999" />
    <rect
       transform="translate(-240.12)"
       id="rect107-8"
       clip-path="url(#cpMzA3LjUyOXw0NDguNDcxfDM2MHwyNC42NTU1-8)"
       style="fill:#4daf4a;fill-opacity:0.6;stroke:none;stroke-width:0.20999999;stroke-linecap:butt;stroke-linejoin:round;stroke-miterlimit:10"
       height="39.759998"
       width="39.759998"
       y="128.25999"
       x="402.29999" />
    <rect
       transform="translate(-240.12)"
       id="rect109-2"
       clip-path="url(#cpMzA3LjUyOXw0NDguNDcxfDM2MHwyNC42NTU1-8)"
       style="fill:#984ea3;fill-opacity:0.6;stroke:none;stroke-width:0.20999999;stroke-linecap:butt;stroke-linejoin:round;stroke-miterlimit:10"
       height="39.759998"
       width="39.759998"
       y="172.45"
       x="402.29999" />
    <rect
       transform="translate(-240.12,-88)"
       id="rect115-7"
       clip-path="url(#cpMzA3LjUyOXw0NDguNDcxfDM2MHwyNC42NTU1-8)"
       style="fill:#ff7f00;fill-opacity:0.6;stroke:none;stroke-width:0.20999999;stroke-linecap:butt;stroke-linejoin:round;stroke-miterlimit:10"
       height="39.759998"
       width="39.759998"
       y="304.98999"
       x="402.29999" />
    <path
       transform="translate(-240.12)"
       id="path123-8"
       clip-path="url(#cpMzA3LjUyOXw0NDguNDcxfDM2MHwyNC42NTU1-8)"
       style="fill:#ffffff;fill-rule:evenodd;stroke:none;stroke-width:0.75;stroke-linecap:round;stroke-linejoin:round;stroke-miterlimit:10"
       d="m 336.85,94.73 v 19.03 h -2.62 V 97.52 l -4.44,2.7 -1.14,-1.85 5.89,-3.64 z"
       inkscape:connector-curvature="0" />
    <path
       transform="translate(-240.12)"
       id="path125-6"
       clip-path="url(#cpMzA3LjUyOXw0NDguNDcxfDM2MHwyNC42NTU1-8)"
       style="fill:#ffffff;fill-rule:evenodd;stroke:none;stroke-width:0.75;stroke-linecap:round;stroke-linejoin:round;stroke-miterlimit:10"
       d="m 333.26,138.63 v 0 h 0.34 l 0.33,0.03 0.32,0.03 0.31,0.05 0.3,0.06 0.3,0.07 0.28,0.09 0.28,0.1 0.27,0.12 0.26,0.13 v 0 l 0.26,0.14 0.24,0.15 0.23,0.17 0.22,0.17 0.21,0.18 0.2,0.19 0.18,0.21 0.17,0.21 0.16,0.22 0.15,0.24 v 0 l 0.14,0.24 0.12,0.24 0.1,0.25 0.1,0.25 0.07,0.26 0.07,0.27 0.05,0.28 0.03,0.28 0.02,0.28 0.01,0.29 v 0 l -0.01,0.35 -0.02,0.34 -0.04,0.34 -0.06,0.34 -0.07,0.33 -0.09,0.34 -0.1,0.32 -0.12,0.33 -0.13,0.32 -0.15,0.32 v 0 l -0.17,0.32 -0.18,0.33 -0.19,0.33 -0.22,0.34 -0.23,0.34 -0.24,0.35 -0.27,0.35 -0.28,0.36 -0.3,0.36 -0.31,0.37 v 0 l -0.35,0.38 -0.37,0.41 -0.41,0.45 -0.44,0.47 -0.48,0.5 -0.51,0.53 -0.54,0.56 -0.57,0.58 -0.61,0.62 -0.65,0.65 h 8.57 l -0.32,2.19 h -11.23 v -2.08 0 l 0.74,-0.77 0.69,-0.73 0.65,-0.68 0.61,-0.64 0.56,-0.6 0.52,-0.56 0.48,-0.51 0.43,-0.47 0.38,-0.43 0.34,-0.39 v 0 l 0.31,-0.36 0.29,-0.36 0.28,-0.34 0.25,-0.34 0.24,-0.32 0.22,-0.32 0.2,-0.31 0.18,-0.3 0.16,-0.28 0.15,-0.28 v 0 l 0.13,-0.28 0.11,-0.28 0.11,-0.28 0.08,-0.29 0.08,-0.29 0.06,-0.29 0.05,-0.3 0.03,-0.3 0.02,-0.31 0.01,-0.31 v 0 l -0.01,-0.29 -0.02,-0.28 -0.05,-0.26 -0.06,-0.25 -0.07,-0.24 -0.1,-0.22 -0.11,-0.21 -0.13,-0.2 -0.14,-0.18 -0.16,-0.18 v 0 l -0.18,-0.16 -0.19,-0.14 -0.2,-0.13 -0.21,-0.11 -0.22,-0.1 -0.23,-0.07 -0.25,-0.06 -0.25,-0.05 -0.27,-0.02 -0.28,-0.01 v 0 l -0.23,0.01 -0.22,0.01 -0.22,0.02 -0.22,0.04 -0.2,0.04 -0.21,0.05 -0.19,0.07 -0.19,0.07 -0.19,0.08 -0.18,0.09 v 0 l -0.18,0.11 -0.18,0.11 -0.18,0.13 -0.18,0.14 -0.19,0.15 -0.19,0.17 -0.19,0.18 -0.19,0.19 -0.2,0.2 -0.2,0.22 -1.7,-1.37 v 0 l 0.23,-0.28 0.24,-0.27 0.25,-0.25 0.25,-0.24 0.26,-0.22 0.26,-0.21 0.27,-0.2 0.27,-0.18 0.27,-0.16 0.29,-0.15 v 0 l 0.28,-0.14 0.3,-0.12 0.3,-0.1 0.31,-0.1 0.31,-0.07 0.33,-0.07 0.33,-0.05 0.33,-0.03 0.34,-0.03 z"
       inkscape:connector-curvature="0" />
    <path
       transform="translate(-240.12)"
       id="path127-4"
       clip-path="url(#cpMzA3LjUyOXw0NDguNDcxfDM2MHwyNC42NTU1-8)"
       style="fill:#ffffff;fill-rule:evenodd;stroke:none;stroke-width:0.75;stroke-linecap:round;stroke-linejoin:round;stroke-miterlimit:10"
       d="m 336.85,183.09 v 19.04 h -2.62 v -16.25 l -4.44,2.71 -1.14,-1.85 5.89,-3.65 z"
       inkscape:connector-curvature="0" />
    <path
       transform="translate(-240.12,-88)"
       id="path133-8"
       clip-path="url(#cpMzA3LjUyOXw0NDguNDcxfDM2MHwyNC42NTU1-8)"
       style="fill:#ffffff;fill-rule:evenodd;stroke:none;stroke-width:0.75;stroke-linecap:round;stroke-linejoin:round;stroke-miterlimit:10"
       d="m 333.26,315.36 v 0 h 0.34 l 0.33,0.02 0.32,0.04 0.31,0.05 0.3,0.06 0.3,0.07 0.28,0.09 0.28,0.1 0.27,0.12 0.26,0.13 v 0 l 0.26,0.14 0.24,0.15 0.23,0.17 0.22,0.17 0.21,0.18 0.2,0.19 0.18,0.21 0.17,0.21 0.16,0.22 0.15,0.24 v 0 l 0.14,0.23 0.12,0.25 0.1,0.25 0.1,0.25 0.07,0.26 0.07,0.27 0.05,0.27 0.03,0.29 0.02,0.28 0.01,0.29 v 0 l -0.01,0.35 -0.02,0.34 -0.04,0.34 -0.06,0.34 -0.07,0.33 -0.09,0.34 -0.1,0.32 -0.12,0.33 -0.13,0.32 -0.15,0.32 v 0 l -0.17,0.32 -0.18,0.33 -0.19,0.33 -0.22,0.34 -0.23,0.34 -0.24,0.35 -0.27,0.35 -0.28,0.36 -0.3,0.36 -0.31,0.37 v 0 l -0.35,0.38 -0.37,0.41 -0.41,0.45 -0.44,0.47 -0.48,0.5 -0.51,0.53 -0.54,0.56 -0.57,0.58 -0.61,0.62 -0.65,0.65 h 8.57 l -0.32,2.19 h -11.23 v -2.08 0 l 0.74,-0.77 0.69,-0.73 0.65,-0.68 0.61,-0.64 0.56,-0.6 0.52,-0.56 0.48,-0.51 0.43,-0.47 0.38,-0.43 0.34,-0.39 v 0 l 0.31,-0.36 0.29,-0.36 0.28,-0.34 0.25,-0.34 0.24,-0.32 0.22,-0.32 0.2,-0.31 0.18,-0.3 0.16,-0.28 0.15,-0.28 v 0 l 0.13,-0.28 0.11,-0.28 0.11,-0.28 0.08,-0.29 0.08,-0.29 0.06,-0.29 0.05,-0.3 0.03,-0.3 0.02,-0.31 0.01,-0.31 v 0 l -0.01,-0.29 -0.02,-0.28 -0.05,-0.26 -0.06,-0.25 -0.07,-0.24 -0.1,-0.22 -0.11,-0.21 -0.13,-0.2 -0.14,-0.18 -0.16,-0.18 v 0 l -0.18,-0.16 -0.19,-0.14 -0.2,-0.13 -0.21,-0.11 -0.22,-0.1 -0.23,-0.07 -0.25,-0.06 -0.25,-0.05 -0.27,-0.02 -0.28,-0.01 v 0 h -0.23 l -0.22,0.02 -0.22,0.02 -0.22,0.04 -0.2,0.04 -0.21,0.05 -0.19,0.07 -0.19,0.07 -0.19,0.08 -0.18,0.09 v 0 l -0.18,0.11 -0.18,0.11 -0.18,0.13 -0.18,0.14 -0.19,0.15 -0.19,0.17 -0.19,0.18 -0.19,0.19 -0.2,0.2 -0.2,0.22 -1.7,-1.37 v 0 l 0.23,-0.28 0.24,-0.27 0.25,-0.25 0.25,-0.24 0.26,-0.22 0.26,-0.21 0.27,-0.2 0.27,-0.18 0.27,-0.16 0.29,-0.15 v 0 l 0.28,-0.14 0.3,-0.12 0.3,-0.1 0.31,-0.1 0.31,-0.07 0.33,-0.07 0.33,-0.05 0.33,-0.03 0.34,-0.03 z"
       inkscape:connector-curvature="0" />
    <path
       transform="translate(-240.12)"
       id="path135-1"
       clip-path="url(#cpMzA3LjUyOXw0NDguNDcxfDM2MHwyNC42NTU1-8)"
       style="fill:#ffffff;fill-rule:evenodd;stroke:none;stroke-width:0.75;stroke-linecap:round;stroke-linejoin:round;stroke-miterlimit:10"
       d="m 379.55,105.74 5.21,8.02 h -3.16 l -3.67,-6.34 -3.73,6.34 h -2.96 l 5.24,-7.91 -4.64,-7.08 h 3.07 l 3.13,5.49 3.16,-5.49 h 2.96 z"
       inkscape:connector-curvature="0" />
    <path
       transform="translate(-240.12)"
       id="path137-6"
       clip-path="url(#cpMzA3LjUyOXw0NDguNDcxfDM2MHwyNC42NTU1-8)"
       style="fill:#ffffff;fill-rule:evenodd;stroke:none;stroke-width:0.75;stroke-linecap:round;stroke-linejoin:round;stroke-miterlimit:10"
       d="m 379.55,149.92 5.21,8.03 h -3.16 l -3.67,-6.35 -3.73,6.35 h -2.96 l 5.24,-7.91 -4.64,-7.09 h 3.07 l 3.13,5.49 3.16,-5.49 h 2.96 z"
       inkscape:connector-curvature="0" />
    <path
       transform="translate(-240.12)"
       id="path139-8"
       clip-path="url(#cpMzA3LjUyOXw0NDguNDcxfDM2MHwyNC42NTU1-8)"
       style="fill:#ffffff;fill-rule:evenodd;stroke:none;stroke-width:0.75;stroke-linecap:round;stroke-linejoin:round;stroke-miterlimit:10"
       d="m 379.71,202.22 v 0 l -0.19,0.51 -0.19,0.49 -0.22,0.47 -0.22,0.44 -0.24,0.43 -0.26,0.4 -0.27,0.38 -0.28,0.35 -0.3,0.34 -0.31,0.31 v 0 l -0.32,0.3 -0.36,0.27 -0.38,0.24 -0.41,0.22 -0.43,0.2 -0.47,0.17 -0.49,0.15 -0.52,0.13 -0.54,0.1 -0.57,0.07 -0.29,-2.05 v 0 l 0.29,-0.05 0.28,-0.06 0.27,-0.06 0.25,-0.07 0.24,-0.07 0.23,-0.08 0.22,-0.08 0.21,-0.08 0.19,-0.09 0.18,-0.1 v 0 l 0.18,-0.1 0.16,-0.1 0.16,-0.11 0.15,-0.12 0.14,-0.12 0.14,-0.13 0.13,-0.13 0.12,-0.14 0.11,-0.15 0.11,-0.15 v 0 l 0.1,-0.15 0.11,-0.17 0.1,-0.17 0.11,-0.19 0.1,-0.2 0.1,-0.2 0.09,-0.22 0.1,-0.23 0.09,-0.24 0.09,-0.25 h -0.88 l -5.03,-14.99 h 2.78 l 4.02,13.08 3.92,-13.08 h 2.7 z"
       inkscape:connector-curvature="0" />
    <path
       transform="translate(-240.12,-88)"
       id="path145-1"
       clip-path="url(#cpMzA3LjUyOXw0NDguNDcxfDM2MHwyNC42NTU1-8)"
       style="fill:#ffffff;fill-rule:evenodd;stroke:none;stroke-width:0.75;stroke-linecap:round;stroke-linejoin:round;stroke-miterlimit:10"
       d="m 383.28,319.68 v 1.99 l -7.83,10.82 h 7.91 l -0.31,2.19 h -10.56 v -1.97 l 7.8,-10.81 h -7.14 v -2.22 z"
       inkscape:connector-curvature="0" />
    <path
       transform="translate(-240.12)"
       id="path147-1"
       clip-path="url(#cpMzA3LjUyOXw0NDguNDcxfDM2MHwyNC42NTU1-8)"
       style="fill:#ffffff;fill-rule:evenodd;stroke:none;stroke-width:0.75;stroke-linecap:round;stroke-linejoin:round;stroke-miterlimit:10"
       d="m 427.25,110.27 v 0 0.17 l 0.01,0.17 0.02,0.16 0.02,0.15 0.03,0.14 0.03,0.13 0.04,0.13 0.05,0.11 0.05,0.11 0.06,0.09 v 0 l 0.07,0.08 0.07,0.08 0.08,0.08 0.08,0.07 0.09,0.07 0.1,0.06 0.1,0.06 0.11,0.06 0.12,0.05 0.12,0.05 -0.6,1.82 v 0 l -0.23,-0.04 -0.22,-0.04 -0.21,-0.04 -0.2,-0.06 -0.19,-0.06 -0.18,-0.07 -0.18,-0.07 -0.16,-0.09 -0.16,-0.09 -0.15,-0.1 v 0 l -0.14,-0.11 -0.13,-0.12 -0.12,-0.13 -0.12,-0.14 -0.11,-0.15 -0.1,-0.17 -0.09,-0.17 -0.09,-0.19 -0.08,-0.2 -0.07,-0.21 v 0 l -0.32,0.43 -0.34,0.38 -0.37,0.33 -0.41,0.3 -0.43,0.24 -0.46,0.21 -0.49,0.15 -0.52,0.12 -0.55,0.06 -0.58,0.03 v 0 l -0.43,-0.02 -0.42,-0.03 -0.39,-0.07 -0.38,-0.08 -0.36,-0.12 -0.34,-0.13 -0.32,-0.17 -0.31,-0.18 -0.28,-0.22 -0.27,-0.24 v 0 l -0.24,-0.25 -0.22,-0.28 -0.19,-0.29 -0.17,-0.3 -0.14,-0.32 -0.11,-0.33 -0.09,-0.35 -0.07,-0.37 -0.03,-0.38 -0.02,-0.4 v 0 l 0.02,-0.46 0.05,-0.45 0.09,-0.42 0.12,-0.4 0.15,-0.38 0.19,-0.36 0.22,-0.33 0.26,-0.31 0.29,-0.29 0.32,-0.27 v 0 l 0.36,-0.24 0.39,-0.22 0.42,-0.19 0.45,-0.17 0.47,-0.14 0.51,-0.11 0.53,-0.09 0.56,-0.07 0.59,-0.04 0.61,-0.01 h 2.31 v -1.11 0 l -0.01,-0.31 -0.02,-0.29 -0.04,-0.27 -0.05,-0.26 -0.07,-0.23 -0.09,-0.22 -0.1,-0.2 -0.11,-0.18 -0.13,-0.17 -0.15,-0.14 v 0 l -0.16,-0.13 -0.18,-0.12 -0.19,-0.1 -0.22,-0.09 -0.22,-0.08 -0.25,-0.06 -0.26,-0.05 -0.28,-0.03 -0.29,-0.02 -0.31,-0.01 v 0 l -0.34,0.01 -0.35,0.02 -0.37,0.04 -0.38,0.06 -0.4,0.07 -0.41,0.09 -0.42,0.1 -0.44,0.12 -0.46,0.14 -0.47,0.15 -0.66,-1.91 v 0 l 0.56,-0.19 0.54,-0.18 0.54,-0.15 0.53,-0.13 0.52,-0.12 0.52,-0.09 0.5,-0.07 0.5,-0.05 0.49,-0.03 0.48,-0.01 v 0 l 0.52,0.01 0.49,0.04 0.46,0.07 0.44,0.09 0.41,0.12 0.38,0.14 0.35,0.17 0.33,0.2 0.3,0.22 0.28,0.25 v 0 l 0.25,0.26 0.22,0.29 0.2,0.32 0.17,0.33 0.14,0.36 0.12,0.37 0.09,0.4 0.06,0.43 0.04,0.44 0.02,0.47 z m -6.15,1.87 v 0 l 0.44,-0.02 0.42,-0.07 0.4,-0.12 0.38,-0.16 0.37,-0.21 0.34,-0.26 0.32,-0.3 0.31,-0.35 0.28,-0.4 0.27,-0.44 v -3.44 h -1.96 v 0 l -0.79,0.03 -0.71,0.09 -0.62,0.15 -0.54,0.22 -0.46,0.28 -0.37,0.33 -0.29,0.4 -0.21,0.46 -0.13,0.53 -0.04,0.58 v 0 l 0.01,0.26 0.02,0.25 0.03,0.23 0.05,0.23 0.06,0.2 0.07,0.2 0.08,0.18 0.1,0.17 0.11,0.16 0.13,0.14 v 0 l 0.13,0.13 0.15,0.12 0.17,0.1 0.17,0.09 0.19,0.07 0.2,0.06 0.21,0.05 0.22,0.04 0.24,0.02 z"
       inkscape:connector-curvature="0" />
    <path
       transform="translate(-240.12)"
       id="path149-1"
       clip-path="url(#cpMzA3LjUyOXw0NDguNDcxfDM2MHwyNC42NTU1-8)"
       style="fill:#ffffff;fill-rule:evenodd;stroke:none;stroke-width:0.75;stroke-linecap:round;stroke-linejoin:round;stroke-miterlimit:10"
       d="m 423.29,142.61 v 0 l 0.5,0.02 0.48,0.06 0.46,0.11 0.44,0.14 0.42,0.19 0.4,0.23 0.37,0.27 0.36,0.31 0.33,0.35 0.31,0.4 v 0 l 0.29,0.42 0.25,0.46 0.23,0.5 0.2,0.52 0.16,0.56 0.14,0.59 0.1,0.62 0.08,0.66 0.04,0.69 0.02,0.73 v 0 l -0.01,0.46 -0.02,0.45 -0.04,0.44 -0.04,0.43 -0.07,0.41 -0.08,0.41 -0.09,0.4 -0.11,0.38 -0.12,0.38 -0.13,0.36 v 0 l -0.15,0.35 -0.16,0.33 -0.18,0.31 -0.18,0.3 -0.2,0.28 -0.21,0.27 -0.23,0.25 -0.23,0.24 -0.25,0.22 -0.26,0.21 v 0 l -0.27,0.19 -0.28,0.16 -0.29,0.14 -0.3,0.13 -0.31,0.11 -0.32,0.08 -0.33,0.07 -0.33,0.05 -0.35,0.03 -0.35,0.01 v 0 l -0.47,-0.02 -0.45,-0.06 -0.43,-0.1 -0.42,-0.14 -0.41,-0.18 -0.39,-0.22 -0.37,-0.26 -0.37,-0.3 -0.34,-0.33 -0.33,-0.38 -0.26,1.65 h -2.31 v -21.03 l 2.62,-0.31 v 8.22 0 l 0.34,-0.42 0.35,-0.38 0.38,-0.33 0.39,-0.29 0.41,-0.24 0.44,-0.2 0.45,-0.16 0.47,-0.11 0.5,-0.07 z m -0.94,13.6 v 0 l 0.34,-0.01 0.33,-0.04 0.31,-0.07 0.29,-0.1 0.28,-0.13 0.26,-0.15 0.25,-0.18 0.23,-0.21 0.21,-0.24 0.21,-0.26 v 0 l 0.19,-0.3 0.16,-0.33 0.15,-0.36 0.13,-0.4 0.11,-0.42 0.09,-0.45 0.07,-0.49 0.05,-0.51 0.03,-0.55 0.01,-0.57 v 0 l -0.01,-0.6 -0.02,-0.55 -0.05,-0.53 -0.06,-0.49 -0.09,-0.45 -0.1,-0.42 -0.11,-0.39 -0.14,-0.35 -0.16,-0.32 -0.17,-0.29 v 0 l -0.19,-0.26 -0.2,-0.23 -0.22,-0.2 -0.24,-0.18 -0.25,-0.15 -0.27,-0.12 -0.28,-0.1 -0.3,-0.07 -0.31,-0.04 -0.33,-0.01 v 0 l -0.39,0.02 -0.39,0.07 -0.37,0.12 -0.36,0.16 -0.36,0.21 -0.34,0.26 -0.34,0.3 -0.32,0.35 -0.32,0.4 -0.31,0.44 v 7.17 0 l 0.12,0.19 0.13,0.17 0.13,0.17 0.14,0.16 0.14,0.15 0.15,0.14 0.15,0.14 0.16,0.13 0.17,0.12 0.16,0.11 v 0 l 0.18,0.1 0.18,0.1 0.18,0.08 0.18,0.07 0.19,0.06 0.18,0.05 0.19,0.03 0.19,0.03 0.19,0.02 z"
       inkscape:connector-curvature="0" />
    <path
       transform="translate(-240.12)"
       id="path151-0"
       clip-path="url(#cpMzA3LjUyOXw0NDguNDcxfDM2MHwyNC42NTU1-8)"
       style="fill:#ffffff;fill-rule:evenodd;stroke:none;stroke-width:0.75;stroke-linecap:round;stroke-linejoin:round;stroke-miterlimit:10"
       d="m 423.55,186.79 v 0 l 0.26,0.01 0.26,0.01 0.26,0.02 0.25,0.03 0.25,0.03 0.24,0.05 0.24,0.05 0.23,0.06 0.23,0.07 0.23,0.07 v 0 l 0.22,0.08 0.22,0.09 0.21,0.1 0.22,0.11 0.21,0.11 0.22,0.13 0.21,0.14 0.21,0.14 0.2,0.16 0.21,0.17 -1.25,1.65 v 0 l -0.16,-0.11 -0.16,-0.11 -0.16,-0.1 -0.16,-0.09 -0.15,-0.09 -0.16,-0.07 -0.15,-0.08 -0.16,-0.06 -0.15,-0.07 -0.16,-0.05 v 0 l -0.15,-0.05 -0.15,-0.05 -0.16,-0.04 -0.16,-0.04 -0.16,-0.03 -0.17,-0.03 -0.17,-0.02 -0.17,-0.01 -0.18,-0.01 h -0.18 v 0 l -0.35,0.01 -0.34,0.04 -0.33,0.08 -0.31,0.1 -0.29,0.13 -0.28,0.16 -0.26,0.19 -0.24,0.21 -0.23,0.25 -0.21,0.28 v 0 l -0.19,0.3 -0.17,0.33 -0.15,0.36 -0.13,0.39 -0.11,0.42 -0.09,0.44 -0.07,0.47 -0.05,0.5 -0.03,0.53 -0.01,0.55 v 0 l 0.01,0.56 0.03,0.52 0.05,0.5 0.07,0.46 0.09,0.44 0.11,0.41 0.13,0.37 0.15,0.35 0.17,0.32 0.19,0.28 v 0 l 0.2,0.26 0.23,0.23 0.24,0.2 0.26,0.17 0.28,0.15 0.29,0.12 0.31,0.09 0.33,0.07 0.34,0.04 0.36,0.01 v 0 h 0.18 l 0.17,-0.01 0.17,-0.01 0.16,-0.02 0.17,-0.02 0.16,-0.03 0.16,-0.03 0.15,-0.04 0.15,-0.05 0.15,-0.04 v 0 l 0.15,-0.06 0.16,-0.07 0.15,-0.07 0.16,-0.08 0.17,-0.09 0.16,-0.09 0.17,-0.1 0.18,-0.1 0.17,-0.11 0.18,-0.12 1.2,1.71 v 0 l -0.42,0.31 -0.42,0.28 -0.43,0.25 -0.45,0.22 -0.45,0.18 -0.46,0.15 -0.48,0.11 -0.48,0.09 -0.49,0.04 -0.5,0.02 v 0 l -0.6,-0.02 -0.57,-0.06 -0.54,-0.1 -0.52,-0.15 -0.5,-0.18 -0.46,-0.23 -0.45,-0.26 -0.41,-0.31 -0.39,-0.35 -0.37,-0.39 v 0 l -0.33,-0.42 -0.3,-0.46 -0.26,-0.49 -0.22,-0.52 -0.19,-0.55 -0.16,-0.58 -0.12,-0.61 -0.09,-0.65 -0.05,-0.67 -0.02,-0.71 v 0 l 0.01,-0.47 0.03,-0.46 0.04,-0.45 0.05,-0.44 0.07,-0.42 0.09,-0.41 0.1,-0.4 0.12,-0.39 0.14,-0.38 0.15,-0.36 v 0 l 0.17,-0.35 0.18,-0.34 0.19,-0.32 0.2,-0.3 0.22,-0.29 0.23,-0.27 0.25,-0.25 0.25,-0.24 0.27,-0.22 0.29,-0.21 v 0 l 0.3,-0.19 0.31,-0.17 0.32,-0.15 0.34,-0.13 0.34,-0.11 0.36,-0.09 0.36,-0.07 0.38,-0.05 0.39,-0.03 z"
       inkscape:connector-curvature="0" />
    <path
       transform="translate(-240.12,-88)"
       id="path157-8"
       clip-path="url(#cpMzA3LjUyOXw0NDguNDcxfDM2MHwyNC42NTU1-8)"
       style="fill:#ffffff;fill-rule:evenodd;stroke:none;stroke-width:0.75;stroke-linecap:round;stroke-linejoin:round;stroke-miterlimit:10"
       d="m 425.21,315.44 v 0 l -0.23,0.01 -0.22,0.01 -0.2,0.03 -0.19,0.04 -0.18,0.05 -0.17,0.06 -0.15,0.07 -0.13,0.08 -0.13,0.09 -0.1,0.1 v 0 l -0.1,0.11 -0.09,0.12 -0.08,0.13 -0.06,0.15 -0.06,0.16 -0.04,0.16 -0.04,0.18 -0.03,0.2 -0.01,0.2 -0.01,0.22 v 2.07 h 3.65 l -0.29,2.02 h -3.36 v 12.98 h -2.61 V 321.7 h -2.68 v -2.02 h 2.68 v -2.05 0 l 0.01,-0.38 0.03,-0.36 0.07,-0.35 0.08,-0.33 0.11,-0.32 0.14,-0.3 0.16,-0.29 0.18,-0.27 0.21,-0.26 0.23,-0.24 v 0 l 0.26,-0.22 0.28,-0.21 0.3,-0.18 0.32,-0.15 0.33,-0.13 0.36,-0.11 0.38,-0.09 0.39,-0.05 0.42,-0.04 0.43,-0.01 v 0 h 0.2 l 0.2,0.01 0.19,0.01 0.19,0.01 0.19,0.02 0.18,0.02 0.17,0.02 0.17,0.03 0.17,0.04 0.16,0.04 v 0 l 0.17,0.03 0.17,0.04 0.17,0.05 0.17,0.05 0.17,0.05 0.18,0.06 0.18,0.07 0.18,0.07 0.19,0.07 0.19,0.08 -0.83,1.9 v 0 l -0.26,-0.11 -0.25,-0.09 -0.26,-0.09 -0.26,-0.07 -0.26,-0.06 -0.27,-0.06 -0.26,-0.04 -0.26,-0.02 -0.27,-0.02 z"
       inkscape:connector-curvature="0" />
    <path
       transform="translate(-240.12)"
       id="path159-0"
       clip-path="url(#cpMzA3LjUyOXw0NDguNDcxfDM2MHwyNC42NTU1-8)"
       style="fill:#000000;fill-rule:evenodd;stroke:none;stroke-width:0.75;stroke-linecap:round;stroke-linejoin:round;stroke-miterlimit:10"
       d="m 329.5,56.66 v 9 h -1.57 v -9 z m -0.8,-4.31 v 0 h 0.09 l 0.1,0.01 0.09,0.01 0.08,0.02 0.08,0.03 0.08,0.04 0.08,0.04 0.07,0.04 0.07,0.05 0.06,0.06 v 0 l 0.06,0.07 0.05,0.06 0.05,0.07 0.04,0.07 0.03,0.08 0.03,0.08 0.02,0.08 0.01,0.08 0.01,0.09 0.01,0.09 v 0 l -0.01,0.09 -0.01,0.09 -0.01,0.08 -0.02,0.09 -0.03,0.07 -0.03,0.08 -0.04,0.07 -0.05,0.07 -0.05,0.07 -0.06,0.06 v 0 l -0.06,0.05 -0.07,0.05 -0.07,0.05 -0.08,0.04 -0.08,0.03 -0.08,0.02 -0.08,0.02 -0.09,0.02 -0.1,0.01 h -0.09 v 0 h -0.1 l -0.09,-0.01 -0.09,-0.02 -0.08,-0.02 -0.08,-0.02 -0.08,-0.03 -0.07,-0.04 -0.07,-0.05 -0.07,-0.05 -0.06,-0.05 v 0 l -0.06,-0.06 -0.05,-0.07 -0.05,-0.07 -0.04,-0.07 -0.03,-0.08 -0.03,-0.07 -0.02,-0.09 -0.01,-0.08 -0.01,-0.09 -0.01,-0.09 v 0 l 0.01,-0.09 0.01,-0.09 0.01,-0.08 0.02,-0.08 0.03,-0.08 0.03,-0.08 0.04,-0.07 0.05,-0.07 0.05,-0.06 0.06,-0.07 v 0 l 0.06,-0.06 0.07,-0.05 0.07,-0.04 0.07,-0.04 0.08,-0.04 0.08,-0.03 0.08,-0.02 0.09,-0.01 0.09,-0.01 z"
       inkscape:connector-curvature="0" />
    <path
       transform="translate(-240.12)"
       id="path161-8"
       clip-path="url(#cpMzA3LjUyOXw0NDguNDcxfDM2MHwyNC42NTU1-8)"
       style="fill:#000000;fill-rule:evenodd;stroke:none;stroke-width:0.75;stroke-linecap:round;stroke-linejoin:round;stroke-miterlimit:10"
       d="m 339.71,53.05 v 12.61 h -1.39 l -0.15,-1.24 v 0 l -0.09,0.13 -0.1,0.13 -0.1,0.12 -0.1,0.12 -0.11,0.11 -0.11,0.1 -0.12,0.1 -0.12,0.09 -0.13,0.09 -0.13,0.08 v 0 l -0.13,0.07 -0.14,0.07 -0.14,0.05 -0.15,0.05 -0.14,0.04 -0.15,0.04 -0.16,0.02 -0.15,0.02 -0.16,0.01 -0.16,0.01 v 0 l -0.32,-0.02 -0.3,-0.03 -0.28,-0.07 -0.28,-0.09 -0.25,-0.11 -0.25,-0.14 -0.23,-0.16 -0.21,-0.19 -0.21,-0.22 -0.18,-0.24 v 0 l -0.17,-0.26 -0.15,-0.28 -0.14,-0.29 -0.11,-0.32 -0.1,-0.33 -0.08,-0.35 -0.06,-0.36 -0.05,-0.39 -0.02,-0.4 -0.01,-0.41 v 0 -0.28 l 0.02,-0.26 0.02,-0.27 0.03,-0.25 0.04,-0.25 0.04,-0.24 0.06,-0.24 0.06,-0.23 0.07,-0.22 0.09,-0.22 v 0 l 0.08,-0.21 0.1,-0.2 0.11,-0.19 0.11,-0.19 0.12,-0.17 0.12,-0.16 0.14,-0.15 0.14,-0.15 0.15,-0.13 0.15,-0.13 v 0 l 0.17,-0.11 0.17,-0.11 0.17,-0.09 0.18,-0.08 0.19,-0.07 0.19,-0.05 0.19,-0.04 0.2,-0.04 0.21,-0.01 0.21,-0.01 v 0 l 0.28,0.01 0.26,0.03 0.26,0.06 0.25,0.08 0.25,0.1 0.24,0.12 0.23,0.14 0.23,0.17 0.22,0.19 0.21,0.21 v -4.71 z m -3.79,11.57 v 0 h 0.14 l 0.14,-0.01 0.13,-0.02 0.13,-0.02 0.12,-0.03 0.12,-0.04 0.12,-0.04 0.11,-0.05 0.11,-0.05 0.11,-0.06 v 0 l 0.1,-0.08 0.1,-0.07 0.1,-0.09 0.1,-0.09 0.1,-0.1 0.1,-0.1 0.1,-0.11 0.09,-0.12 0.1,-0.12 0.1,-0.13 v -4.41 0 l -0.09,-0.11 -0.09,-0.11 -0.1,-0.1 -0.09,-0.09 -0.09,-0.09 -0.1,-0.09 -0.1,-0.08 -0.1,-0.07 -0.1,-0.07 -0.1,-0.06 v 0 l -0.1,-0.05 -0.1,-0.06 -0.11,-0.04 -0.11,-0.04 -0.11,-0.04 -0.11,-0.02 -0.12,-0.03 -0.12,-0.01 -0.12,-0.01 h -0.13 v 0 h -0.2 l -0.19,0.03 -0.19,0.04 -0.18,0.07 -0.16,0.07 -0.16,0.1 -0.15,0.11 -0.14,0.13 -0.13,0.15 -0.12,0.17 v 0 l -0.1,0.18 -0.1,0.2 -0.09,0.22 -0.07,0.23 -0.06,0.25 -0.05,0.27 -0.04,0.28 -0.03,0.31 -0.02,0.32 v 0.33 0 0.34 l 0.02,0.32 0.03,0.31 0.03,0.28 0.05,0.27 0.06,0.25 0.07,0.23 0.08,0.22 0.09,0.2 0.1,0.18 v 0 l 0.11,0.16 0.12,0.14 0.13,0.13 0.14,0.11 0.14,0.1 0.16,0.07 0.16,0.06 0.18,0.05 0.18,0.02 z"
       inkscape:connector-curvature="0" />
    <path
       transform="translate(-240.12)"
       id="path169-1"
       clip-path="url(#cpMzA3LjUyOXw0NDguNDcxfDM2MHwyNC42NTU1-8)"
       style="fill:#000000;fill-rule:evenodd;stroke:none;stroke-width:0.75;stroke-linecap:round;stroke-linejoin:round;stroke-miterlimit:10"
       d="m 419.07,56.66 -3.06,9 h -1.89 l -3.11,-9 h 1.71 l 2.35,7.6 2.34,-7.6 z"
       inkscape:connector-curvature="0" />
    <path
       transform="translate(-240.12)"
       id="path171-7"
       clip-path="url(#cpMzA3LjUyOXw0NDguNDcxfDM2MHwyNC42NTU1-8)"
       style="fill:#000000;fill-rule:evenodd;stroke:none;stroke-width:0.75;stroke-linecap:round;stroke-linejoin:round;stroke-miterlimit:10"
       d="m 426.92,63.56 v 0 0.11 l 0.01,0.1 0.01,0.1 0.01,0.09 0.02,0.08 0.02,0.08 0.02,0.07 0.03,0.07 0.03,0.06 0.04,0.06 v 0 l 0.04,0.05 0.04,0.05 0.05,0.04 0.05,0.05 0.05,0.04 0.06,0.04 0.06,0.03 0.07,0.03 0.07,0.04 0.07,0.02 -0.36,1.1 v 0 l -0.13,-0.02 -0.14,-0.03 -0.12,-0.02 -0.12,-0.04 -0.12,-0.03 -0.11,-0.05 -0.1,-0.04 -0.1,-0.05 -0.1,-0.06 -0.08,-0.06 v 0 l -0.09,-0.06 -0.08,-0.07 -0.07,-0.08 -0.07,-0.09 -0.07,-0.09 -0.06,-0.1 -0.05,-0.1 -0.06,-0.12 -0.04,-0.12 -0.05,-0.12 v 0 l -0.19,0.25 -0.2,0.23 -0.23,0.21 -0.24,0.17 -0.26,0.15 -0.28,0.12 -0.29,0.1 -0.31,0.06 -0.33,0.04 -0.35,0.02 v 0 l -0.26,-0.01 -0.25,-0.02 -0.23,-0.04 -0.23,-0.05 -0.22,-0.07 -0.2,-0.08 -0.19,-0.1 -0.19,-0.11 -0.17,-0.13 -0.16,-0.14 v 0 l -0.14,-0.16 -0.13,-0.16 -0.12,-0.18 -0.1,-0.18 -0.08,-0.19 -0.07,-0.2 -0.06,-0.21 -0.03,-0.22 -0.03,-0.23 v -0.24 0 l 0.01,-0.28 0.03,-0.26 0.05,-0.26 0.07,-0.24 0.09,-0.23 0.11,-0.21 0.14,-0.2 0.15,-0.19 0.18,-0.17 0.19,-0.16 v 0 l 0.22,-0.15 0.23,-0.13 0.25,-0.11 0.27,-0.1 0.28,-0.09 0.31,-0.07 0.32,-0.05 0.33,-0.04 0.36,-0.02 0.37,-0.01 h 1.38 v -0.66 0 l -0.01,-0.19 -0.01,-0.17 -0.02,-0.17 -0.03,-0.15 -0.05,-0.14 -0.05,-0.13 -0.06,-0.12 -0.07,-0.11 -0.07,-0.1 -0.09,-0.09 v 0 l -0.1,-0.08 -0.11,-0.07 -0.11,-0.06 -0.13,-0.05 -0.14,-0.05 -0.14,-0.03 -0.16,-0.03 -0.17,-0.02 -0.17,-0.02 h -0.19 v 0 l -0.2,0.01 -0.21,0.01 -0.22,0.02 -0.23,0.04 -0.24,0.04 -0.25,0.05 -0.25,0.06 -0.27,0.08 -0.27,0.08 -0.28,0.09 -0.4,-1.15 v 0 l 0.34,-0.11 0.32,-0.11 0.33,-0.09 0.31,-0.08 0.32,-0.07 0.31,-0.05 0.3,-0.04 0.3,-0.04 0.29,-0.01 0.29,-0.01 v 0 l 0.31,0.01 0.29,0.02 0.28,0.04 0.26,0.06 0.25,0.07 0.23,0.08 0.21,0.1 0.2,0.12 0.18,0.14 0.16,0.15 v 0 l 0.15,0.16 0.14,0.17 0.12,0.19 0.1,0.2 0.08,0.21 0.07,0.23 0.06,0.24 0.04,0.25 0.02,0.27 0.01,0.28 z m -3.69,1.13 v 0 l 0.27,-0.02 0.25,-0.04 0.24,-0.07 0.23,-0.1 0.22,-0.12 0.2,-0.16 0.2,-0.18 0.18,-0.21 0.17,-0.24 0.16,-0.26 v -2.07 h -1.18 v 0 l -0.47,0.02 -0.43,0.06 -0.37,0.09 -0.32,0.13 -0.28,0.16 -0.22,0.21 -0.18,0.24 -0.12,0.27 -0.08,0.32 -0.02,0.35 v 0 0.15 l 0.01,0.15 0.02,0.14 0.03,0.14 0.04,0.12 0.04,0.12 0.05,0.11 0.06,0.1 0.07,0.09 0.07,0.09 v 0 l 0.08,0.08 0.09,0.07 0.1,0.06 0.11,0.05 0.11,0.05 0.12,0.03 0.13,0.03 0.13,0.02 0.14,0.01 z"
       inkscape:connector-curvature="0" />
    <path
       transform="translate(-240.12)"
       id="path173-0"
       clip-path="url(#cpMzA3LjUyOXw0NDguNDcxfDM2MHwyNC42NTU1-8)"
       style="fill:#000000;fill-rule:evenodd;stroke:none;stroke-width:0.75;stroke-linecap:round;stroke-linejoin:round;stroke-miterlimit:10"
       d="m 431.94,65.87 v 0 l -0.17,-0.01 -0.17,-0.01 -0.15,-0.03 -0.15,-0.04 -0.14,-0.04 -0.14,-0.06 -0.12,-0.06 -0.12,-0.08 -0.12,-0.09 -0.1,-0.1 v 0 l -0.1,-0.11 -0.08,-0.11 -0.08,-0.13 -0.06,-0.13 -0.06,-0.15 -0.04,-0.15 -0.03,-0.16 -0.03,-0.16 -0.01,-0.18 -0.01,-0.18 V 53.05 l 1.57,-0.19 v 10.99 0 0.08 l 0.01,0.06 v 0.07 l 0.01,0.06 0.01,0.06 0.01,0.05 0.02,0.05 0.02,0.04 0.02,0.04 0.02,0.04 v 0 l 0.03,0.03 0.03,0.03 0.04,0.03 0.04,0.02 0.04,0.02 0.05,0.01 0.05,0.01 0.05,0.01 0.06,0.01 h 0.05 v 0 h 0.07 l 0.06,-0.01 h 0.06 l 0.06,-0.01 0.06,-0.01 0.06,-0.01 0.06,-0.01 0.05,-0.02 0.05,-0.01 0.06,-0.02 0.41,1.09 v 0 l -0.12,0.06 -0.12,0.05 -0.11,0.05 -0.12,0.04 -0.13,0.03 -0.12,0.03 -0.13,0.02 -0.13,0.01 -0.14,0.01 z"
       inkscape:connector-curvature="0" />
    <text
       id="text1025-6"
       y="64.830513"
       x="114.54101"
       style="font-style:normal;font-weight:normal;font-size:40px;line-height:1.25;font-family:sans-serif;letter-spacing:0px;word-spacing:0px;fill:#000000;fill-opacity:1;stroke:none"
       xml:space="preserve"><tspan
         style="font-style:normal;font-variant:normal;font-weight:normal;font-stretch:normal;font-size:16px;font-family:sans-serif;-inkscape-font-specification:'sans-serif, Normal';font-variant-ligatures:normal;font-variant-caps:normal;font-variant-numeric:normal;font-feature-settings:normal;text-align:start;writing-mode:lr-tb;text-anchor:start"
         y="64.830513"
         x="114.54101"
         id="tspan1023-2"
         sodipodi:role="line">group</tspan></text>
    <text
       id="text1630"
       y="243.30508"
       x="415.28815"
       style="font-style:normal;font-weight:normal;font-size:40px;line-height:1.25;font-family:sans-serif;letter-spacing:0px;word-spacing:0px;fill:#000000;fill-opacity:1;stroke:none"
       xml:space="preserve"><tspan
         style="font-style:normal;font-variant:normal;font-weight:normal;font-stretch:normal;font-size:18.66666603px;font-family:sans-serif;-inkscape-font-specification:'sans-serif, Normal';font-variant-ligatures:normal;font-variant-caps:normal;font-variant-numeric:normal;font-feature-settings:normal;text-align:start;writing-mode:lr-tb;text-anchor:start"
         y="243.30508"
         x="415.28815"
         id="tspan1628"
         sodipodi:role="line">0</tspan></text>
    <text
       id="text1630-1"
       y="287.77014"
       x="415.86273"
       style="font-style:normal;font-weight:normal;font-size:40px;line-height:1.25;font-family:sans-serif;letter-spacing:0px;word-spacing:0px;fill:#000000;fill-opacity:1;stroke:none"
       xml:space="preserve"><tspan
         style="font-style:normal;font-variant:normal;font-weight:normal;font-stretch:normal;font-size:18.66666603px;font-family:sans-serif;-inkscape-font-specification:'sans-serif, Normal';font-variant-ligatures:normal;font-variant-caps:normal;font-variant-numeric:normal;font-feature-settings:normal;text-align:start;writing-mode:lr-tb;text-anchor:start"
         y="287.77014"
         x="415.86273"
         id="tspan1628-1"
         sodipodi:role="line">0</tspan></text>
    <text
       id="text1652"
       y="31.271189"
       x="89.237289"
       style="font-style:normal;font-weight:normal;font-size:40px;line-height:1.25;font-family:sans-serif;letter-spacing:0px;word-spacing:0px;fill:#000000;fill-opacity:1;stroke:none"
       xml:space="preserve"><tspan
         style="font-style:normal;font-variant:normal;font-weight:normal;font-stretch:normal;font-size:16px;font-family:sans-serif;-inkscape-font-specification:'sans-serif, Normal';font-variant-ligatures:normal;font-variant-caps:normal;font-variant-numeric:normal;font-feature-settings:normal;text-align:start;writing-mode:lr-tb;text-anchor:start"
         y="31.271189"
         x="89.237289"
         id="tspan1650"
         sodipodi:role="line">uncomplete</tspan></text>
    <text
       id="text1652-3"
       y="28.058128"
       x="340.43521"
       style="font-style:normal;font-weight:normal;font-size:40px;line-height:1.25;font-family:sans-serif;letter-spacing:0px;word-spacing:0px;fill:#000000;fill-opacity:1;stroke:none"
       xml:space="preserve"><tspan
         style="font-style:normal;font-variant:normal;font-weight:normal;font-stretch:normal;font-size:16px;font-family:sans-serif;-inkscape-font-specification:'sans-serif, Normal';font-variant-ligatures:normal;font-variant-caps:normal;font-variant-numeric:normal;font-feature-settings:normal;text-align:start;writing-mode:lr-tb;text-anchor:start"
         y="28.058128"
         x="340.43521"
         id="tspan1650-5"
         sodipodi:role="line">complete</tspan></text>
  </g>
</svg>
